<svg width="150" height="150" viewBox="0 0 150 150" fill="none" xmlns="http://www.w3.org/2000/svg">
<path d="M74.999 107.002C103.318 107.002 126.275 97.9961 126.275 86.8868C126.275 75.7774 103.318 66.7715 74.999 66.7715C46.6799 66.7715 23.7227 75.7774 23.7227 86.8868C23.7227 97.9961 46.6799 107.002 74.999 107.002Z" fill="#B0CAFF"/>
<path d="M126.091 37.5736L120.753 79.9805C120.591 81.2736 119.703 82.3583 118.47 82.7764L81.1211 95.4028V82.0944L111.106 59.4278L117.9 33.75H122.717C124.763 33.75 126.346 35.5444 126.091 37.5736Z" fill="#0055FF"/>
<path d="M81.1211 95.7172C81.0572 95.7172 80.9933 95.6978 80.9391 95.6589C80.8572 95.6006 80.8086 95.5061 80.8086 95.4047V82.0964C80.8086 81.9978 80.8544 81.9061 80.9322 81.8478L110.832 59.245L117.599 33.6714C117.635 33.5339 117.759 33.4395 117.902 33.4395H122.718C123.784 33.4395 124.797 33.8978 125.502 34.6964C126.206 35.495 126.534 36.5589 126.4 37.6145L121.063 80.0214C120.886 81.4228 119.907 82.6214 118.568 83.0742L81.2211 95.7006C81.1891 95.7117 81.1544 95.7172 81.1211 95.7172ZM81.4336 82.2506V94.9686L118.368 82.4811C119.481 82.1047 120.296 81.1089 120.442 79.9422L125.779 37.5353C125.891 36.6575 125.617 35.7728 125.032 35.1075C124.446 34.4436 123.603 34.0631 122.717 34.0631H118.141L111.409 59.5089C111.391 59.577 111.35 59.6367 111.295 59.6783L81.4336 82.2506Z" fill="#B0CAFF"/>
<path d="M81.1227 82.0966L42.9824 76.7966L72.9671 55.4785L111.107 59.4285L81.1227 82.0966Z" fill="url(#paint0_linear_2298_75293)"/>
<path d="M81.1234 82.4087C81.1095 82.4087 81.0942 82.4074 81.0803 82.406L42.9401 77.1073C42.8137 77.0893 42.7095 76.9962 42.6789 76.8726C42.6484 76.7476 42.697 76.6185 42.8012 76.5435L72.7859 55.2254C72.8484 55.181 72.9234 55.1615 72.9998 55.1699L111.14 59.1199C111.268 59.1337 111.375 59.2226 111.41 59.3462C111.444 59.4699 111.4 59.6018 111.297 59.6796L81.3123 82.3462C81.2567 82.3865 81.1901 82.4087 81.1234 82.4087ZM43.8053 76.5948L81.0373 81.7685L110.286 59.6587L73.0526 55.8032L43.8053 76.5948Z" fill="#B0CAFF"/>
<path d="M73.7645 58.0781L83.3437 59.0712L73.7617 58.0781H73.7645Z" fill="#0055FF"/>
<path d="M83.346 59.3845C83.3349 59.3845 83.3238 59.3845 83.3141 59.3831L73.7321 58.39C73.5668 58.3734 73.4432 58.2289 73.4516 58.0636C73.4613 57.8872 73.621 57.7511 73.7974 57.7692L83.378 58.7622C83.5502 58.7803 83.6738 58.9331 83.6571 59.1053C83.6391 59.2636 83.503 59.3845 83.346 59.3845Z" fill="#B0CAFF"/>
<path d="M104.447 61.257L98.3972 65.832L87.8125 64.7362L94.1958 60.1973H94.1972L104.447 61.257Z" fill="#0055FF"/>
<path d="M98.3965 66.145C98.3854 66.145 98.3757 66.145 98.3646 66.1436L87.7798 65.0478C87.6507 65.0339 87.5423 64.9422 87.5104 64.8158C87.4771 64.6894 87.5257 64.5575 87.6312 64.4811L94.0146 59.9422C94.0757 59.8978 94.1548 59.8783 94.2298 59.8867L104.48 60.9478C104.608 60.9617 104.715 61.0505 104.749 61.1742C104.784 61.2978 104.74 61.4297 104.637 61.5075L98.5868 66.0825C98.5312 66.1228 98.4646 66.145 98.3965 66.145ZM88.6687 64.5117L98.3062 65.5103L103.626 61.488L94.2812 60.5214L88.6687 64.5117Z" fill="#B0CAFF"/>
<path d="M76.9608 63.6114L70.5747 68.153L60.9941 67.16L67.3803 62.6211L76.9608 63.6114Z" fill="#0055FF"/>
<path d="M70.574 68.466C70.5629 68.466 70.5531 68.466 70.542 68.4646L60.9615 67.4716C60.8323 67.4577 60.724 67.366 60.692 67.2396C60.6587 67.1133 60.7073 66.9813 60.8129 66.9049L67.199 62.366C67.2615 62.3216 67.3365 62.3021 67.4115 62.3105L76.992 63.3008C77.1212 63.3146 77.2295 63.4063 77.2615 63.5327C77.2948 63.6591 77.2462 63.791 77.1406 63.8674L70.7545 68.4091C70.7018 68.4452 70.6379 68.466 70.574 68.466ZM61.8504 66.9355L70.4893 67.8299L76.1045 63.8369L67.4656 62.9438L61.8504 66.9355Z" fill="#B0CAFF"/>
<path d="M70.5747 68.1532L64.1885 72.6935H64.1872L54.6094 71.7004L60.9941 67.1602L70.5747 68.1532Z" fill="#0055FF"/>
<path d="M64.1878 73.0059C64.1767 73.0059 64.1642 73.0059 64.1545 73.0045L54.5767 72.0115C54.4475 71.9976 54.3392 71.9059 54.3073 71.7795C54.2739 71.6531 54.3225 71.5212 54.4281 71.4448L60.8128 66.9031C60.8753 66.8587 60.9503 66.8393 61.0267 66.8476L70.6073 67.8406C70.7364 67.8545 70.8448 67.9462 70.8767 68.0726C70.91 68.199 70.8614 68.3309 70.7559 68.4073L64.3712 72.949C64.317 72.9865 64.2531 73.0059 64.1878 73.0059ZM55.4642 71.4754L64.1031 72.3698L69.717 68.3768L61.0781 67.4823L55.4642 71.4754Z" fill="#B0CAFF"/>
<path d="M92.3474 70.4073L86.296 74.9823L75.0391 73.8171L81.4266 69.2754L92.3474 70.4073Z" fill="#0055FF"/>
<path d="M86.2953 75.2953C86.2842 75.2953 86.2745 75.2953 86.2634 75.2939L75.0078 74.1287C74.8786 74.1148 74.7703 74.0231 74.7384 73.8967C74.7064 73.7703 74.7536 73.6384 74.8592 73.562L81.2453 69.0203C81.3078 68.9759 81.3828 68.9564 81.4592 68.9648L92.38 70.0967C92.5078 70.1106 92.6148 70.1995 92.6495 70.3231C92.6842 70.4467 92.6398 70.5787 92.537 70.6564L86.4856 75.2314C86.4286 75.2731 86.362 75.2953 86.2953 75.2953ZM75.8953 73.5925L86.205 74.6606L91.5259 70.6384L81.5106 69.6009L75.8953 73.5925Z" fill="#B0CAFF"/>
<path d="M86.2949 74.9836L80.3254 79.4961L69.2227 77.9531L75.0379 73.8184L86.2949 74.9836Z" fill="#0055FF"/>
<path d="M80.3261 79.8077C80.3122 79.8077 80.297 79.8064 80.2831 79.805L69.1803 78.2619C69.0539 78.2439 68.9497 78.1508 68.9192 78.0272C68.8886 77.9022 68.9372 77.773 69.0414 77.698L74.8567 73.5633C74.9192 73.5189 74.9942 73.4994 75.0706 73.5077L86.3261 74.673C86.4539 74.6869 86.5608 74.7758 86.5956 74.8994C86.6303 75.023 86.5858 75.155 86.4831 75.2327L80.515 79.7452C80.4608 79.7855 80.3942 79.8077 80.3261 79.8077ZM70.0456 77.7508L80.2414 79.1675L85.4733 75.2119L75.1233 74.1397L70.0456 77.7508Z" fill="#B0CAFF"/>
<path d="M75.037 73.8189L69.2217 77.9536L58.8203 76.5092L64.1842 72.6953H64.1856L75.037 73.8189Z" fill="#3377FF"/>
<path d="M69.2224 78.2653C69.2085 78.2653 69.1932 78.2639 69.1793 78.2625L58.7779 76.818C58.6516 76.8 58.5474 76.7069 58.5168 76.5833C58.4863 76.4583 58.5349 76.3291 58.6391 76.2541L64.0029 72.4403C64.0641 72.3958 64.1432 72.3764 64.2182 72.3847L75.0696 73.5083C75.1988 73.5222 75.3071 73.6139 75.3391 73.7403C75.3724 73.8666 75.3238 73.9986 75.2182 74.075L69.4029 78.2097C69.3502 78.2458 69.2877 78.2653 69.2224 78.2653ZM59.6432 76.3069L69.1418 77.6264L74.1807 74.043L64.2696 73.0166L59.6432 76.3069Z" fill="#B0CAFF"/>
<path d="M64.1851 72.6942L58.8212 76.5081L49.6406 75.2317L54.6073 71.7012L64.1851 72.6942Z" fill="#0055FF"/>
<path d="M58.8219 76.8197C58.808 76.8197 58.7927 76.8183 58.7788 76.8169L49.5983 75.5406C49.4719 75.5225 49.3677 75.4294 49.3371 75.3058C49.3066 75.1808 49.3552 75.0517 49.4594 74.9767L54.426 71.4461C54.4885 71.4017 54.5635 71.3822 54.6399 71.3906L64.2177 72.3836C64.3469 72.3975 64.4552 72.4892 64.4871 72.6156C64.5205 72.7419 64.4719 72.8739 64.3663 72.9503L59.0024 76.7642C58.9496 76.8003 58.8871 76.8197 58.8219 76.8197ZM50.4635 75.0294L58.7413 76.1808L63.3288 72.9197L54.6913 72.0253L50.4635 75.0294Z" fill="#B0CAFF"/>
<path d="M94.1963 60.1973L83.3477 59.0723L94.1977 60.1945H94.2004L104.448 61.257L94.1977 60.1973H94.1963Z" fill="#0055FF"/>
<path d="M104.449 61.569C104.438 61.569 104.427 61.569 104.417 61.5677L94.1756 60.5079C94.1728 60.5079 94.1686 60.5079 94.1658 60.5065L83.3158 59.3815C83.1436 59.3635 83.02 59.2107 83.0367 59.0385C83.0533 58.8663 83.2089 58.7427 83.3797 58.7593L83.3922 58.7607L94.2228 59.8815C94.2256 59.8815 94.2297 59.8815 94.2325 59.8829L104.481 60.9454C104.653 60.9635 104.777 61.1163 104.76 61.2885C104.742 61.4496 104.606 61.569 104.449 61.569Z" fill="#B0CAFF"/>
<path d="M72.834 55.4789L82.1187 32.3066L117.902 33.7511L111.109 59.4303L72.834 55.4789Z" fill="url(#paint1_linear_2298_75293)"/>
<path d="M111.109 59.7422C111.097 59.7422 111.088 59.7422 111.077 59.7408L72.8016 55.7908C72.7044 55.7811 72.6169 55.7255 72.5669 55.6422C72.5155 55.5589 72.5072 55.4561 72.5447 55.3644L81.8294 32.1922C81.878 32.07 82.0002 31.9908 82.1322 31.9964L117.916 33.4408C118.01 33.445 118.097 33.4908 118.154 33.5672C118.211 33.6436 118.229 33.7408 118.204 33.8325L111.411 59.5103C111.374 59.6478 111.249 59.7422 111.109 59.7422ZM73.278 55.2103L110.875 59.0908L117.5 34.0478L82.3266 32.6283L73.278 55.2103Z" fill="#B0CAFF"/>
<path d="M76.1152 54.0785L84.0472 34.2812L114.619 35.5146L108.815 57.4535L76.1152 54.0785Z" fill="#B0CAFF"/>
<path d="M108.814 57.7664C108.803 57.7664 108.794 57.7664 108.782 57.765L76.0825 54.3886C75.9852 54.3789 75.8977 54.3233 75.8477 54.24C75.7977 54.1567 75.788 54.0539 75.8255 53.9622L83.7575 34.165C83.8061 34.0428 83.9283 33.9622 84.0602 33.9692L114.632 35.2039C114.727 35.2081 114.814 35.2539 114.871 35.3303C114.928 35.4067 114.946 35.5039 114.921 35.5956L109.117 57.5331C109.08 57.6719 108.955 57.7664 108.814 57.7664ZM76.5589 53.8094L108.581 57.115L114.217 35.8122L84.2547 34.6025L76.5589 53.8094Z" fill="#B0CAFF"/>
<path d="M42.9844 76.7949V90.1033L81.1233 95.4033V82.0935L42.9844 76.7949Z" fill="#0055FF"/>
<path d="M81.1227 95.7166C81.1088 95.7166 81.0935 95.7152 81.0796 95.7138L42.9408 90.4152C42.7866 90.3944 42.6713 90.261 42.6713 90.1055L42.6699 76.7971C42.6699 76.7069 42.7088 76.6207 42.7769 76.561C42.8449 76.5013 42.9352 76.4749 43.0255 76.4874L81.1644 81.786C81.3185 81.8069 81.4338 81.9402 81.4338 82.0957V95.4041C81.4338 95.4944 81.3949 95.5805 81.3269 95.6402C81.2713 95.6888 81.1977 95.7166 81.1227 95.7166ZM43.2963 89.8319L80.8102 95.0444V82.3666L43.2963 77.1541V89.8319Z" fill="#B0CAFF"/>
<path d="M76.711 86.3911V88.1022L46.918 84.3355V82.623L76.711 86.3911Z" fill="url(#paint2_linear_2298_75293)"/>
<path d="M77.0235 88.457L46.6055 84.6126V82.2695L77.0235 86.1167V88.457ZM47.2305 84.0612L76.3985 87.7487V86.6667L47.2305 82.9779V84.0612Z" fill="url(#paint3_linear_2298_75293)"/>
<path d="M13.6016 120.42C19.3002 118.969 25.0016 117.535 30.2266 114.74C35.4946 111.922 38.8585 107.787 40.4877 102.035C41.778 97.4771 42.3446 92.7021 44.9807 88.6896C46.8904 85.7827 49.8474 83.8535 49.8474 83.8535L74.2543 86.9396C71.7113 89.6702 69.5238 92.7827 67.6363 95.9924C65.9071 98.9327 64.3599 101.691 63.4724 105.015C62.5682 108.401 62.0196 111.935 60.3863 115.077C58.7488 118.226 56.0988 120.76 53.1488 122.733C47.4252 126.559 40.7043 128.899 34.0766 130.587C34.0766 130.585 13.6016 120.42 13.6016 120.42Z" fill="#B0CAFF"/>
<path d="M34.0761 130.897C34.0289 130.897 33.9803 130.886 33.9373 130.865L13.6928 120.814C13.3831 120.66 13.2414 120.59 13.297 120.349C13.3234 120.235 13.4109 120.146 13.5248 120.117L13.7178 120.068C19.2386 118.662 24.9484 117.21 30.0803 114.464C35.2859 111.679 38.5928 107.586 40.1873 101.95C40.5164 100.787 40.8039 99.5903 41.0803 98.4305C41.8914 95.0458 42.7289 91.5458 44.7192 88.5166C46.6428 85.5889 49.5539 83.6694 49.6761 83.5903C49.7386 83.55 49.8122 83.5319 49.8859 83.5416L74.2928 86.6278C74.4095 86.643 74.5081 86.7208 74.547 86.8319C74.5872 86.9416 74.5623 87.0653 74.4817 87.1514C72.165 89.6389 69.9525 92.6666 67.9053 96.15C66.1581 99.1236 64.6414 101.849 63.7734 105.094C63.5484 105.935 63.3428 106.801 63.1428 107.639C62.5345 110.19 61.9067 112.828 60.6622 115.221C59.147 118.133 56.6775 120.749 53.3206 122.992C48.3484 126.315 42.2581 128.825 34.1511 130.889C34.1275 130.894 34.1011 130.897 34.0761 130.897ZM14.4956 120.515C18.0178 122.264 32.7317 129.568 34.1109 130.254C42.09 128.214 48.0859 125.74 52.9748 122.472C56.2428 120.287 58.6428 117.751 60.1081 114.932C61.3164 112.608 61.9359 110.008 62.5359 107.494C62.7359 106.653 62.9442 105.782 63.1706 104.933C64.0581 101.611 65.5956 98.8472 67.3678 95.8333C69.3178 92.5166 71.4178 89.6055 73.6164 87.1736L49.9261 84.1791C49.4136 84.5319 46.9053 86.3319 45.2428 88.8625C43.3123 91.8014 42.4873 95.2472 41.6886 98.5791C41.4095 99.7444 41.1206 100.949 40.7886 102.122C39.1442 107.929 35.7386 112.147 30.3748 115.017C25.3692 117.692 19.8567 119.147 14.4956 120.515Z" fill="#B0CAFF"/>
<path d="M87.8131 64.7363L81.427 69.2752L70.5742 68.153L76.9603 63.6113L87.8131 64.7363Z" fill="#3377FF"/>
<path d="M81.4263 69.5876C81.4152 69.5876 81.4054 69.5876 81.3943 69.5863L70.5416 68.4626C70.4124 68.4488 70.3041 68.3571 70.2721 68.2307C70.2388 68.1043 70.2874 67.9724 70.3929 67.896L76.7791 63.3543C76.8416 63.3099 76.9166 63.2904 76.9929 63.2988L87.8457 64.4238C87.9749 64.4376 88.0832 64.5293 88.1152 64.6557C88.1471 64.7821 88.0999 64.914 87.9943 64.9904L81.6082 69.5293C81.5541 69.5682 81.4902 69.5876 81.4263 69.5876ZM71.4291 67.9265L81.3402 68.9529L86.9554 64.9613L77.0443 63.9335L71.4291 67.9265Z" fill="#B0CAFF"/>
<path d="M94.1992 60.1984V60.1953H94.2008" fill="#0055FF"/>
<path d="M94.1992 60.5098C94.027 60.5098 93.8867 60.3709 93.8867 60.1987V60.1973C93.8867 60.025 94.027 59.8848 94.1992 59.8848C94.3714 59.8848 94.5131 60.025 94.5131 60.1973C94.5131 60.3237 94.4381 60.432 94.3312 60.482C94.2895 60.5 94.2451 60.5098 94.1992 60.5098Z" fill="#B0CAFF"/>
<path d="M83.3442 59.0731L76.9595 63.612L67.3789 62.6217L73.7622 58.0801L83.3442 59.0731Z" fill="#0055FF"/>
<path d="M76.9587 63.9236C76.9476 63.9236 76.9379 63.9236 76.9268 63.9222L67.3462 62.932C67.2171 62.9181 67.1087 62.8264 67.0768 62.7014C67.0435 62.575 67.0921 62.4431 67.1976 62.3667L73.581 57.825C73.6435 57.7806 73.7185 57.7611 73.7949 57.7695L83.3768 58.7625C83.506 58.7764 83.6143 58.8681 83.6462 58.9945C83.6782 59.1209 83.631 59.2528 83.5254 59.3292L77.1407 63.8681C77.0865 63.9028 77.024 63.9236 76.9587 63.9236ZM68.2351 62.3945L76.874 63.2875L82.4879 59.2972L73.8476 58.4028L68.2351 62.3945Z" fill="#B0CAFF"/>
<path d="M94.1971 60.1973L87.8137 64.7362L76.9609 63.6112L83.3457 59.0723H83.3484L94.1971 60.1973Z" fill="#3377FF"/>
<path d="M87.813 65.0492C87.8019 65.0492 87.7922 65.0492 87.7811 65.0478L76.9283 63.9228C76.7991 63.9089 76.6908 63.8172 76.6588 63.6908C76.6255 63.5644 76.6741 63.4325 76.7797 63.3561L83.1644 58.8172C83.2255 58.7728 83.3047 58.7533 83.3797 58.7616L94.2297 59.8867C94.3588 59.9005 94.4672 59.9922 94.4991 60.1186C94.5324 60.245 94.4838 60.3769 94.3783 60.4533L87.9949 64.9922C87.9408 65.0297 87.8783 65.0492 87.813 65.0492ZM77.8172 63.3867L87.7283 64.4144L93.3408 60.4228L83.4311 59.395L77.8172 63.3867Z" fill="#B0CAFF"/>
<path d="M98.3986 65.8322L92.3486 70.4072L81.4277 69.2752L87.8138 64.7363L98.3986 65.8322Z" fill="#0055FF"/>
<path d="M92.3479 70.7202C92.3367 70.7202 92.327 70.7202 92.3159 70.7188L81.3951 69.5868C81.2659 69.5729 81.1576 69.4813 81.1256 69.3549C81.0923 69.2285 81.1409 69.0965 81.2465 69.0202L87.6326 64.4813C87.6951 64.4368 87.7701 64.4174 87.8465 64.4257L98.4312 65.5215C98.559 65.5354 98.6659 65.6243 98.7006 65.7479C98.7354 65.8715 98.6909 66.0035 98.5881 66.0813L92.5381 70.6563C92.4812 70.6979 92.4159 70.7202 92.3479 70.7202ZM82.284 69.0507L92.2576 70.084L97.577 66.0618L87.8992 65.059L82.284 69.0507Z" fill="#B0CAFF"/>
<path d="M81.4264 69.2765L75.0389 73.8182L64.1875 72.6946L70.5736 68.1543L81.4264 69.2765Z" fill="#3377FF"/>
<path d="M75.0382 74.1306C75.0271 74.1306 75.0173 74.1306 75.0062 74.1292L64.1548 73.0056C64.0257 72.9917 63.9173 72.9001 63.8854 72.7737C63.8521 72.6473 63.9007 72.5153 64.0062 72.4389L70.3909 67.8973C70.4534 67.8528 70.5284 67.8334 70.6048 67.8417L81.4576 68.9653C81.5868 68.9792 81.6951 69.0709 81.7271 69.1973C81.7604 69.3237 81.7118 69.4556 81.6062 69.532L75.2201 74.0737C75.1673 74.1098 75.1034 74.1306 75.0382 74.1306ZM65.0437 72.4695L74.9534 73.4959L80.5687 69.5028L70.6576 68.4764L65.0437 72.4695Z" fill="#B0CAFF"/>
<path d="M106.535 40.4623C106.524 40.4623 106.511 40.4623 106.5 40.4609L89.9444 39.4317C89.6388 39.4123 89.4055 39.1484 89.425 38.8428C89.4444 38.5373 89.7069 38.304 90.0138 38.3234L106.571 39.354C106.876 39.3734 107.11 39.6373 107.09 39.9428C107.071 40.2359 106.826 40.4623 106.535 40.4623Z" fill="#0055FF"/>
<path d="M104.847 44.5887C104.836 44.5887 104.823 44.5887 104.812 44.5873L88.255 43.5567C87.9494 43.5373 87.7161 43.2734 87.7355 42.9678C87.755 42.6623 88.0175 42.429 88.3244 42.4484L104.881 43.479C105.187 43.4984 105.42 43.7623 105.401 44.0678C105.383 44.3609 105.138 44.5887 104.847 44.5887Z" fill="#0055FF"/>
<path d="M65.1341 94.1528C65.1049 94.1528 65.0744 94.15 65.0438 94.1458L46.8272 91.1639C46.5244 91.1139 46.3188 90.8292 46.3688 90.5264C46.4188 90.2236 46.7035 90.018 47.0063 90.068L65.223 93.05C65.5258 93.1 65.7313 93.3847 65.6813 93.6875C65.6369 93.9583 65.4022 94.1528 65.1341 94.1528Z" fill="#0055FF"/>
<path d="M63.5935 97.3687C63.5643 97.3687 63.5365 97.3659 63.5073 97.3617L45.4129 94.534C45.1101 94.4867 44.9018 94.202 44.9504 93.8992C44.999 93.5965 45.2823 93.3881 45.5851 93.4367L63.6796 96.2645C63.9823 96.3117 64.1907 96.5965 64.1421 96.8992C64.099 97.1728 63.8615 97.3687 63.5935 97.3687Z" fill="#0055FF"/>
<path d="M61.8143 100.934C61.7852 100.934 61.756 100.931 61.7254 100.927L44.4115 98.159C44.1088 98.1104 43.9018 97.8256 43.9504 97.5229C43.999 97.2201 44.2838 97.0132 44.5865 97.0618L61.9004 99.8298C62.2032 99.8784 62.4102 100.163 62.3615 100.466C62.3185 100.74 62.0824 100.934 61.8143 100.934Z" fill="#0055FF"/>
<path d="M60.5991 104.499C60.57 104.499 60.5408 104.496 60.5102 104.492L43.4936 101.772C43.1908 101.724 42.9839 101.439 43.0325 101.136C43.0811 100.833 43.3658 100.626 43.6686 100.675L60.6852 103.394C60.988 103.443 61.195 103.728 61.1464 104.031C61.1033 104.303 60.8672 104.499 60.5991 104.499Z" fill="#0055FF"/>
<path d="M103.159 48.7156C103.148 48.7156 103.136 48.7156 103.124 48.7142L86.5675 47.6837C86.2619 47.6642 86.0286 47.4003 86.048 47.0948C86.0675 46.7892 86.33 46.5559 86.6369 46.5754L103.194 47.6059C103.499 47.6254 103.733 47.8892 103.713 48.1948C103.695 48.4892 103.451 48.7156 103.159 48.7156Z" fill="#0055FF"/>
<path d="M101.472 52.8426C101.461 52.8426 101.448 52.8426 101.437 52.8412L84.88 51.8106C84.5744 51.7912 84.3411 51.5273 84.3605 51.2218C84.38 50.9162 84.6425 50.6829 84.9494 50.7023L101.506 51.7329C101.812 51.7523 102.045 52.0162 102.026 52.3217C102.008 52.6162 101.762 52.8426 101.472 52.8426Z" fill="#0055FF"/>
<path d="M132.048 46.8145L132.357 48.7492C132.544 49.9089 133.339 50.8172 134.485 51.1756L136.398 51.7714L134.295 52.3672C133.037 52.7256 131.951 53.6325 131.394 54.7936L130.467 56.7283L130.156 54.7936C129.97 53.6339 129.174 52.7256 128.028 52.3672L126.117 51.7714L128.219 51.1756C129.477 50.8172 130.563 49.9103 131.12 48.7492L132.048 46.8145Z" fill="url(#paint4_linear_2298_75293)"/>
<path d="M71.3851 39.2109L71.6226 40.6943C71.7657 41.5832 72.3754 42.2804 73.2546 42.554L74.7212 43.0109L73.1087 43.4693C72.1434 43.7429 71.3115 44.4387 70.8837 45.3276L70.1726 46.8123L69.9351 45.3276C69.7921 44.4387 69.1809 43.7429 68.3032 43.4693L66.8379 43.0109L68.449 42.554C69.4143 42.2804 70.2462 41.5832 70.674 40.6943L71.3851 39.2109Z" fill="url(#paint5_linear_2298_75293)"/>
<path d="M111.444 87.3086L111.576 88.1364C111.657 88.6308 111.997 89.0197 112.486 89.1725L113.302 89.428L112.405 89.6836C111.866 89.8364 111.402 90.2253 111.165 90.7197L110.769 91.5475L110.637 90.7197C110.557 90.2253 110.218 89.8364 109.729 89.6836L108.912 89.428L109.811 89.1725C110.35 89.0197 110.812 88.6308 111.05 88.1364L111.444 87.3086Z" fill="url(#paint6_linear_2298_75293)"/>
<path d="M36.7741 89.4258L36.9061 90.2522C36.9852 90.748 37.3255 91.1355 37.8158 91.2883L38.6325 91.5438L37.7352 91.7994C37.1964 91.9522 36.7325 92.3411 36.495 92.8369L36.0991 93.6633L35.9672 92.8369C35.8894 92.3411 35.5477 91.9536 35.0589 91.7994L34.2422 91.5438L35.1394 91.2883C35.6783 91.1369 36.1422 90.748 36.3783 90.2522L36.7741 89.4258Z" fill="url(#paint7_linear_2298_75293)"/>
<defs>
<linearGradient id="paint0_linear_2298_75293" x1="37.5419" y1="57.782" x2="116.062" y2="58.7729" gradientUnits="userSpaceOnUse">
<stop stop-color="#004DE8"/>
<stop offset="1" stop-color="#0055FF"/>
</linearGradient>
<linearGradient id="paint1_linear_2298_75293" x1="69.2348" y1="34.6539" x2="121.185" y2="35.0795" gradientUnits="userSpaceOnUse">
<stop stop-color="#004DE8"/>
<stop offset="1" stop-color="#0055FF"/>
</linearGradient>
<linearGradient id="paint2_linear_2298_75293" x1="44.5387" y1="83.0972" x2="78.8588" y2="84.0174" gradientUnits="userSpaceOnUse">
<stop stop-color="#004DE8"/>
<stop offset="1" stop-color="#0055FF"/>
</linearGradient>
<linearGradient id="paint3_linear_2298_75293" x1="44.1762" y1="82.805" x2="79.2209" y2="83.6545" gradientUnits="userSpaceOnUse">
<stop stop-color="#004DE8"/>
<stop offset="1" stop-color="#0055FF"/>
</linearGradient>
<linearGradient id="paint4_linear_2298_75293" x1="125.296" y1="47.6724" x2="137.147" y2="47.733" gradientUnits="userSpaceOnUse">
<stop stop-color="#004DE8"/>
<stop offset="1" stop-color="#0055FF"/>
</linearGradient>
<linearGradient id="paint5_linear_2298_75293" x1="66.2083" y1="39.8688" x2="75.2958" y2="39.9152" gradientUnits="userSpaceOnUse">
<stop stop-color="#004DE8"/>
<stop offset="1" stop-color="#0055FF"/>
</linearGradient>
<linearGradient id="paint6_linear_2298_75293" x1="108.561" y1="87.6754" x2="113.622" y2="87.7013" gradientUnits="userSpaceOnUse">
<stop stop-color="#004DE8"/>
<stop offset="1" stop-color="#0055FF"/>
</linearGradient>
<linearGradient id="paint7_linear_2298_75293" x1="33.8916" y1="89.7925" x2="38.9525" y2="89.8183" gradientUnits="userSpaceOnUse">
<stop stop-color="#004DE8"/>
<stop offset="1" stop-color="#0055FF"/>
</linearGradient>
</defs>
</svg>
