<svg width="184" height="183" viewBox="0 0 184 183" fill="none" xmlns="http://www.w3.org/2000/svg">
<g opacity="0.6">
<path d="M92.0006 156.405C126.55 156.405 154.558 145.418 154.558 131.865C154.558 118.311 126.55 107.324 92.0006 107.324C57.4512 107.324 29.4434 118.311 29.4434 131.865C29.4434 145.418 57.4512 156.405 92.0006 156.405Z" fill="#E6E6E7"/>
<path d="M97.0494 55.8672L94.9482 69.0398H81.291L96.9697 55.8672H97.0494Z" fill="#E6E6E7"/>
<path d="M94.9478 69.4214H81.2905C81.1296 69.4214 80.9872 69.3215 80.933 69.1707C80.8788 69.0199 80.9228 68.8521 81.0465 68.7488L96.7252 55.5761C96.7947 55.5185 96.8811 55.4863 96.9709 55.4863H97.0506C97.1624 55.4863 97.2674 55.5355 97.3403 55.6202C97.4132 55.7049 97.4437 55.8167 97.4267 55.9269L95.3256 69.0995C95.2951 69.2859 95.1358 69.4214 94.9478 69.4214ZM82.3377 68.6589H94.6224L96.5236 56.7402L82.3377 68.6589Z" fill="#E6E6E7"/>
<path d="M139.548 60.3652L138.69 65.7366L129.332 124.414L133.446 125.222L142.176 70.4895L143.033 65.1165L139.548 60.3652Z" fill="#E6E6E7"/>
<path d="M133.446 125.604C133.423 125.604 133.397 125.602 133.373 125.597L129.259 124.789C129.058 124.75 128.924 124.557 128.956 124.355L139.172 60.305C139.195 60.1525 139.309 60.0305 139.458 59.9949C139.607 59.9593 139.765 60.0153 139.855 60.1406L143.34 64.8919C143.401 64.9732 143.425 65.0766 143.41 65.1765L133.824 125.282C133.807 125.384 133.751 125.475 133.667 125.534C133.6 125.58 133.524 125.604 133.446 125.604ZM129.768 124.111L133.133 124.772L142.632 65.2138L139.78 61.3268L129.768 124.111Z" fill="#E6E6E7"/>
<path d="M139.547 60.3672L138.69 65.7403L127.751 134.333L112.878 132.932L69.3516 129.956C69.3516 129.956 79.0251 79.5398 79.1031 78.8027L79.9418 73.5398H93.5991L95.7002 60.3672H139.547Z" fill="#E6E6E7"/>
<path d="M127.751 134.713C127.739 134.713 127.727 134.713 127.715 134.711L112.843 133.31L69.3264 130.334C69.2179 130.327 69.1163 130.273 69.0502 130.187C68.9841 130.1 68.957 129.99 68.9773 129.882C72.3103 112.515 78.634 79.4821 78.7238 78.7586C78.7238 78.7535 78.7255 78.745 78.7255 78.7399L79.5642 73.477C79.593 73.2923 79.754 73.155 79.9404 73.155H93.2723L95.3208 60.3044C95.3497 60.1197 95.5106 59.9824 95.697 59.9824H139.544C139.656 59.9824 139.761 60.0316 139.834 60.1163C139.907 60.201 139.937 60.3128 139.92 60.423L128.124 134.387C128.098 134.579 127.937 134.713 127.751 134.713ZM69.8076 129.604L112.906 132.55L127.431 133.92L139.1 60.7483H96.0257L93.9772 73.599C93.9484 73.7837 93.7874 73.9209 93.601 73.9209H80.2691L79.4812 78.8602C79.3016 80.1073 70.7989 124.434 69.8076 129.604Z" fill="#E6E6E7"/>
<path d="M91.229 51.6621L89.1279 64.833H75.4707L91.1494 51.6621H91.229Z" fill="#E6E6E7"/>
<path d="M89.1274 65.2144H75.4702C75.3092 65.2144 75.1669 65.1144 75.1127 64.9636C75.0585 64.8128 75.1025 64.6451 75.2262 64.5417L90.9049 51.3691C90.9744 51.3115 91.0608 51.2793 91.1506 51.2793H91.2302C91.3421 51.2793 91.4471 51.3284 91.52 51.4132C91.5929 51.4979 91.6234 51.6097 91.6064 51.7199L89.5053 64.8925C89.4748 65.0789 89.3155 65.2144 89.1274 65.2144ZM76.5174 64.4519H88.8021L90.7033 52.5332L76.5174 64.4519Z" fill="#E6E6E7"/>
<path d="M134.401 53.9102L133.544 59.2815L124.186 117.958L128.3 118.767L137.029 64.0345L137.887 58.6614L134.401 53.9102Z" fill="#E6E6E7"/>
<path d="M128.3 119.149C128.276 119.149 128.251 119.147 128.227 119.142L124.113 118.334C123.911 118.295 123.777 118.102 123.809 117.9L134.025 53.8499C134.049 53.6974 134.163 53.5754 134.312 53.5398C134.461 53.5043 134.618 53.5602 134.708 53.6856L138.194 58.4368C138.255 58.5181 138.278 58.6215 138.263 58.7231L128.678 118.828C128.661 118.93 128.605 119.022 128.52 119.081C128.454 119.125 128.378 119.149 128.3 119.149ZM124.621 117.656L127.986 118.317L137.485 58.7587L134.634 54.8717L124.621 117.656Z" fill="#E6E6E7"/>
<path d="M134.401 53.9102L133.543 59.2832L122.604 127.876L107.732 126.475L64.2051 123.499C64.2051 123.499 73.8787 73.0828 73.9566 72.3457L74.7954 67.0828H88.4526L90.5537 53.9102H134.401Z" fill="#E6E6E7"/>
<path d="M122.604 128.255C122.592 128.255 122.581 128.255 122.569 128.254L107.697 126.852L64.1799 123.877C64.0715 123.87 63.9698 123.816 63.9037 123.73C63.8376 123.643 63.8105 123.533 63.8308 123.425C67.1638 106.058 73.4875 73.0251 73.5773 72.3015C73.5773 72.2964 73.579 72.288 73.579 72.2829L74.4177 67.0199C74.4465 66.8353 74.6075 66.698 74.7939 66.698H88.1258L90.1761 53.8473C90.2049 53.6626 90.3658 53.5254 90.5522 53.5254H134.399C134.511 53.5254 134.616 53.5745 134.689 53.6592C134.762 53.744 134.792 53.8558 134.776 53.9659L122.979 127.93C122.952 128.122 122.791 128.255 122.604 128.255ZM64.6611 123.147L107.759 126.093L122.284 127.462L133.954 54.2913H90.8793L88.829 67.1419C88.8002 67.3266 88.6392 67.4639 88.4528 67.4639H75.1209L74.333 72.4032C74.1551 73.6503 65.6524 117.977 64.6611 123.147Z" fill="#E6E6E7"/>
<path d="M85.4068 47.4551L83.3057 60.626H69.6484L85.3271 47.4551H85.4068Z" fill="#E6E6E7"/>
<path d="M83.3052 61.0074H69.6479C69.487 61.0074 69.3446 60.9074 69.2904 60.7566C69.2362 60.6058 69.2803 60.438 69.404 60.3347L85.0826 47.1621C85.1521 47.1045 85.2385 47.0723 85.3283 47.0723H85.408C85.5198 47.0723 85.6249 47.1214 85.6977 47.2061C85.7706 47.2909 85.8011 47.4027 85.7841 47.5128L83.683 60.6854C83.6525 60.8718 83.4933 61.0074 83.3052 61.0074ZM70.6951 60.2449H82.9798L84.881 48.3262L70.6951 60.2449Z" fill="#E6E6E7"/>
<path d="M129.253 47.4551L128.396 52.8265L119.037 111.503L123.153 112.312L131.881 57.5794L132.738 52.2063L129.253 47.4551Z" fill="#E6E6E7"/>
<path d="M123.153 112.694C123.13 112.694 123.104 112.692 123.08 112.687L118.966 111.879C118.765 111.84 118.631 111.646 118.663 111.445L128.879 47.3949C128.903 47.2424 129.016 47.1203 129.165 47.0848C129.314 47.0492 129.472 47.1051 129.562 47.2305L133.047 51.9817C133.108 52.063 133.132 52.1664 133.117 52.2681L123.531 112.373C123.514 112.475 123.458 112.567 123.374 112.626C123.306 112.67 123.23 112.694 123.153 112.694ZM119.473 111.201L122.838 111.862L132.337 52.3037L129.485 48.4166L119.473 111.201Z" fill="#E6E6E7"/>
<path d="M129.252 47.4551L128.395 52.8282L117.456 121.421L102.584 120.02L59.0566 117.044C59.0566 117.044 68.7302 66.6277 68.8082 65.8906L69.6469 60.6277H83.3041L85.4053 47.4551H129.252Z" fill="#E6E6E7"/>
<path d="M117.456 121.8C117.444 121.8 117.432 121.8 117.42 121.799L102.548 120.397L59.0315 117.422C58.923 117.415 58.8213 117.361 58.7553 117.275C58.6892 117.188 58.6621 117.078 58.6824 116.97C62.0137 99.6032 68.339 66.57 68.4289 65.8464C68.4289 65.8414 68.4305 65.8329 68.4305 65.8278L69.2693 60.5649C69.2981 60.3802 69.4591 60.2429 69.6455 60.2429H82.9774L85.0276 47.3923C85.0564 47.2076 85.2174 47.0703 85.4038 47.0703H129.251C129.363 47.0703 129.468 47.1194 129.541 47.2042C129.614 47.2889 129.644 47.4007 129.627 47.5109L117.83 121.475C117.803 121.667 117.642 121.8 117.456 121.8ZM59.5127 116.692L102.611 119.638L117.136 121.007L128.805 47.8362H85.7308L83.6805 60.6869C83.6517 60.8716 83.4908 61.0088 83.3044 61.0088H69.9725L69.1846 65.9481C69.0067 67.2003 60.5056 111.522 59.5127 116.692Z" fill="#E6E6E7"/>
<path d="M73.8984 66.0938L77.3839 70.845C77.8973 71.5448 78.1295 72.4547 77.9702 73.451C77.8109 74.4474 78.043 75.359 78.5565 76.0588L75.071 71.3076C74.5576 70.6077 74.3254 69.6961 74.4847 68.6998C74.644 67.7035 74.4119 66.7936 73.8984 66.0938Z" fill="#E6E6E7"/>
<path d="M78.5573 76.4392C78.4404 76.4392 78.3235 76.385 78.249 76.2833L74.7635 71.5321C74.1721 70.7255 73.9383 69.697 74.1077 68.638C74.2433 67.784 74.0603 66.9605 73.5909 66.32L73.5892 66.3183C73.4655 66.1489 73.5011 65.9099 73.6706 65.7845C73.84 65.6608 74.0789 65.6964 74.2043 65.8659C74.2043 65.8676 74.206 65.8676 74.206 65.8676L77.6898 70.6171C78.2812 71.4237 78.5133 72.4505 78.3455 73.5078C78.21 74.3635 78.393 75.187 78.8607 75.8275L78.8623 75.8309C78.986 76.0004 78.9505 76.2393 78.781 76.3647C78.7149 76.4155 78.6353 76.4392 78.5573 76.4392ZM74.9143 68.1229C74.9126 68.333 74.8957 68.5448 74.8618 68.7583C74.7245 69.614 74.9092 70.4392 75.3803 71.0814L77.5407 74.028C77.5424 73.8179 77.5593 73.6044 77.5949 73.3909C77.7322 72.5352 77.5475 71.7117 77.0781 71.0712L74.9143 68.1229Z" fill="#E6E6E7"/>
<mask id="mask0_2626_78519" style="mask-type:luminance" maskUnits="userSpaceOnUse" x="73" y="66" width="6" height="11">
<mask id="mask1_2626_78519" style="mask-type:luminance" maskUnits="userSpaceOnUse" x="73" y="66" width="6" height="11">
<path d="M73.8984 66.0938L77.3839 70.845C77.8973 71.5448 78.1295 72.4547 77.9702 73.451C77.8109 74.4474 78.043 75.359 78.5565 76.0588L75.071 71.3076C74.5576 70.6077 74.3254 69.6961 74.4847 68.6998C74.644 67.7035 74.4119 66.7936 73.8984 66.0938Z" fill="white"/>
</mask>
<g mask="url(#mask1_2626_78519)">
<path d="M78.5573 76.4392C78.4404 76.4392 78.3235 76.385 78.249 76.2833L74.7635 71.5321C74.1721 70.7255 73.9383 69.697 74.1077 68.638C74.2433 67.784 74.0603 66.9605 73.5909 66.32L73.5892 66.3183C73.4655 66.1489 73.5011 65.9099 73.6706 65.7845C73.84 65.6608 74.0789 65.6964 74.2043 65.8659C74.2043 65.8676 74.206 65.8676 74.206 65.8676L77.6898 70.6171C78.2812 71.4237 78.5133 72.4505 78.3455 73.5078C78.21 74.3635 78.393 75.187 78.8607 75.8275L78.8623 75.8309C78.986 76.0004 78.9505 76.2393 78.781 76.3647C78.7149 76.4155 78.6353 76.4392 78.5573 76.4392ZM74.9143 68.1229C74.9126 68.333 74.8957 68.5448 74.8618 68.7583C74.7245 69.614 74.9092 70.4392 75.3803 71.0814L77.5407 74.028C77.5424 73.8179 77.5593 73.6044 77.5949 73.3909C77.7322 72.5352 77.5475 71.7117 77.0781 71.0712L74.9143 68.1229Z" fill="white"/>
</g>
</mask>
<g mask="url(#mask0_2626_78519)">
<path d="M73.8984 66.0938L77.3839 70.845C77.411 70.8823 77.4381 70.9212 77.4652 70.9602L73.9798 66.209C73.9544 66.17 73.9272 66.131 73.8984 66.0938Z" fill="#E6E6E7"/>
<path d="M77.4644 71.3416C77.3475 71.3416 77.2306 71.2874 77.156 71.1857L73.6706 66.4345C73.6384 66.3871 73.6146 66.3532 73.5892 66.3193C73.4655 66.1498 73.5011 65.9109 73.6706 65.7872C73.84 65.6618 74.0789 65.6991 74.2043 65.8686L77.6898 70.6198C77.7203 70.6621 77.7508 70.7045 77.7796 70.7486C77.8948 70.9214 77.8508 71.1535 77.6813 71.2721C77.6169 71.3196 77.5407 71.3416 77.4644 71.3416Z" fill="#E6E6E7"/>
<path d="M73.9785 66.209L77.464 70.9602C77.5318 71.0619 77.5945 71.1686 77.6521 71.2788L74.1666 66.5275C74.109 66.4174 74.0463 66.3107 73.9785 66.209Z" fill="#E6E6E7"/>
<path d="M77.652 71.6596C77.5351 71.6596 77.4182 71.6054 77.3436 71.5037L73.8582 66.7525C73.8463 66.7356 73.8361 66.7186 73.826 66.7017C73.7768 66.6051 73.7209 66.5102 73.6599 66.4204C73.5447 66.2476 73.5888 66.0154 73.7582 65.8968C73.9276 65.7782 74.1615 65.8172 74.2835 65.9832L77.7689 70.7344C77.8554 70.8615 77.9248 70.9818 77.9875 71.1038C78.079 71.2801 78.018 71.4969 77.8486 71.602C77.7893 71.641 77.7198 71.6596 77.652 71.6596Z" fill="#E6E6E7"/>
<path d="M74.166 66.5273L77.6515 71.2786C77.7142 71.4006 77.7684 71.526 77.8158 71.6564L74.3304 66.9052C74.2829 66.7747 74.227 66.6493 74.166 66.5273Z" fill="#E6E6E7"/>
<path d="M77.8161 72.0375C77.6975 72.0375 77.5822 71.9833 77.5077 71.8817L74.0222 67.1304C74.0002 67.1016 73.9832 67.0694 73.9714 67.0355C73.9307 66.922 73.8816 66.8102 73.8257 66.7017C73.7342 66.5255 73.7952 66.3086 73.9646 66.2036C74.134 66.0985 74.3543 66.1426 74.4729 66.3019L77.9584 71.0531C77.9703 71.07 77.9804 71.087 77.9906 71.1039C78.0601 71.2395 78.1228 71.3818 78.1736 71.5258C78.238 71.7037 78.1617 71.902 77.994 71.9918C77.9381 72.024 77.8771 72.0375 77.8161 72.0375Z" fill="#E6E6E7"/>
<path d="M74.332 66.9062L77.8175 71.6575C77.8751 71.8168 77.9209 71.9811 77.9548 72.1506L74.4693 67.3993C74.4354 67.2299 74.3896 67.0655 74.332 66.9062Z" fill="#E6E6E7"/>
<path d="M77.9539 72.5334C77.8353 72.5334 77.7201 72.4775 77.6455 72.3775L74.16 67.6263C74.1278 67.5806 74.1041 67.5297 74.094 67.4738C74.0652 67.3247 74.0245 67.1773 73.972 67.0366C73.9076 66.8587 73.9838 66.6605 74.1516 66.5707C74.3193 66.4809 74.526 66.5283 74.6379 66.6808L78.1233 71.432C78.1454 71.4608 78.1623 71.493 78.1742 71.5269C78.2386 71.7048 78.2894 71.8895 78.3267 72.0776C78.3606 72.2521 78.2691 72.4284 78.1064 72.4995C78.0573 72.5232 78.0047 72.5334 77.9539 72.5334Z" fill="#E6E6E7"/>
<path d="M74.4697 67.3984L77.9552 72.1497C78.0348 72.5563 78.045 72.9952 77.9721 73.4493C77.8993 73.9051 77.9077 74.3423 77.9891 74.7489L74.5036 69.9977C74.424 69.591 74.4138 69.1539 74.4867 68.6981C74.5578 68.244 74.5494 67.8068 74.4697 67.3984Z" fill="#E6E6E7"/>
<path d="M77.9872 75.1322C77.8686 75.1322 77.7534 75.0763 77.6788 74.9763L74.1934 70.2251C74.1595 70.1794 74.1374 70.1285 74.1273 70.0726C74.0375 69.6117 74.0307 69.1288 74.1086 68.6391C74.173 68.2375 74.1679 67.8461 74.0951 67.4733C74.0612 67.2988 74.1527 67.1226 74.3154 67.0514C74.478 66.9803 74.6695 67.0311 74.7762 67.1751L78.2617 71.9263C78.2939 71.9721 78.3176 72.0229 78.3278 72.0788C78.4193 72.5397 78.4261 73.0226 78.3464 73.5123C78.2821 73.9139 78.2871 74.3053 78.36 74.6781C78.3939 74.8527 78.3024 75.0289 78.1397 75.1C78.0906 75.1221 78.0398 75.1322 77.9872 75.1322ZM74.861 69.8439L77.5721 73.5412C77.5789 73.492 77.5856 73.4412 77.5941 73.3903C77.6534 73.0193 77.6534 72.6533 77.5941 72.3059L74.883 68.6086C74.8762 68.6578 74.8694 68.7086 74.861 68.7577C74.8034 69.1305 74.8034 69.4948 74.861 69.8439Z" fill="#E6E6E7"/>
<path d="M74.5 69.998L77.9855 74.7493C78.0194 74.9187 78.0651 75.0848 78.1227 75.244L74.6372 70.4928C74.5796 70.3335 74.5339 70.1692 74.5 69.998Z" fill="#E6E6E7"/>
<path d="M78.1233 75.6273C78.0047 75.6273 77.8895 75.5731 77.815 75.4714L74.3295 70.7202C74.3075 70.6914 74.2905 70.6592 74.2786 70.6236C74.2143 70.4457 74.1634 70.261 74.1262 70.0729C74.0923 69.8984 74.1838 69.7222 74.3464 69.651C74.5108 69.5799 74.7006 69.6307 74.8073 69.7747L78.2928 74.5259C78.3267 74.5717 78.3487 74.6225 78.3589 74.6784C78.3877 74.8276 78.4283 74.975 78.4809 75.1173C78.5453 75.2952 78.469 75.4935 78.3013 75.5833C78.2453 75.6121 78.1843 75.6273 78.1233 75.6273Z" fill="#E6E6E7"/>
<path d="M74.6387 70.4922L78.1242 75.2434C78.1716 75.3739 78.2258 75.501 78.2885 75.6213L74.803 70.8701C74.7403 70.7497 74.6861 70.6227 74.6387 70.4922Z" fill="#E6E6E7"/>
<path d="M78.2877 76.0044C78.1707 76.0044 78.0538 75.9502 77.9793 75.8485L74.4938 71.0973C74.4819 71.0803 74.4718 71.0634 74.4616 71.0464C74.3921 70.9109 74.3294 70.7685 74.2786 70.6245C74.2142 70.4466 74.2905 70.2484 74.4582 70.1585C74.626 70.0687 74.8327 70.1162 74.9445 70.2687L78.43 75.0199C78.452 75.0487 78.469 75.0809 78.4808 75.1165C78.5215 75.23 78.5706 75.3435 78.6265 75.4503C78.718 75.6265 78.657 75.8434 78.4876 75.9485C78.4266 75.9857 78.3571 76.0044 78.2877 76.0044Z" fill="#E6E6E7"/>
<path d="M74.8027 70.873L78.2882 75.6243C78.3441 75.7344 78.4068 75.8412 78.4763 75.9428L74.9908 71.1916C74.9213 71.0882 74.8603 70.9832 74.8027 70.873Z" fill="#E6E6E7"/>
<path d="M78.4768 76.3237C78.3599 76.3237 78.2429 76.2695 78.1684 76.1678L74.6829 71.4166C74.5965 71.2895 74.527 71.1692 74.4643 71.0455C74.3728 70.8693 74.4338 70.6524 74.6033 70.5473C74.7727 70.4423 74.993 70.4863 75.1116 70.6456L78.5971 75.3968C78.6089 75.4138 78.6191 75.4307 78.6293 75.4477C78.6784 75.5442 78.7343 75.6391 78.7953 75.7289C78.9105 75.9018 78.8665 76.1339 78.697 76.2525C78.6276 76.3017 78.5513 76.3237 78.4768 76.3237Z" fill="#E6E6E7"/>
<path d="M74.9902 71.1914L78.4757 75.9426C78.5028 75.9816 78.5299 76.0206 78.557 76.0595L75.0716 71.3083C75.0428 71.2693 75.0157 71.2304 74.9902 71.1914Z" fill="#E6E6E7"/>
<path d="M78.5575 76.4401C78.4406 76.4401 78.3254 76.3859 78.2508 76.2842V76.2825C78.2508 76.2809 78.2491 76.2809 78.2491 76.2792L74.767 71.5313C74.7365 71.489 74.706 71.4449 74.6755 71.4009C74.5603 71.228 74.6044 70.9959 74.7738 70.8773C74.9433 70.7587 75.1771 70.7976 75.2991 70.9637L78.7846 75.7149C78.8168 75.7624 78.8388 75.7945 78.8625 75.8267L78.8642 75.8301C78.9879 75.9996 78.9523 76.2385 78.7829 76.3622C78.7151 76.4164 78.6355 76.4401 78.5575 76.4401Z" fill="#E6E6E7"/>
</g>
<path d="M81.4748 77.8304C80.1446 77.8304 78.9687 77.2679 78.2485 76.2851L74.7631 71.5339C74.6394 71.3644 74.675 71.1255 74.8444 71.0001C75.0138 70.8747 75.2528 70.912 75.3781 71.0815L75.3798 71.0831C75.9543 71.866 76.9048 72.315 77.9893 72.315C78.1113 72.315 78.2248 72.3726 78.296 72.4709L81.7815 77.2221C81.8662 77.3373 81.8797 77.4915 81.8136 77.6203C81.7493 77.7491 81.6188 77.8304 81.4748 77.8304ZM76.7049 72.8911L78.8636 75.8344C79.2889 76.4139 79.9176 76.8104 80.6563 76.9781L77.7927 73.0741C77.4132 73.0572 77.0489 72.9962 76.7049 72.8911Z" fill="#E6E6E7"/>
<mask id="mask2_2626_78519" style="mask-type:luminance" maskUnits="userSpaceOnUse" x="74" y="70" width="8" height="8">
<path d="M81.4748 77.8304C80.1446 77.8304 78.9687 77.2679 78.2485 76.2851L74.7631 71.5339C74.6394 71.3644 74.675 71.1255 74.8444 71.0001C75.0138 70.8747 75.2528 70.912 75.3781 71.0815L75.3798 71.0831C75.9543 71.866 76.9048 72.315 77.9893 72.315C78.1113 72.315 78.2248 72.3726 78.296 72.4709L81.7815 77.2221C81.8662 77.3373 81.8797 77.4915 81.8136 77.6203C81.7493 77.7491 81.6188 77.8304 81.4748 77.8304ZM76.7049 72.8911L78.8636 75.8344C79.2889 76.4139 79.9176 76.8104 80.6563 76.9781L77.7927 73.0741C77.4132 73.0572 77.0489 72.9962 76.7049 72.8911Z" fill="white"/>
</mask>
<g mask="url(#mask2_2626_78519)">
<path d="M77.9901 72.6961L81.4756 77.4473C80.22 77.4473 79.1813 76.9085 78.5577 76.0579L75.0723 71.3066C75.6958 72.1589 76.7345 72.6961 77.9901 72.6961Z" fill="#E6E6E7"/>
<path d="M81.4748 77.8304C80.1446 77.8304 78.9687 77.2679 78.2485 76.2851L74.7631 71.5339C74.6394 71.3644 74.675 71.1255 74.8444 71.0001C75.0138 70.8747 75.2528 70.912 75.3781 71.0815L75.3798 71.0831C75.9543 71.866 76.9048 72.315 77.9893 72.315C78.1113 72.315 78.2248 72.3726 78.296 72.4709L81.7815 77.2221C81.8662 77.3373 81.8797 77.4915 81.8136 77.6203C81.7493 77.7491 81.6188 77.8304 81.4748 77.8304ZM76.7049 72.8911L78.8636 75.8344C79.2889 76.4139 79.9176 76.8104 80.6563 76.9781L77.7927 73.0741C77.4132 73.0572 77.0489 72.9962 76.7049 72.8911Z" fill="#E6E6E7"/>
</g>
<path d="M110.915 72.6953L114.4 77.4482H81.4738L77.9883 72.6953H110.915Z" fill="#E6E6E7"/>
<path d="M114.4 77.8301H81.4735C81.3515 77.8301 81.238 77.7725 81.1668 77.6742L77.6814 72.923C77.5966 72.8078 77.5831 72.6536 77.6492 72.5248C77.7136 72.396 77.8457 72.3164 77.9898 72.3164H110.916C111.038 72.3164 111.152 72.374 111.223 72.4723L114.708 77.2235C114.793 77.3387 114.807 77.4929 114.741 77.6217C114.674 77.7488 114.544 77.8301 114.4 77.8301ZM81.6667 77.0676H113.648L110.721 73.0789H78.7404L81.6667 77.0676Z" fill="#E6E6E7"/>
<path d="M117.321 79.2176C117.204 79.2176 117.087 79.1634 117.012 79.0617C116.438 78.2772 115.486 77.8282 114.401 77.8282C114.279 77.8282 114.166 77.7706 114.095 77.6723L110.609 72.9211C110.524 72.8058 110.511 72.6516 110.577 72.5229C110.641 72.3941 110.773 72.3145 110.917 72.3145C112.248 72.3145 113.424 72.877 114.144 73.8598L117.629 78.611C117.753 78.7805 117.717 79.0194 117.548 79.1448C117.477 79.1939 117.399 79.2176 117.321 79.2176ZM114.598 77.0708C114.977 77.086 115.342 77.1487 115.686 77.2538L113.527 74.3105C113.102 73.731 112.471 73.3345 111.734 73.1668L114.598 77.0708Z" fill="#E6E6E7"/>
<mask id="mask3_2626_78519" style="mask-type:luminance" maskUnits="userSpaceOnUse" x="110" y="72" width="8" height="8">
<path d="M117.321 79.2176C117.204 79.2176 117.087 79.1634 117.012 79.0617C116.438 78.2772 115.486 77.8282 114.401 77.8282C114.279 77.8282 114.166 77.7706 114.095 77.6723L110.609 72.9211C110.524 72.8058 110.511 72.6516 110.577 72.5229C110.641 72.3941 110.773 72.3145 110.917 72.3145C112.248 72.3145 113.424 72.877 114.144 73.8598L117.629 78.611C117.753 78.7805 117.717 79.0194 117.548 79.1448C117.477 79.1939 117.399 79.2176 117.321 79.2176ZM114.598 77.0708C114.977 77.086 115.342 77.1487 115.686 77.2538L113.527 74.3105C113.102 73.731 112.471 73.3345 111.734 73.1668L114.598 77.0708Z" fill="white"/>
</mask>
<g mask="url(#mask3_2626_78519)">
<path d="M113.834 74.0848L117.319 78.836C116.696 77.9854 115.657 77.4465 114.401 77.4465L110.916 72.6953C112.172 72.6953 113.21 73.2341 113.834 74.0848Z" fill="#E6E6E7"/>
<path d="M117.321 79.2176C117.204 79.2176 117.087 79.1634 117.012 79.0617C116.438 78.2772 115.486 77.8282 114.401 77.8282C114.279 77.8282 114.166 77.7706 114.095 77.6723L110.609 72.9211C110.524 72.8058 110.511 72.6516 110.577 72.5229C110.641 72.3941 110.773 72.3145 110.917 72.3145C112.248 72.3145 113.424 72.877 114.144 73.8598L117.629 78.611C117.753 78.7805 117.717 79.0194 117.548 79.1448C117.477 79.1939 117.399 79.2176 117.321 79.2176ZM114.598 77.0708C114.977 77.086 115.342 77.1487 115.686 77.2538L113.527 74.3105C113.102 73.731 112.471 73.3345 111.734 73.1668L114.598 77.0708Z" fill="#E6E6E7"/>
</g>
<path d="M95.8968 95.9316L94.043 107.561H59.5391L61.3945 95.9316H95.8968Z" fill="#E6E6E7"/>
<path d="M117.95 80.9722C117.953 80.8959 117.955 80.818 117.953 80.7417C117.951 80.696 117.948 80.6536 117.944 80.6079C117.941 80.5401 117.936 80.4723 117.927 80.4062C117.922 80.3605 117.914 80.3147 117.907 80.269C117.9 80.2266 117.897 80.1842 117.889 80.1436C117.883 80.1199 117.877 80.0961 117.872 80.0724C117.865 80.0402 117.856 80.008 117.85 79.9775C117.831 79.9047 117.811 79.8318 117.789 79.7623C117.78 79.7352 117.772 79.7098 117.763 79.6827C117.76 79.6725 117.756 79.6607 117.753 79.6505C117.744 79.6251 117.731 79.603 117.721 79.5776C117.687 79.4912 117.651 79.4065 117.611 79.3252C117.602 79.3082 117.597 79.2896 117.587 79.2726C117.575 79.2489 117.56 79.2269 117.546 79.2032C117.512 79.1422 117.477 79.0812 117.439 79.0218C117.426 78.9998 117.414 78.9761 117.399 78.9541C117.373 78.9151 117.346 78.8761 117.317 78.8372L113.832 74.0859C113.876 74.1452 113.915 74.2079 113.954 74.2706C113.991 74.3299 114.027 74.3892 114.061 74.4519C114.083 74.4926 114.105 74.5333 114.125 74.5739C114.166 74.6553 114.201 74.74 114.235 74.8264C114.249 74.862 114.264 74.8959 114.278 74.9315C114.286 74.9569 114.295 74.984 114.303 75.0111C114.325 75.0823 114.347 75.1534 114.364 75.2263C114.373 75.2585 114.379 75.289 114.386 75.3212C114.4 75.3856 114.412 75.4517 114.422 75.5177C114.428 75.5635 114.437 75.6092 114.442 75.655C114.45 75.7211 114.454 75.7889 114.459 75.8566C114.462 75.9007 114.466 75.9447 114.467 75.9905C114.469 76.0667 114.466 76.143 114.464 76.2209C114.462 76.2599 114.464 76.2972 114.461 76.3362C114.452 76.4531 114.44 76.57 114.422 76.6903L107.512 120.017L110.997 124.768L117.907 81.4415C117.926 81.3229 117.939 81.2043 117.946 81.0874C117.95 81.0484 117.948 81.0111 117.95 80.9722Z" fill="#E6E6E7"/>
<path d="M110.995 125.152C110.875 125.152 110.761 125.096 110.688 124.996L107.203 120.245C107.142 120.164 107.118 120.06 107.133 119.959L114.043 76.6319C114.06 76.5285 114.072 76.4235 114.079 76.3116C114.081 76.2947 114.081 76.2777 114.081 76.2608L114.082 76.2083C114.086 76.1388 114.087 76.0693 114.086 76.0015C114.086 75.9761 114.084 75.9524 114.082 75.927L114.079 75.8829C114.076 75.8219 114.072 75.7609 114.065 75.7016C114.062 75.6711 114.057 75.6406 114.052 75.6101L114.047 75.5779C114.038 75.5203 114.028 75.461 114.015 75.4034C114.008 75.3763 114.001 75.3475 113.994 75.3204C113.977 75.2543 113.96 75.1916 113.94 75.1289L113.918 75.0577C113.913 75.0442 113.906 75.0289 113.901 75.0137L113.881 74.9645C113.848 74.8798 113.816 74.807 113.784 74.7409C113.765 74.7036 113.747 74.668 113.728 74.6324C113.699 74.5782 113.667 74.5257 113.635 74.4732L113.616 74.4443C113.588 74.3986 113.559 74.3528 113.528 74.3105C113.405 74.141 113.44 73.9021 113.61 73.7767C113.779 73.653 114.018 73.6886 114.143 73.8581L117.629 78.6093C117.661 78.6517 117.69 78.6957 117.72 78.7398C117.734 78.7601 117.746 78.7821 117.758 78.8025C117.807 78.8804 117.846 78.9482 117.883 79.0176C117.905 79.0532 117.917 79.0736 117.929 79.0973C117.937 79.1142 117.946 79.1346 117.954 79.1549C117.995 79.2396 118.035 79.3328 118.076 79.4362C118.091 79.4701 118.103 79.4938 118.112 79.5175C118.117 79.5311 118.12 79.5429 118.124 79.5548C118.13 79.5768 118.137 79.5971 118.144 79.6192L118.151 79.6429C118.176 79.7208 118.2 79.8022 118.22 79.8835C118.229 79.9191 118.237 79.953 118.246 79.9903L118.251 80.0106C118.256 80.0292 118.261 80.0496 118.264 80.0682C118.271 80.1021 118.276 80.136 118.279 80.1682L118.29 80.236C118.296 80.2766 118.303 80.3173 118.308 80.3596C118.317 80.4342 118.322 80.5088 118.327 80.585L118.33 80.6257C118.334 80.6613 118.335 80.6968 118.335 80.7324C118.337 80.8172 118.335 80.9019 118.332 80.9849V81.0205C118.332 81.051 118.33 81.0815 118.329 81.1137C118.32 81.2458 118.305 81.3763 118.285 81.5L111.375 124.827C111.351 124.979 111.237 125.101 111.088 125.137C111.056 125.147 111.026 125.152 110.995 125.152ZM107.911 119.922L110.763 123.809L117.529 81.3831C117.546 81.2814 117.558 81.173 117.564 81.0628C117.566 81.0442 117.566 81.029 117.566 81.012L117.568 80.9595C117.568 80.9595 117.568 80.9595 117.568 80.9578C117.571 80.8883 117.573 80.8188 117.571 80.7511C117.571 80.7273 117.569 80.7036 117.568 80.6799L117.564 80.6308C117.561 80.5698 117.558 80.5088 117.551 80.4495C117.547 80.419 117.542 80.3885 117.537 80.358L117.524 80.2715C117.522 80.2529 117.519 80.2343 117.515 80.2156L117.5 80.1529C117.493 80.1258 117.486 80.097 117.48 80.0699C117.463 80.0038 117.446 79.9411 117.425 79.8784L117.403 79.809C117.402 79.8039 117.395 79.7835 117.393 79.7785C117.381 79.7547 117.373 79.7361 117.366 79.7158C117.334 79.631 117.302 79.5582 117.27 79.4921C117.261 79.4751 117.254 79.4582 117.248 79.443C117.232 79.4175 117.222 79.4023 117.214 79.3853C117.185 79.3311 117.153 79.2786 117.12 79.2261C117.11 79.2091 117.1 79.1939 117.092 79.1769C117.063 79.1312 117.039 79.0973 117.014 79.0634L114.85 76.1134C114.848 76.154 114.848 76.1947 114.847 76.2354V76.2726C114.847 76.3031 114.845 76.3337 114.843 76.3642C114.835 76.4997 114.819 76.6268 114.799 76.7522L107.911 119.922Z" fill="#E6E6E7"/>
<path d="M137.259 101.744L132.626 130.794H105.791L107.511 120.017L110.424 101.744H125.519H128.935H132.348H137.259Z" fill="#B2B3B5"/>
<path d="M132.626 131.175H105.791C105.679 131.175 105.574 131.126 105.501 131.041C105.428 130.957 105.398 130.845 105.415 130.735L110.047 101.685C110.076 101.501 110.237 101.363 110.424 101.363H137.258C137.37 101.363 137.475 101.412 137.548 101.497C137.621 101.582 137.652 101.694 137.635 101.804L133.002 130.853C132.973 131.04 132.814 131.175 132.626 131.175ZM106.238 130.413H132.3L136.811 102.126H110.749L106.238 130.413Z" fill="#E6E6E7"/>
<path d="M110.915 72.6939C113.202 72.6939 114.772 74.4815 114.421 76.6894L107.511 120.016L105.793 130.793H44.5233C42.2358 130.793 40.665 129.005 41.0158 126.797L49.6439 72.6939L50.281 68.6967C50.6334 66.4905 52.7735 64.7012 55.0627 64.7012H70.9752C72.1275 64.7012 73.0984 65.1536 73.7321 65.8856C74.3574 66.6074 74.6573 67.6004 74.4827 68.695C74.1303 70.9028 75.6994 72.6922 77.9869 72.6922H110.915V72.6939ZM94.0434 107.559L95.8971 95.9298H61.3949L59.5394 107.559H94.0434Z" fill="#B2B3B5"/>
<path d="M105.791 131.175H44.5237C43.2851 131.175 42.1973 130.699 41.4602 129.836C40.7468 128.999 40.4554 127.9 40.6401 126.739L49.907 68.638C50.2865 66.2573 52.6012 64.3223 55.0649 64.3223H70.9774C72.2059 64.3223 73.2869 64.7899 74.0223 65.6389C74.7492 66.4776 75.0475 67.5858 74.8611 68.7583C74.712 69.697 74.9407 70.5798 75.5084 71.2441C76.0963 71.9337 76.9774 72.3133 77.989 72.3133H110.915C112.154 72.3133 113.242 72.7877 113.977 73.6502C114.691 74.4872 114.982 75.5869 114.797 76.7493L106.169 130.853C106.139 131.039 105.98 131.175 105.791 131.175ZM55.0649 65.0848C52.9587 65.0848 50.983 66.7335 50.6593 68.7583L41.3924 126.859C41.2433 127.796 41.472 128.677 42.0397 129.341C42.6293 130.033 43.5105 130.412 44.5237 130.412H105.466L114.043 76.6307C114.193 75.6937 113.964 74.8109 113.396 74.1467C112.808 73.457 111.925 73.0775 110.914 73.0775H77.989C76.7504 73.0775 75.6642 72.603 74.9272 71.7405C74.2138 70.9035 73.9223 69.8021 74.107 68.6397C74.2579 67.6925 74.0223 66.8046 73.4462 66.1387C72.8565 65.4592 71.9805 65.0848 70.9774 65.0848H55.0649ZM94.0439 107.941H59.5399C59.4281 107.941 59.323 107.892 59.2502 107.807C59.1773 107.722 59.1468 107.61 59.1637 107.5L61.0192 95.8711C61.048 95.6864 61.2089 95.5492 61.3953 95.5492H95.8976C96.0094 95.5492 96.1145 95.5983 96.1874 95.683C96.2602 95.7678 96.2907 95.8796 96.2738 95.9897L94.4184 107.619C94.3895 107.803 94.2303 107.941 94.0439 107.941ZM59.9872 107.178H93.7185L95.452 96.3117H61.7207L59.9872 107.178Z" fill="#E6E6E7"/>
<path d="M137.26 101.744L140.745 106.495L136.112 135.545L132.627 130.794L137.26 101.744Z" fill="#E6E6E7"/>
<path d="M136.112 135.927C135.992 135.927 135.878 135.871 135.806 135.771L132.32 131.02C132.259 130.938 132.235 130.835 132.251 130.733L136.883 101.684C136.907 101.531 137.02 101.409 137.17 101.374C137.319 101.338 137.476 101.394 137.566 101.52L141.052 106.271C141.113 106.352 141.136 106.455 141.121 106.557L136.488 135.607C136.465 135.759 136.351 135.881 136.202 135.917C136.172 135.924 136.143 135.927 136.112 135.927ZM133.028 130.698L135.88 134.585L140.345 106.594L137.493 102.707L133.028 130.698Z" fill="#E6E6E7"/>
<path d="M136.113 135.547L132.628 130.796H105.793H44.525C43.2694 130.796 42.229 130.257 41.6055 129.406L45.0909 134.157C45.7162 135.008 46.7549 135.547 48.0122 135.547H109.28H136.113Z" fill="#B2B3B5"/>
<path d="M136.112 135.927H48.0097C46.6795 135.927 45.5019 135.363 44.7817 134.382L41.2963 129.631C41.1726 129.461 41.2082 129.222 41.3776 129.097C41.547 128.973 41.786 129.009 41.9113 129.178C42.4875 129.963 43.4397 130.414 44.5242 130.414H132.627C132.749 130.414 132.862 130.471 132.934 130.57L136.419 135.321C136.504 135.436 136.517 135.59 136.451 135.719C136.388 135.848 136.256 135.927 136.112 135.927ZM43.2381 130.988L45.3968 133.931C45.9729 134.716 46.9252 135.167 48.0097 135.167H135.36L132.434 131.178H44.5242C44.0735 131.176 43.6414 131.112 43.2381 130.988Z" fill="#E6E6E7"/>
<path d="M145.555 81.3571C146.947 81.3571 148.076 80.2283 148.076 78.8358C148.076 77.4433 146.947 76.3145 145.555 76.3145C144.162 76.3145 143.033 77.4433 143.033 78.8358C143.033 80.2283 144.162 81.3571 145.555 81.3571Z" fill="#E6E6E7"/>
<path d="M42.5389 90.2751C43.9314 90.2751 45.0602 89.1463 45.0602 87.7538C45.0602 86.3613 43.9314 85.2324 42.5389 85.2324C41.1464 85.2324 40.0176 86.3613 40.0176 87.7538C40.0176 89.1463 41.1464 90.2751 42.5389 90.2751Z" fill="#E6E6E7"/>
<path d="M43.802 92.3129C44.2923 92.3129 44.6898 91.9154 44.6898 91.425C44.6898 90.9346 44.2923 90.5371 43.802 90.5371C43.3116 90.5371 42.9141 90.9346 42.9141 91.425C42.9141 91.9154 43.3116 92.3129 43.802 92.3129Z" fill="#E6E6E7"/>
<path d="M64.205 60.2049C66.6007 60.2049 68.5427 58.2628 68.5427 55.8671C68.5427 53.4714 66.6007 51.5293 64.205 51.5293C61.8093 51.5293 59.8672 53.4714 59.8672 55.8671C59.8672 58.2628 61.8093 60.2049 64.205 60.2049Z" fill="#E6E6E7"/>
<path d="M59.8683 53.7287C61.009 53.7287 61.9338 52.8039 61.9338 51.6632C61.9338 50.5224 61.009 49.5977 59.8683 49.5977C58.7275 49.5977 57.8027 50.5224 57.8027 51.6632C57.8027 52.8039 58.7275 53.7287 59.8683 53.7287Z" fill="#E6E6E7"/>
<path d="M129.831 38.9336C135.86 38.9336 139.993 43.6442 139.066 49.4595C138.139 55.2714 132.503 59.9837 126.474 59.9837C120.447 59.9837 116.314 55.2731 117.241 49.4595C118.168 43.6442 123.804 38.9336 129.831 38.9336ZM130.416 43.1494C130.582 42.4513 130.088 41.8497 129.373 41.8497C129.341 41.8497 129.309 41.8514 129.277 41.8531C128.577 41.8989 127.96 42.4801 127.899 43.1494L126.974 53.6854C126.954 53.9243 127.118 54.1192 127.369 54.1361C127.381 54.1378 127.394 54.1378 127.406 54.1378C127.669 54.1378 127.92 53.9413 127.979 53.6854L130.416 43.1494ZM126.939 57.0658C127.582 57.0658 128.182 56.5643 128.282 55.9424C128.38 55.324 127.94 54.819 127.298 54.819C126.656 54.819 126.052 55.3223 125.954 55.9424C125.854 56.5643 126.296 57.0658 126.939 57.0658Z" fill="#B2B3B5"/>
<path d="M126.475 60.3636C123.398 60.3636 120.702 59.1894 118.884 57.0595C117.124 54.9956 116.407 52.276 116.866 49.3989C117.82 43.4175 123.637 38.5527 129.832 38.5527C132.909 38.5527 135.607 39.727 137.425 41.8586C139.185 43.9224 139.902 46.6437 139.443 49.5209C138.489 55.4989 132.672 60.3636 126.475 60.3636ZM129.832 39.3152C123.994 39.3152 118.516 43.8936 117.618 49.5192C117.195 52.171 117.85 54.6737 119.464 56.5647C121.134 58.5235 123.625 59.6011 126.475 59.6011C132.313 59.6011 137.792 55.0244 138.69 49.3989C139.114 46.7454 138.458 44.2427 136.845 42.3517C135.173 40.3929 132.682 39.3152 129.832 39.3152ZM126.939 57.4475C126.516 57.4475 126.126 57.2746 125.87 56.9747C125.616 56.6782 125.513 56.2902 125.577 55.8835C125.694 55.1464 126.331 54.5551 127.073 54.4551C126.961 54.4076 126.861 54.3365 126.782 54.2433C126.643 54.0823 126.579 53.8722 126.597 53.6553L127.522 43.1193C127.599 42.2551 128.359 41.5333 129.254 41.4757C129.293 41.4723 129.334 41.4706 129.374 41.4706C129.837 41.4706 130.259 41.6671 130.53 42.0111C130.798 42.35 130.891 42.7973 130.786 43.2379L128.353 53.7739C128.275 54.1162 127.997 54.3907 127.665 54.4856C127.941 54.5551 128.187 54.7025 128.366 54.9126C128.62 55.2108 128.724 55.5972 128.659 56.0038C128.531 56.8138 127.775 57.4475 126.939 57.4475ZM127.297 55.2006C126.843 55.2006 126.399 55.5683 126.329 56.0021C126.301 56.1851 126.343 56.3546 126.45 56.4783C126.563 56.6104 126.736 56.6833 126.939 56.6833C127.394 56.6833 127.837 56.3156 127.907 55.8818C127.936 55.6988 127.893 55.5294 127.787 55.404C127.673 55.2735 127.5 55.2006 127.297 55.2006ZM129.374 42.2314C129.352 42.2314 129.329 42.2331 129.307 42.2348C128.791 42.2687 128.324 42.7041 128.281 43.1853L127.356 53.7214C127.355 53.7333 127.356 53.7434 127.36 53.7468C127.363 53.7519 127.377 53.757 127.397 53.7587C127.397 53.7587 127.397 53.7587 127.399 53.7587C127.497 53.7587 127.592 53.6841 127.61 53.6028L130.044 43.0667V43.065C130.094 42.8481 130.056 42.6431 129.932 42.4855C129.805 42.3195 129.606 42.2314 129.374 42.2314Z" fill="#E6E6E7"/>
<path d="M129.374 41.8496C130.09 41.8496 130.581 42.4511 130.417 43.1492L127.983 53.6853C127.924 53.9412 127.673 54.1377 127.411 54.1377C127.399 54.1377 127.385 54.1377 127.373 54.136C127.123 54.1191 126.956 53.9242 126.979 53.6853L127.904 43.1492C127.963 42.4782 128.58 41.8987 129.281 41.853C129.312 41.8496 129.344 41.8496 129.374 41.8496Z" fill="#E6E6E7"/>
<path d="M127.41 54.5194C127.388 54.5194 127.366 54.5194 127.344 54.5177C127.122 54.5024 126.921 54.4058 126.782 54.2415C126.643 54.0805 126.578 53.8704 126.597 53.6535L127.522 43.1174C127.598 42.2533 128.359 41.5314 129.254 41.4738C129.293 41.4704 129.333 41.4688 129.374 41.4688C129.837 41.4688 130.259 41.6653 130.53 42.0093C130.797 42.3482 130.891 42.7955 130.786 43.2378L128.352 53.7721C128.256 54.1974 127.849 54.5194 127.41 54.5194ZM129.374 42.2312C129.352 42.2312 129.328 42.2329 129.306 42.2346C128.791 42.2685 128.324 42.704 128.281 43.1852L127.356 53.7213C127.354 53.7331 127.356 53.7433 127.359 53.7467C127.363 53.7518 127.376 53.7569 127.397 53.7586C127.397 53.7586 127.397 53.7586 127.398 53.7586C127.497 53.7586 127.592 53.684 127.61 53.6027L130.043 43.0666C130.096 42.848 130.055 42.6413 129.932 42.4854C129.804 42.3194 129.606 42.2312 129.374 42.2312Z" fill="#E6E6E7"/>
<path d="M127.297 54.8184C127.941 54.8184 128.382 55.3216 128.282 55.9418C128.183 56.5619 127.582 57.0652 126.938 57.0652C126.296 57.0652 125.854 56.5636 125.954 55.9418C126.054 55.3233 126.657 54.8184 127.297 54.8184Z" fill="#E6E6E7"/>
<path d="M126.94 57.4471C126.516 57.4471 126.126 57.2743 125.87 56.9743C125.616 56.6778 125.513 56.2898 125.577 55.8831C125.706 55.0732 126.462 54.4395 127.297 54.4395C127.721 54.4395 128.11 54.6123 128.366 54.9122C128.62 55.2104 128.724 55.5968 128.659 56.0051C128.531 56.8134 127.775 57.4471 126.94 57.4471ZM127.297 55.2003C126.843 55.2003 126.399 55.568 126.33 56.0017C126.301 56.1847 126.343 56.3542 126.45 56.4779C126.563 56.61 126.736 56.6829 126.94 56.6829C127.394 56.6829 127.838 56.3152 127.907 55.8814C127.936 55.6984 127.894 55.529 127.787 55.4036C127.673 55.2731 127.5 55.2003 127.297 55.2003Z" fill="#E6E6E7"/>
</g>
</svg>
