<svg width="184" height="183" viewBox="0 0 184 183" fill="none" xmlns="http://www.w3.org/2000/svg">
<g opacity="0.5">
<path d="M92.0006 149.691C126.55 149.691 154.558 138.703 154.558 125.15C154.558 111.597 126.55 100.609 92.0006 100.609C57.4512 100.609 29.4434 111.597 29.4434 125.15C29.4434 138.703 57.4512 149.691 92.0006 149.691Z" fill="#F9FAFB"/>
<path d="M122.713 121.799L125.607 125.747H71.6556L68.7598 121.799H122.713Z" fill="#D0D5DD"/>
<path d="M125.606 126.129H71.6554C71.5334 126.129 71.4198 126.071 71.3487 125.973L68.4529 122.027C68.3681 121.911 68.3546 121.757 68.4207 121.628C68.485 121.5 68.6172 121.42 68.7612 121.42H122.714C122.836 121.42 122.95 121.478 123.021 121.576L125.917 125.522C126.001 125.637 126.015 125.792 125.949 125.92C125.883 126.047 125.75 126.129 125.606 126.129ZM71.8485 125.366H124.856L122.519 122.182H69.5119L71.8485 125.366Z" fill="#F9FAFB"/>
<path d="M136.006 38.4531L138.9 42.4012L125.607 125.749L122.713 121.801L136.006 38.4531Z" fill="#D0D5DD"/>
<path d="M125.607 126.13C125.486 126.13 125.373 126.074 125.3 125.974L122.404 122.027C122.343 121.946 122.319 121.843 122.335 121.741L135.627 38.3929C135.651 38.2404 135.765 38.1184 135.914 38.0828C136.063 38.0472 136.221 38.1031 136.31 38.2285L139.206 42.1749C139.267 42.2562 139.291 42.3596 139.276 42.4613L125.983 125.809C125.959 125.962 125.845 126.084 125.696 126.119C125.668 126.126 125.637 126.13 125.607 126.13ZM123.114 121.704L125.374 124.786L138.498 42.4968L136.237 39.4146L123.114 121.704Z" fill="#F9FAFB"/>
<path d="M136.005 38.4512L122.713 121.799H68.7598L69.6087 116.474H117.507L129.951 38.4512H136.005Z" fill="#F7F9FC"/>
<path d="M122.712 122.181H68.7596C68.6478 122.181 68.5428 122.131 68.4699 122.047C68.397 121.962 68.3665 121.85 68.3835 121.74L69.2324 116.413C69.2612 116.228 69.4222 116.091 69.6086 116.091H117.182L129.573 38.3903C129.602 38.2056 129.763 38.0684 129.949 38.0684H136.004C136.116 38.0684 136.221 38.1175 136.293 38.2022C136.366 38.2869 136.397 38.3988 136.38 38.5089L123.087 121.857C123.058 122.045 122.899 122.181 122.712 122.181ZM69.207 121.418H122.387L135.558 38.8326H130.276L117.885 116.533C117.856 116.718 117.695 116.855 117.509 116.855H69.9339L69.207 121.418Z" fill="#F9FAFB"/>
<path d="M57.9754 122.775L60.8696 126.722L48.3646 138.5L45.4688 134.553L57.9754 122.775Z" fill="#D0D5DD"/>
<path d="M48.3641 138.881C48.3522 138.881 48.3404 138.881 48.3285 138.88C48.2201 138.87 48.1201 138.814 48.0557 138.726L45.1599 134.779C45.0464 134.623 45.065 134.408 45.2057 134.276L57.7107 122.498C57.7903 122.423 57.8987 122.386 58.0072 122.396C58.1156 122.406 58.2156 122.462 58.28 122.55L61.1758 126.497C61.2893 126.653 61.2707 126.868 61.13 127L48.625 138.778C48.5539 138.844 48.4607 138.881 48.3641 138.881ZM45.9749 134.6L48.4149 137.927L60.3608 126.676L57.9208 123.348L45.9749 134.6Z" fill="#F9FAFB"/>
<path d="M69.6078 116.475L68.7589 121.8L66.7256 134.554L57.9754 122.776L45.4688 134.554L48.3527 116.475H69.6078Z" fill="#E4E7EC"/>
<path d="M66.7255 134.936C66.6069 134.936 66.4917 134.88 66.4189 134.782L57.9246 123.347L45.7314 134.831C45.6128 134.942 45.4365 134.966 45.2908 134.89C45.1468 134.814 45.0672 134.654 45.0926 134.493L47.9765 116.414C48.0053 116.229 48.1663 116.092 48.3527 116.092H69.6078C69.7196 116.092 69.8247 116.141 69.8975 116.226C69.9704 116.31 70.0009 116.422 69.984 116.532L67.1 134.612C67.0763 134.763 66.9628 134.887 66.8137 134.922C66.7849 134.931 66.7544 134.936 66.7255 134.936ZM57.9754 122.395C57.9873 122.395 57.9975 122.395 58.0093 122.397C58.1178 122.407 58.216 122.461 58.2821 122.549L66.4934 133.6L69.1639 116.856H48.678L46.0211 133.511L57.7128 122.5C57.784 122.431 57.8772 122.395 57.9754 122.395Z" fill="#F9FAFB"/>
<path d="M69.6088 116.475L68.7599 121.8L66.7266 134.554L69.6207 138.501L71.6557 125.748L72.5046 120.421L69.6088 116.475Z" fill="#D0D5DD"/>
<path d="M69.6205 138.881C69.5002 138.881 69.3866 138.825 69.3138 138.725L66.4197 134.779C66.3587 134.697 66.3349 134.594 66.3502 134.494L69.2341 116.414C69.2579 116.262 69.3714 116.14 69.5205 116.104C69.6696 116.069 69.8272 116.125 69.917 116.25L72.8128 120.196C72.8738 120.278 72.8975 120.381 72.8823 120.483L69.9983 138.562C69.9746 138.715 69.8611 138.837 69.712 138.873C69.6815 138.878 69.651 138.881 69.6205 138.881ZM67.1279 134.455L69.3883 137.537L72.1028 120.517L69.8424 117.434L67.1279 134.455Z" fill="#F9FAFB"/>
<path d="M130.799 33.125L129.95 38.4506L117.507 116.473H69.6079H48.3528H42.2969L55.5898 33.125H130.799Z" fill="#D0D5DD"/>
<path d="M90.7735 95.2656C91.2582 95.2656 91.5903 95.6435 91.5157 96.1112C91.4412 96.5788 90.9887 96.9584 90.5041 96.9584H61.9714C61.4868 96.9584 61.1547 96.5788 61.2292 96.1112C61.3038 95.6435 61.7562 95.2656 62.2408 95.2656H90.7735Z" fill="#98A2B3"/>
<path d="M90.5024 97.34H61.9714C61.6257 97.34 61.3055 97.1977 61.0954 96.952C60.8852 96.7063 60.8005 96.386 60.8531 96.0522C60.9564 95.3982 61.5664 94.8848 62.2408 94.8848H90.7736C91.1209 94.8848 91.4395 95.0271 91.6513 95.2728C91.8597 95.5185 91.9461 95.837 91.8919 96.1709C91.7868 96.8266 91.1768 97.34 90.5024 97.34ZM62.2408 95.6473C61.9426 95.6473 61.6511 95.8879 61.6054 96.1709C61.5867 96.2827 61.6122 96.3827 61.6749 96.4555C61.7409 96.5335 61.846 96.5758 61.9714 96.5758H90.5041C90.8024 96.5758 91.0938 96.3352 91.1396 96.0505C91.1582 95.9387 91.1345 95.8404 91.0718 95.7676C91.0057 95.6896 90.9006 95.6473 90.7753 95.6473H62.2408Z" fill="#98A2B3"/>
<path d="M106.028 84.6094C106.513 84.6094 106.845 84.9872 106.77 85.4549C106.696 85.9226 106.244 86.3021 105.759 86.3021H63.6706C63.186 86.3021 62.8539 85.9226 62.9284 85.4549C63.003 84.9872 63.4554 84.6094 63.94 84.6094H106.028Z" fill="#98A2B3"/>
<path d="M105.759 86.6838H63.6706C63.3249 86.6838 63.0047 86.5414 62.7946 86.2957C62.5845 86.05 62.4997 85.7298 62.5523 85.396C62.6573 84.7419 63.2656 84.2285 63.94 84.2285H106.028C106.376 84.2285 106.694 84.3709 106.906 84.6165C107.114 84.8622 107.201 85.1808 107.147 85.5146C107.042 86.1703 106.432 86.6838 105.759 86.6838ZM63.94 84.991C63.6418 84.991 63.3504 85.2316 63.3046 85.5146C63.286 85.6264 63.3114 85.7264 63.3741 85.7993C63.4402 85.8772 63.5452 85.9196 63.6706 85.9196H105.759C106.057 85.9196 106.349 85.679 106.394 85.3943C106.413 85.2825 106.389 85.1842 106.327 85.1113C106.26 85.0334 106.155 84.991 106.03 84.991H63.94Z" fill="#98A2B3"/>
<path d="M107.728 73.9531C108.212 73.9531 108.544 74.3327 108.47 74.7987C108.395 75.2663 107.943 75.6459 107.458 75.6459H65.3698C64.8852 75.6459 64.5531 75.2663 64.6276 74.7987C64.7022 74.3327 65.1546 73.9531 65.6392 73.9531H107.728Z" fill="#98A2B3"/>
<path d="M107.458 76.0275H65.3698C65.0242 76.0275 64.7039 75.8852 64.4938 75.6395C64.2837 75.3938 64.199 75.0735 64.2515 74.7397C64.3565 74.0857 64.9649 73.5723 65.6392 73.5723H107.728C108.073 73.5723 108.393 73.7146 108.604 73.9603C108.812 74.206 108.898 74.5245 108.846 74.8584C108.741 75.5141 108.131 76.0275 107.458 76.0275ZM65.6392 74.3348C65.341 74.3348 65.0496 74.5754 65.0038 74.86C64.9852 74.9719 65.0106 75.0719 65.0733 75.1447C65.1394 75.2227 65.2444 75.265 65.3698 75.265H107.458C107.756 75.265 108.048 75.0244 108.094 74.7397C108.11 74.6279 108.087 74.5296 108.024 74.4568C107.958 74.3788 107.853 74.3365 107.728 74.3365H65.6392V74.3348Z" fill="#98A2B3"/>
<path d="M109.429 63.2969C109.913 63.2969 110.245 63.6764 110.171 64.1441C110.096 64.6101 109.644 64.9896 109.159 64.9896H67.071C66.5864 64.9896 66.2543 64.6101 66.3288 64.1441C66.4034 63.6764 66.8558 63.2969 67.3404 63.2969H109.429Z" fill="#98A2B3"/>
<path d="M109.159 65.3715H67.0708C66.7252 65.3715 66.4049 65.2292 66.1948 64.9835C65.9864 64.7378 65.9 64.4192 65.9525 64.0854C66.0576 63.4297 66.6659 62.918 67.3403 62.918H109.429C109.774 62.918 110.094 63.0603 110.305 63.306C110.515 63.5517 110.599 63.8702 110.547 64.2057C110.442 64.8581 109.832 65.3715 109.159 65.3715ZM67.3403 63.6788C67.042 63.6788 66.7506 63.9194 66.7048 64.2041C66.6862 64.3159 66.7116 64.4142 66.7743 64.487C66.8404 64.565 66.9455 64.6073 67.0708 64.6073H109.159C109.457 64.6073 109.749 64.3667 109.795 64.0837C109.813 63.9719 109.788 63.8719 109.725 63.7991C109.659 63.7211 109.554 63.6788 109.429 63.6788H67.3403Z" fill="#98A2B3"/>
<path d="M111.126 52.6406C111.611 52.6406 111.943 53.0202 111.868 53.4878C111.794 53.9555 111.341 54.3334 110.857 54.3334H68.7682C68.2836 54.3334 67.9515 53.9555 68.0261 53.4878C68.1006 53.0202 68.5531 52.6406 69.0377 52.6406H111.126Z" fill="#98A2B3"/>
<path d="M110.857 54.715H68.7689C68.4216 54.715 68.103 54.5727 67.8912 54.327C67.6828 54.0813 67.5964 53.7627 67.6506 53.4289C67.7556 52.7732 68.3656 52.2598 69.0383 52.2598H111.127C111.472 52.2598 111.793 52.4021 112.003 52.6478C112.213 52.8935 112.297 53.2137 112.245 53.5475C112.14 54.2016 111.53 54.715 110.857 54.715ZM69.0383 53.0223C68.7401 53.0223 68.4487 53.2629 68.4029 53.5475C68.3843 53.6594 68.408 53.7577 68.4707 53.8305C68.5368 53.9085 68.6418 53.9508 68.7672 53.9508H110.856C111.154 53.9508 111.445 53.7102 111.491 53.4272C111.51 53.3154 111.484 53.2154 111.421 53.1426C111.355 53.0646 111.25 53.0223 111.125 53.0223H69.0383Z" fill="#98A2B3"/>
<path d="M130.799 33.125L129.95 38.4506L117.506 116.473L120.402 120.419L132.844 42.3987L133.695 37.0714L130.799 33.125Z" fill="#E4E7EC"/>
<path d="M120.401 120.801C120.281 120.801 120.168 120.746 120.095 120.646L117.199 116.699C117.138 116.618 117.114 116.514 117.129 116.413L130.422 33.0648C130.446 32.9123 130.56 32.7903 130.709 32.7547C130.858 32.7191 131.015 32.775 131.105 32.9004L134.001 36.8468C134.062 36.9281 134.086 37.0315 134.071 37.1331L120.778 120.481C120.754 120.634 120.64 120.756 120.491 120.791C120.461 120.798 120.43 120.801 120.401 120.801ZM117.907 116.376L120.169 119.458L133.293 37.1687L131.032 34.0865L117.907 116.376Z" fill="#F9FAFB"/>
<path d="M117.507 116.473H69.6079H44.8724H42.2969L45.1927 120.419H47.7665H72.5037H120.402L117.507 116.473Z" fill="#D0D5DD"/>
<path d="M120.402 120.801H45.1925C45.0705 120.801 44.9569 120.743 44.8858 120.645L41.99 116.698C41.9052 116.583 41.8917 116.429 41.9578 116.3C42.0222 116.171 42.1543 116.092 42.2984 116.092H117.508C117.63 116.092 117.743 116.149 117.815 116.248L120.71 120.194C120.795 120.309 120.809 120.463 120.743 120.592C120.677 120.719 120.546 120.801 120.402 120.801ZM45.3856 120.038H119.65L117.313 116.854H43.049L45.3856 120.038Z" fill="#F9FAFB"/>
<path d="M145.217 48.4316L145.587 50.7344C145.809 52.1154 146.756 53.1964 148.118 53.6217L150.395 54.3317L147.893 55.0417C146.395 55.467 145.102 56.548 144.44 57.929L143.336 60.2318L142.965 57.929C142.743 56.548 141.796 55.467 140.434 55.0417L138.158 54.3317L140.659 53.6217C142.157 53.1964 143.45 52.1154 144.112 50.7344L145.217 48.4316Z" fill="#D0D5DD"/>
<path d="M48.4958 34.998L48.7788 36.7637C48.9499 37.8227 49.6751 38.6513 50.7206 38.9783L52.4659 39.5222L50.5461 40.0678C49.3972 40.3932 48.406 41.2217 47.8976 42.2808L47.0521 44.0481L46.7691 42.2808C46.598 41.2217 45.8728 40.3949 44.8273 40.0678L43.082 39.5222L45.0001 38.9783C46.149 38.653 47.1402 37.8227 47.6486 36.7637L48.4958 34.998Z" fill="#D0D5DD"/>
<path d="M112.28 100.736L112.437 101.721C112.532 102.31 112.937 102.771 113.52 102.954L114.491 103.258L113.423 103.561C112.783 103.744 112.229 104.205 111.946 104.795L111.475 105.779L111.317 104.795C111.222 104.205 110.819 103.744 110.234 103.561L109.262 103.258L110.331 102.954C110.971 102.771 111.524 102.31 111.807 101.721L112.28 100.736Z" fill="#F7F9FC"/>
<path d="M36.6179 107.754L36.7755 108.737C36.8704 109.326 37.2754 109.789 37.8583 109.97L38.8292 110.274L37.7617 110.577C37.1212 110.76 36.5671 111.221 36.2841 111.812L35.8131 112.795L35.6555 111.812C35.5623 111.222 35.1573 110.76 34.5744 110.577L33.6035 110.274L34.671 109.97C35.3115 109.789 35.8639 109.328 36.1469 108.737L36.6179 107.754Z" fill="#D0D5DD"/>
</g>
</svg>
