<svg width="665" height="256" viewBox="0 0 665 256" fill="none" xmlns="http://www.w3.org/2000/svg">
<path d="M157.5 98.5H117.5V138.5H157.5V98.5Z" fill="url(#paint0_linear_312_1548)" fill-opacity="0.02"/>
<path d="M40 -213H1V-174M40 -213V-174M40 -213H79M40 -174H1M40 -174H79M40 -174V-135M1 -174V-135M79 -213V-174M79 -213H118M79 -174H118M79 -174V-135M118 -213V-174M118 -213H157M118 -174H157M118 -174V-135M157 -213V-174M157 -213H196M157 -174H196M157 -174V-135M196 -213V-174M196 -213H235M196 -174H235M196 -174V-135M235 -213V-174M235 -213H274M235 -174H274M235 -174V-135M274 -213V-174M274 -213H313M274 -174H313M274 -174V-135M313 -213V-174M313 -213H352M313 -174H352M313 -174V-135M352 -213V-174M352 -213H391M352 -174H391M352 -174V-135M391 -213V-174M391 -213H430M391 -174H430M391 -174V-135M430 -213V-174M430 -213H469M430 -174H469M430 -174V-135M469 -213V-174M469 -213H508M469 -174H508M469 -174V-135M508 -213V-174M508 -213H547M508 -174H547M508 -174V-135M547 -213V-174M547 -213H586M547 -174H586M547 -174V-135M586 -213V-174M586 -213H625M586 -174H625M586 -174V-135M625 -213V-174M625 -213H664V-174M625 -174H664M625 -174V-135M664 -174V-135M40 -135H1M40 -135H79M40 -135V-96M1 -135V-96M79 -135H118M79 -135V-96M118 -135H157M118 -135V-96M157 -135H196M157 -135V-96M196 -135H235M196 -135V-96M235 -135H274M235 -135V-96M274 -135H313M274 -135V-96M313 -135H352M313 -135V-96M352 -135H391M352 -135V-96M391 -135H430M391 -135V-96M430 -135H469M430 -135V-96M469 -135H508M469 -135V-96M508 -135H547M508 -135V-96M547 -135H586M547 -135V-96M586 -135H625M586 -135V-96M625 -135H664M625 -135V-96M664 -135V-96M40 -96H1M40 -96H79M40 -96V-57M1 -96V-57M79 -96H118M79 -96V-57M118 -96H157M118 -96V-57M157 -96H196M157 -96V-57M196 -96H235M196 -96V-57M235 -96H274M235 -96V-57M274 -96H313M274 -96V-57M313 -96H352M313 -96V-57M352 -96H391M352 -96V-57M391 -96H430M391 -96V-57M430 -96H469M430 -96V-57M469 -96H508M469 -96V-57M508 -96H547M508 -96V-57M547 -96H586M547 -96V-57M586 -96H625M586 -96V-57M625 -96H664M625 -96V-57M664 -96V-57M40 -57H1M40 -57H79M40 -57V-18M1 -57V-18M79 -57H118M79 -57V-18M118 -57H157M118 -57V-18M157 -57H196M157 -57V-18M196 -57H235M196 -57V-18M235 -57H274M235 -57V-18M274 -57H313M274 -57V-18M313 -57H352M313 -57V-18M352 -57H391M352 -57V-18M391 -57H430M391 -57V-18M430 -57H469M430 -57V-18M469 -57H508M469 -57V-18M508 -57H547M508 -57V-18M547 -57H586M547 -57V-18M586 -57H625M586 -57V-18M625 -57H664M625 -57V-18M664 -57V-18M40 -18H1M40 -18H79M40 -18V21M1 -18V21M79 -18H118M79 -18V21M118 -18H157M118 -18V21M157 -18H196M157 -18V21M196 -18H235M196 -18V21M235 -18H274M235 -18V21M274 -18H313M274 -18V21M313 -18H352M313 -18V21M352 -18H391M352 -18V21M391 -18H430M391 -18V21M430 -18H469M430 -18V21M469 -18H508M469 -18V21M508 -18H547M508 -18V21M547 -18H586M547 -18V21M586 -18H625M586 -18V21M625 -18H664M625 -18V21M664 -18V21M40 21H1M40 21H79M40 21V60M1 21V60M79 21H118M79 21V60M118 21H157M118 21V60M157 21H196M157 21V60M196 21H235M196 21V60M235 21H274M235 21V60M274 21H313M274 21V60M313 21H352M313 21V60M352 21H391M352 21V60M391 21H430M391 21V60M430 21H469M430 21V60M469 21H508M469 21V60M508 21H547M508 21V60M547 21H586M547 21V60M586 21H625M586 21V60M625 21H664M625 21V60M664 21V60M40 60H1M40 60H79M40 60V99M1 60V99M79 60H118M79 60V99M118 60H157M118 60V99M157 60H196M157 60V99M196 60H235M196 60V99M235 60H274M235 60V99M274 60H313M274 60V99M313 60H352M313 60V99M352 60H391M352 60V99M391 60H430M391 60V99M430 60H469M430 60V99M469 60H508M469 60V99M508 60H547M508 60V99M547 60H586M547 60V99M586 60H625M586 60V99M625 60H664M625 60V99M664 60V99M40 99H1M40 99H79M40 99V138M1 99V138M79 99H118M79 99V138M118 99H157M118 99V138M157 99H196M157 99V138M196 99H235M196 99V138M235 99H274M235 99V138M274 99H313M274 99V138M313 99H352M313 99V138M352 99H391M352 99V138M391 99H430M391 99V138M430 99H469M430 99V138M469 99H508M469 99V138M508 99H547M508 99V138M547 99H586M547 99V138M586 99H625M586 99V138M625 99H664M625 99V138M664 99V138M40 138H1M40 138H79M40 138V177M1 138V177M79 138H118M79 138V177M118 138H157M118 138V177M157 138H196M157 138V177M196 138H235M196 138V177M235 138H274M235 138V177M274 138H313M274 138V177M313 138H352M313 138V177M352 138H391M352 138V177M391 138H430M391 138V177M430 138H469M430 138V177M469 138H508M469 138V177M508 138H547M508 138V177M547 138H586M547 138V177M586 138H625M586 138V177M625 138H664M625 138V177M664 138V177M40 177H1M40 177H79M40 177V216M1 177V216M79 177H118M79 177V216M118 177H157M118 177V216M157 177H196M157 177V216M196 177H235M196 177V216M235 177H274M235 177V216M274 177H313M274 177V216M313 177H352M313 177V216M352 177H391M352 177V216M391 177H430M391 177V216M430 177H469M430 177V216M469 177H508M469 177V216M508 177H547M508 177V216M547 177H586M547 177V216M586 177H625M586 177V216M625 177H664M625 177V216M664 177V216M40 216H1M40 216H79M40 216V255M1 216V255H40M79 216H118M79 216V255M118 216H157M118 216V255M157 216H196M157 216V255M196 216H235M196 216V255M235 216H274M235 216V255M274 216H313M274 216V255M313 216H352M313 216V255M352 216H391M352 216V255M391 216H430M391 216V255M430 216H469M430 216V255M469 216H508M469 216V255M508 216H547M508 216V255M547 216H586M547 216V255M586 216H625M586 216V255M625 216H664M625 216V255M664 216V255H625M40 255H79M79 255H118M118 255H157M157 255H196M196 255H235M235 255H274M274 255H313M313 255H352M352 255H391M391 255H430M430 255H469M469 255H508M508 255H547M547 255H586M586 255H625" stroke="url(#paint1_radial_312_1548)" stroke-opacity="0.08"/>
<defs>
<linearGradient id="paint0_linear_312_1548" x1="137.5" y1="98.5" x2="137.5" y2="138.5" gradientUnits="userSpaceOnUse">
<stop stop-color="white" stop-opacity="0"/>
<stop offset="1" stop-color="white"/>
</linearGradient>
<radialGradient id="paint1_radial_312_1548" cx="0" cy="0" r="1" gradientUnits="userSpaceOnUse" gradientTransform="translate(332.5 33.5) rotate(90) scale(221 332)">
<stop stop-color="white"/>
<stop offset="1" stop-color="white" stop-opacity="0"/>
</radialGradient>
</defs>
</svg>
