<svg width="126" height="126" viewBox="0 0 126 126" fill="none" xmlns="http://www.w3.org/2000/svg">
<g opacity="0.6">
<path d="M62.9999 107.688C86.788 107.688 106.072 100.123 106.072 90.7914C106.072 81.4595 86.788 73.8945 62.9999 73.8945C39.2118 73.8945 19.9277 81.4595 19.9277 90.7914C19.9277 100.123 39.2118 107.688 62.9999 107.688Z" fill="#EBB3C6"/>
<path d="M66.4769 38.4648L65.0303 47.5345H55.627L66.4221 38.4648H66.4769Z" fill="#E28FAA"/>
<path d="M65.0305 47.7978H55.6271C55.5163 47.7978 55.4183 47.729 55.381 47.6251C55.3436 47.5213 55.374 47.4058 55.4591 47.3346L66.2543 38.265C66.3021 38.2253 66.3616 38.2031 66.4235 38.2031H66.4783C66.5553 38.2031 66.6276 38.237 66.6778 38.2953C66.728 38.3536 66.749 38.4306 66.7373 38.5065L65.2906 47.5761C65.2696 47.7045 65.16 47.7978 65.0305 47.7978ZM56.3481 47.2728H64.8065L66.1155 39.0665L56.3481 47.2728Z" fill="#E28FAA"/>
<path d="M95.737 41.5645L95.1466 45.2628L88.7031 85.6633L91.5358 86.2198L97.5465 48.5353L98.1368 44.8358L95.737 41.5645Z" fill="#EBB3C6"/>
<path d="M91.5364 86.4814C91.52 86.4814 91.5025 86.4802 91.4862 86.4767L88.6535 85.9202C88.5147 85.8934 88.4225 85.7604 88.4447 85.6215L95.4785 41.5215C95.4949 41.4165 95.573 41.3325 95.6757 41.308C95.7784 41.2835 95.8869 41.322 95.9487 41.4084L98.3485 44.6797C98.3905 44.7357 98.4069 44.8069 98.3964 44.8757L91.7965 86.2597C91.7849 86.3297 91.7464 86.3927 91.688 86.4335C91.6425 86.465 91.59 86.4814 91.5364 86.4814ZM89.0035 85.4535L91.3205 85.9085L97.8609 44.9014L95.8974 42.225L89.0035 85.4535Z" fill="#E28FAA"/>
<path d="M95.7377 41.5645L95.1474 45.264L87.6154 92.4918L77.3756 91.527L47.4062 89.4783C47.4062 89.4783 54.0668 54.7653 54.1204 54.2578L54.6979 50.6341H64.1012L65.5479 41.5645H95.7377Z" fill="#E28FAA"/>
<path d="M87.6161 92.7523C87.6079 92.7523 87.5998 92.7523 87.5916 92.7512L77.3518 91.7863L47.3894 89.7377C47.3148 89.733 47.2448 89.6957 47.1993 89.6362C47.1538 89.5767 47.1351 89.5008 47.1491 89.4262C49.4439 77.469 53.7979 54.7248 53.8598 54.2267C53.8598 54.2232 53.8609 54.2173 53.8609 54.2138L54.4384 50.5902C54.4583 50.463 54.5691 50.3685 54.6974 50.3685H63.8768L65.2873 41.5205C65.3071 41.3933 65.4179 41.2988 65.5463 41.2988H95.7361C95.8131 41.2988 95.8854 41.3327 95.9356 41.391C95.9858 41.4493 96.0068 41.5263 95.9951 41.6022L87.8728 92.5283C87.8553 92.6602 87.7444 92.7523 87.6161 92.7523ZM47.7208 89.2348L77.3949 91.2637L87.3956 92.2063L95.4304 41.8262H65.7726L64.3621 50.6742C64.3423 50.8013 64.2314 50.8958 64.1031 50.8958H54.9238L54.3813 54.2967C54.2576 55.1553 48.4033 85.6753 47.7208 89.2348Z" fill="#E28FAA"/>
<path d="M62.4672 35.5703L61.0205 44.6388H51.6172L62.4124 35.5703H62.4672Z" fill="#E28FAA"/>
<path d="M61.0207 44.9013H51.6174C51.5065 44.9013 51.4085 44.8325 51.3712 44.7286C51.3339 44.6248 51.3642 44.5093 51.4494 44.4381L62.2445 35.3685C62.2924 35.3288 62.3519 35.3066 62.4137 35.3066H62.4685C62.5455 35.3066 62.6179 35.3405 62.668 35.3988C62.7182 35.4571 62.7392 35.5341 62.7275 35.61L61.2809 44.6796C61.2599 44.808 61.1502 44.9013 61.0207 44.9013ZM52.3384 44.3763H60.7967L62.1057 36.17L52.3384 44.3763Z" fill="#E28FAA"/>
<path d="M92.192 37.1191L91.6017 40.8175L85.1582 81.218L87.9909 81.7745L94.0015 44.09L94.5919 40.3905L92.192 37.1191Z" fill="#EBB3C6"/>
<path d="M87.9914 82.0361C87.9751 82.0361 87.9576 82.0349 87.9413 82.0314L85.1086 81.4749C84.9698 81.4481 84.8776 81.3151 84.8998 81.1762L91.9336 37.0762C91.9499 36.9712 92.0281 36.8872 92.1308 36.8627C92.2334 36.8382 92.3419 36.8767 92.4038 36.9631L94.8036 40.2344C94.8456 40.2904 94.8619 40.3616 94.8514 40.4316L88.2516 81.8156C88.2399 81.8856 88.2014 81.9486 88.1431 81.9894C88.0976 82.0197 88.0451 82.0361 87.9914 82.0361ZM85.4586 81.0082L87.7756 81.4632L94.3159 40.4561L92.3524 37.7797L85.4586 81.0082Z" fill="#E28FAA"/>
<path d="M92.1928 37.1191L91.6025 40.8186L84.0705 88.0465L73.8307 87.0816L43.8613 85.033C43.8613 85.033 50.5218 50.32 50.5755 49.8125L51.153 46.1888H60.5563L62.003 37.1191H92.1928Z" fill="#E28FAA"/>
<path d="M84.0712 88.307C84.063 88.307 84.0548 88.307 84.0467 88.3058L73.8068 87.341L43.8445 85.2923C43.7698 85.2877 43.6998 85.2503 43.6543 85.1908C43.6088 85.1313 43.5902 85.0555 43.6042 84.9808C45.899 73.0237 50.253 50.2795 50.3148 49.7813C50.3148 49.7778 50.316 49.772 50.316 49.7685L50.8935 46.1448C50.9133 46.0177 51.0242 45.9232 51.1525 45.9232H60.3318L61.7435 37.0752C61.7633 36.948 61.8742 36.8535 62.0025 36.8535H92.1923C92.2693 36.8535 92.3417 36.8873 92.3918 36.9457C92.442 37.004 92.463 37.081 92.4513 37.1568L84.329 88.083C84.3103 88.2148 84.1995 88.307 84.0712 88.307ZM44.1758 84.7895L73.85 86.8183L83.8507 87.761L91.8855 37.3808H62.2277L60.816 46.2288C60.7962 46.356 60.6853 46.4505 60.557 46.4505H51.3777L50.8352 49.8513C50.7127 50.71 44.8583 81.23 44.1758 84.7895Z" fill="#E28FAA"/>
<path d="M58.4594 32.6738L57.0127 41.7423H47.6094L58.4045 32.6738H58.4594Z" fill="#E28FAA"/>
<path d="M57.0129 42.0048H47.6095C47.4987 42.0048 47.4007 41.936 47.3634 41.8322C47.3261 41.7283 47.3564 41.6128 47.4416 41.5417L58.2367 32.472C58.2846 32.4323 58.3441 32.4102 58.4059 32.4102H58.4607C58.5377 32.4102 58.61 32.444 58.6602 32.5023C58.7104 32.5607 58.7314 32.6377 58.7197 32.7135L57.2731 41.7832C57.2521 41.9115 57.1424 42.0048 57.0129 42.0048ZM48.3306 41.4798H56.7889L58.0979 33.2735L48.3306 41.4798Z" fill="#E28FAA"/>
<path d="M88.6491 32.6738L88.0587 36.3722L81.6152 76.7727L84.4491 77.3292L90.4586 39.6447L91.0489 35.9452L88.6491 32.6738Z" fill="#EBB3C6"/>
<path d="M84.4485 77.5908C84.4321 77.5908 84.4146 77.5896 84.3983 77.5861L81.5656 77.0296C81.4268 77.0028 81.3346 76.8698 81.3568 76.7309L88.3906 32.6309C88.407 32.5259 88.4851 32.4419 88.5878 32.4174C88.6905 32.3929 88.799 32.4314 88.8608 32.5178L91.2606 35.7891C91.3026 35.8451 91.319 35.9163 91.3085 35.9863L84.7086 77.3703C84.697 77.4403 84.6585 77.5033 84.6001 77.5441C84.5535 77.5744 84.501 77.5908 84.4485 77.5908ZM81.9145 76.5629L84.2315 77.0179L90.7718 36.0108L88.8083 33.3344L81.9145 76.5629Z" fill="#E28FAA"/>
<path d="M88.6479 32.6738L88.0576 36.3733L80.5256 83.6012L70.2857 82.6363L40.3164 80.5877C40.3164 80.5877 46.9769 45.8747 47.0306 45.3672L47.6081 41.7435H57.0114L58.4581 32.6738H88.6479Z" fill="#EBB3C6"/>
<path d="M80.5263 83.8617C80.5181 83.8617 80.5099 83.8617 80.5018 83.8605L70.2619 82.8957L40.2996 80.847C40.2249 80.8424 40.1549 80.805 40.1094 80.7455C40.0639 80.686 40.0452 80.6102 40.0592 80.5355C42.3529 68.5784 46.7081 45.8342 46.7699 45.336C46.7699 45.3325 46.7711 45.3267 46.7711 45.3232L47.3486 41.6995C47.3684 41.5724 47.4792 41.4779 47.6076 41.4779H56.7869L58.1986 32.6299C58.2184 32.5027 58.3293 32.4082 58.4576 32.4082H88.6474C88.7244 32.4082 88.7968 32.442 88.8469 32.5004C88.8971 32.5587 88.9181 32.6357 88.9064 32.7115L80.7841 83.6377C80.7654 83.7695 80.6546 83.8617 80.5263 83.8617ZM40.6309 80.3442L70.3051 82.373L80.3058 83.3157L88.3406 32.9355H58.6827L57.2711 41.7835C57.2512 41.9107 57.1404 42.0052 57.0121 42.0052H47.8327L47.2902 45.406C47.1677 46.2682 41.3146 76.7847 40.6309 80.3442Z" fill="#EBB3C6"/>
<path d="M50.5352 45.5078L52.935 48.7791C53.2885 49.261 53.4483 49.8875 53.3387 50.5735C53.229 51.2595 53.3888 51.8871 53.7423 52.369L51.3425 49.0976C50.989 48.6158 50.8292 47.9881 50.9388 47.3021C51.0485 46.6161 50.8887 45.9896 50.5352 45.5078Z" fill="#E28FAA"/>
<path d="M53.7428 52.6308C53.6623 52.6308 53.5818 52.5935 53.5305 52.5235L51.1307 49.2522C50.7235 48.6968 50.5625 47.9887 50.6792 47.2595C50.7725 46.6715 50.6465 46.1045 50.3233 45.6635L50.3222 45.6623C50.237 45.5457 50.2615 45.3812 50.3782 45.2948C50.4948 45.2097 50.6593 45.2342 50.7457 45.3508C50.7457 45.352 50.7468 45.352 50.7468 45.352L53.1455 48.6222C53.5527 49.1775 53.7125 49.8845 53.597 50.6125C53.5037 51.2017 53.6297 51.7687 53.9517 52.2097L53.9528 52.212C54.038 52.3287 54.0135 52.4932 53.8968 52.5795C53.8513 52.6145 53.7965 52.6308 53.7428 52.6308ZM51.2345 46.9048C51.2333 47.0495 51.2217 47.1953 51.1983 47.3423C51.1038 47.9315 51.231 48.4997 51.5553 48.9418L53.0428 50.9707C53.044 50.826 53.0557 50.679 53.0802 50.532C53.1747 49.9428 53.0475 49.3758 52.7243 48.9348L51.2345 46.9048Z" fill="#E28FAA"/>
<mask id="mask0_2338_95539" style="mask-type:luminance" maskUnits="userSpaceOnUse" x="50" y="45" width="4" height="8">
<mask id="mask1_2338_95539" style="mask-type:luminance" maskUnits="userSpaceOnUse" x="50" y="45" width="4" height="8">
<path d="M50.5352 45.5078L52.935 48.7791C53.2885 49.261 53.4483 49.8875 53.3387 50.5735C53.229 51.2595 53.3888 51.8871 53.7423 52.369L51.3425 49.0976C50.989 48.6158 50.8292 47.9881 50.9388 47.3021C51.0485 46.6161 50.8887 45.9896 50.5352 45.5078Z" fill="white"/>
</mask>
<g mask="url(#mask1_2338_95539)">
<path d="M53.7428 52.6308C53.6623 52.6308 53.5818 52.5935 53.5305 52.5235L51.1307 49.2522C50.7235 48.6968 50.5625 47.9887 50.6792 47.2595C50.7725 46.6715 50.6465 46.1045 50.3233 45.6635L50.3222 45.6623C50.237 45.5457 50.2615 45.3812 50.3782 45.2948C50.4948 45.2097 50.6593 45.2342 50.7457 45.3508C50.7457 45.352 50.7468 45.352 50.7468 45.352L53.1455 48.6222C53.5527 49.1775 53.7125 49.8845 53.597 50.6125C53.5037 51.2017 53.6297 51.7687 53.9517 52.2097L53.9528 52.212C54.038 52.3287 54.0135 52.4932 53.8968 52.5795C53.8513 52.6145 53.7965 52.6308 53.7428 52.6308ZM51.2345 46.9048C51.2333 47.0495 51.2217 47.1953 51.1983 47.3423C51.1038 47.9315 51.231 48.4997 51.5553 48.9418L53.0428 50.9707C53.044 50.826 53.0557 50.679 53.0802 50.532C53.1747 49.9428 53.0475 49.3758 52.7243 48.9348L51.2345 46.9048Z" fill="white"/>
</g>
</mask>
<g mask="url(#mask0_2338_95539)">
<path d="M50.5352 45.5078L52.935 48.7791C52.9537 48.8048 52.9723 48.8316 52.991 48.8585L50.5912 45.5871C50.5737 45.5603 50.555 45.5335 50.5352 45.5078Z" fill="#E28FAA"/>
<path d="M52.9903 49.1216C52.9098 49.1216 52.8293 49.0843 52.778 49.0143L50.3782 45.7429C50.356 45.7103 50.3397 45.6869 50.3222 45.6636C50.237 45.5469 50.2615 45.3824 50.3782 45.2973C50.4948 45.2109 50.6593 45.2366 50.7457 45.3533L53.1455 48.6246C53.1665 48.6538 53.1875 48.6829 53.2073 48.7133C53.2867 48.8323 53.2563 48.9921 53.1397 49.0738C53.0953 49.1064 53.0428 49.1216 52.9903 49.1216Z" fill="#E28FAA"/>
<path d="M50.5898 45.5879L52.9897 48.8592C53.0363 48.9292 53.0795 49.0027 53.1192 49.0786L50.7193 45.8072C50.6797 45.7314 50.6365 45.6579 50.5898 45.5879Z" fill="#E28FAA"/>
<path d="M53.1191 49.3413C53.0386 49.3413 52.9581 49.304 52.9067 49.234L50.5069 45.9626C50.4987 45.951 50.4917 45.9393 50.4847 45.9276C50.4509 45.8611 50.4124 45.7958 50.3704 45.734C50.2911 45.615 50.3214 45.4551 50.4381 45.3735C50.5547 45.2918 50.7157 45.3186 50.7997 45.433L53.1996 48.7043C53.2591 48.7918 53.3069 48.8746 53.3501 48.9586C53.4131 49.08 53.3711 49.2293 53.2544 49.3016C53.2136 49.3285 53.1657 49.3413 53.1191 49.3413Z" fill="#E28FAA"/>
<path d="M50.7207 45.8066L53.1205 49.078C53.1637 49.162 53.201 49.2483 53.2337 49.3381L50.8339 46.0668C50.8012 45.977 50.7627 45.8906 50.7207 45.8066Z" fill="#E28FAA"/>
<path d="M53.2338 49.6011C53.1521 49.6011 53.0728 49.5637 53.0214 49.4937L50.6216 46.2224C50.6064 46.2026 50.5948 46.1804 50.5866 46.1571C50.5586 46.0789 50.5248 46.0019 50.4863 45.9272C50.4233 45.8059 50.4653 45.6566 50.5819 45.5842C50.6986 45.5119 50.8503 45.5422 50.9319 45.6519L53.3318 48.9232C53.3399 48.9349 53.3469 48.9466 53.3539 48.9582C53.4018 49.0516 53.4449 49.1496 53.4799 49.2487C53.5243 49.3712 53.4718 49.5077 53.3563 49.5696C53.3178 49.5917 53.2758 49.6011 53.2338 49.6011Z" fill="#E28FAA"/>
<path d="M50.834 46.0664L53.2338 49.3377C53.2735 49.4474 53.305 49.5606 53.3283 49.6772L50.9285 46.4059C50.9052 46.2892 50.8737 46.1761 50.834 46.0664Z" fill="#E28FAA"/>
<path d="M53.3276 49.9414C53.246 49.9414 53.1666 49.9029 53.1153 49.834L50.7155 46.5627C50.6933 46.5312 50.677 46.4962 50.67 46.4577C50.6501 46.355 50.6221 46.2535 50.586 46.1567C50.5416 46.0342 50.5941 45.8977 50.7096 45.8359C50.8251 45.774 50.9675 45.8067 51.0445 45.9117L53.4443 49.183C53.4595 49.2029 53.4711 49.225 53.4793 49.2484C53.5236 49.3709 53.5586 49.498 53.5843 49.6275C53.6076 49.7477 53.5446 49.869 53.4326 49.918C53.3988 49.9344 53.3626 49.9414 53.3276 49.9414Z" fill="#E28FAA"/>
<path d="M50.9284 46.4082L53.3283 49.6795C53.3831 49.9595 53.3901 50.2617 53.3399 50.5744C53.2898 50.8882 53.2956 51.1892 53.3516 51.4692L50.9518 48.1979C50.8969 47.9179 50.8899 47.6169 50.9401 47.303C50.9891 46.9904 50.9833 46.6894 50.9284 46.4082Z" fill="#E28FAA"/>
<path d="M53.3502 51.7323C53.2686 51.7323 53.1892 51.6938 53.1379 51.6249L50.7381 48.3536C50.7147 48.3221 50.6996 48.2871 50.6926 48.2486C50.6307 47.9313 50.6261 47.5988 50.6797 47.2616C50.7241 46.9851 50.7206 46.7156 50.6704 46.4589C50.6471 46.3388 50.7101 46.2174 50.8221 46.1684C50.9341 46.1194 51.0659 46.1544 51.1394 46.2536L53.5392 49.5249C53.5614 49.5564 53.5777 49.5914 53.5847 49.6299C53.6477 49.9473 53.6524 50.2798 53.5976 50.6169C53.5532 50.8934 53.5567 51.1629 53.6069 51.4196C53.6302 51.5398 53.5672 51.6611 53.4552 51.7101C53.4214 51.7253 53.3864 51.7323 53.3502 51.7323ZM51.1977 48.0911L53.0644 50.6368C53.0691 50.6029 53.0737 50.5679 53.0796 50.5329C53.1204 50.2774 53.1204 50.0254 53.0796 49.7863L51.2129 47.2406C51.2082 47.2744 51.2036 47.3094 51.1977 47.3433C51.1581 47.5999 51.1581 47.8508 51.1977 48.0911Z" fill="#E28FAA"/>
<path d="M50.9492 48.1973L53.3491 51.4686C53.3724 51.5853 53.4039 51.6996 53.4436 51.8093L51.0437 48.5379C51.0041 48.4283 50.9726 48.3151 50.9492 48.1973Z" fill="#E28FAA"/>
<path d="M53.4445 52.0723C53.3628 52.0723 53.2835 52.035 53.2322 51.965L50.8323 48.6937C50.8172 48.6738 50.8055 48.6517 50.7973 48.6272C50.753 48.5047 50.718 48.3775 50.6923 48.248C50.669 48.1278 50.732 48.0065 50.844 47.9575C50.9572 47.9085 51.0878 47.9435 51.1613 48.0427L53.5612 51.314C53.5845 51.3455 53.5997 51.3805 53.6067 51.419C53.6265 51.5217 53.6545 51.6232 53.6907 51.7212C53.735 51.8437 53.6825 51.9802 53.567 52.042C53.5285 52.0618 53.4865 52.0723 53.4445 52.0723Z" fill="#E28FAA"/>
<path d="M51.0449 48.5371L53.4448 51.8084C53.4774 51.8983 53.5148 51.9858 53.5579 52.0686L51.1581 48.7973C51.1149 48.7144 51.0776 48.6269 51.0449 48.5371Z" fill="#E28FAA"/>
<path d="M53.5572 52.3316C53.4767 52.3316 53.3962 52.2942 53.3449 52.2242L50.9451 48.9529C50.9369 48.9412 50.9299 48.9296 50.9229 48.9179C50.8751 48.8246 50.8319 48.7266 50.7969 48.6274C50.7526 48.5049 50.8051 48.3684 50.9206 48.3066C51.0361 48.2447 51.1784 48.2774 51.2554 48.3824L53.6552 51.6537C53.6704 51.6736 53.6821 51.6957 53.6902 51.7202C53.7182 51.7984 53.7521 51.8766 53.7906 51.9501C53.8536 52.0714 53.8116 52.2207 53.6949 52.2931C53.6529 52.3187 53.6051 52.3316 53.5572 52.3316Z" fill="#E28FAA"/>
<path d="M51.1562 48.7988L53.5561 52.0702C53.5946 52.146 53.6378 52.2195 53.6856 52.2895L51.2857 49.0182C51.2379 48.947 51.1959 48.8747 51.1562 48.7988Z" fill="#E28FAA"/>
<path d="M53.6864 52.5516C53.6059 52.5516 53.5254 52.5143 53.4741 52.4443L51.0743 49.173C51.0148 49.0855 50.9669 49.0026 50.9238 48.9175C50.8608 48.7961 50.9028 48.6468 51.0194 48.5745C51.1361 48.5021 51.2878 48.5325 51.3694 48.6421L53.7693 51.9135C53.7774 51.9251 53.7844 51.9368 53.7914 51.9485C53.8253 52.015 53.8638 52.0803 53.9058 52.1421C53.9851 52.2611 53.9548 52.421 53.8381 52.5026C53.7903 52.5365 53.7378 52.5516 53.6864 52.5516Z" fill="#E28FAA"/>
<path d="M51.2871 49.0176L53.6869 52.2889C53.7056 52.3157 53.7243 52.3426 53.7429 52.3694L51.3431 49.0981C51.3233 49.0712 51.3046 49.0444 51.2871 49.0176Z" fill="#E28FAA"/>
<path d="M53.7424 52.6314C53.6619 52.6314 53.5826 52.594 53.5313 52.524V52.5229C53.5313 52.5217 53.5301 52.5217 53.5301 52.5205L51.1326 49.2515C51.1116 49.2224 51.0906 49.192 51.0696 49.1617C50.9903 49.0427 51.0206 48.8829 51.1373 48.8012C51.2539 48.7195 51.4149 48.7464 51.4989 48.8607L53.8988 52.132C53.9209 52.1647 53.9361 52.1869 53.9524 52.209L53.9536 52.2114C54.0388 52.328 54.0143 52.4925 53.8976 52.5777C53.8509 52.615 53.7961 52.6314 53.7424 52.6314Z" fill="#E28FAA"/>
</g>
<path d="M55.7519 53.5861C54.8361 53.5861 54.0264 53.1987 53.5306 52.5221L51.1308 49.2507C51.0456 49.134 51.0701 48.9695 51.1868 48.8832C51.3034 48.7969 51.4679 48.8225 51.5543 48.9392L51.5554 48.9404C51.9509 49.4794 52.6054 49.7885 53.3521 49.7885C53.4361 49.7885 53.5143 49.8282 53.5633 49.8959L55.9631 53.1672C56.0214 53.2466 56.0308 53.3527 55.9853 53.4414C55.9409 53.53 55.8511 53.5861 55.7519 53.5861ZM52.4678 50.1852L53.9541 52.2117C54.2469 52.6107 54.6798 52.8837 55.1884 52.9992L53.2168 50.3112C52.9554 50.2995 52.7046 50.2576 52.4678 50.1852Z" fill="#E28FAA"/>
<mask id="mask2_2338_95539" style="mask-type:luminance" maskUnits="userSpaceOnUse" x="51" y="48" width="6" height="6">
<path d="M55.7519 53.5861C54.8361 53.5861 54.0264 53.1987 53.5306 52.5221L51.1308 49.2507C51.0456 49.134 51.0701 48.9695 51.1868 48.8832C51.3034 48.7969 51.4679 48.8225 51.5543 48.9392L51.5554 48.9404C51.9509 49.4794 52.6054 49.7885 53.3521 49.7885C53.4361 49.7885 53.5143 49.8282 53.5633 49.8959L55.9631 53.1672C56.0214 53.2466 56.0308 53.3527 55.9853 53.4414C55.9409 53.53 55.8511 53.5861 55.7519 53.5861ZM52.4678 50.1852L53.9541 52.2117C54.2469 52.6107 54.6798 52.8837 55.1884 52.9992L53.2168 50.3112C52.9554 50.2995 52.7046 50.2576 52.4678 50.1852Z" fill="white"/>
</mask>
<g mask="url(#mask2_2338_95539)">
<path d="M53.3527 50.0504L55.7526 53.3217C54.8881 53.3217 54.1729 52.9507 53.7436 52.3651L51.3438 49.0938C51.7731 49.6806 52.4882 50.0504 53.3527 50.0504Z" fill="#E6EEFF"/>
<path d="M55.7519 53.5861C54.8361 53.5861 54.0264 53.1987 53.5306 52.5221L51.1308 49.2507C51.0456 49.134 51.0701 48.9695 51.1868 48.8832C51.3034 48.7969 51.4679 48.8225 51.5543 48.9392L51.5554 48.9404C51.9509 49.4794 52.6054 49.7885 53.3521 49.7885C53.4361 49.7885 53.5143 49.8282 53.5633 49.8959L55.9631 53.1672C56.0214 53.2466 56.0308 53.3527 55.9853 53.4414C55.9409 53.53 55.8511 53.5861 55.7519 53.5861ZM52.4678 50.1852L53.9541 52.2117C54.2469 52.6107 54.6798 52.8837 55.1884 52.9992L53.2168 50.3112C52.9554 50.2995 52.7046 50.2576 52.4678 50.1852Z" fill="#E28FAA"/>
</g>
<path d="M76.0222 50.0527L78.4221 53.3252H55.7514L53.3516 50.0527H76.0222Z" fill="#E6EEFF"/>
<path d="M78.4224 53.5873H55.7518C55.6678 53.5873 55.5896 53.5477 55.5406 53.48L53.1408 50.2087C53.0824 50.1293 53.0731 50.0232 53.1186 49.9345C53.1629 49.8459 53.2539 49.791 53.3531 49.791H76.0238C76.1078 49.791 76.1859 49.8307 76.2349 49.8984L78.6348 53.1697C78.6931 53.249 78.7024 53.3552 78.6569 53.4438C78.6114 53.5313 78.5216 53.5873 78.4224 53.5873ZM55.8848 53.0623H77.9044L75.8896 50.316H53.8699L55.8848 53.0623Z" fill="#E28FAA"/>
<path d="M80.4338 54.5421C80.3533 54.5421 80.2728 54.5047 80.2215 54.4347C79.826 53.8946 79.1703 53.5854 78.4236 53.5854C78.3396 53.5854 78.2615 53.5457 78.2125 53.4781L75.8126 50.2067C75.7543 50.1274 75.745 50.0212 75.7905 49.9326C75.8348 49.8439 75.9258 49.7891 76.025 49.7891C76.9408 49.7891 77.7505 50.1764 78.2463 50.8531L80.6461 54.1244C80.7313 54.2411 80.7068 54.4056 80.5901 54.4919C80.5411 54.5257 80.4875 54.5421 80.4338 54.5421ZM78.559 53.0639C78.8203 53.0744 79.0711 53.1176 79.308 53.1899L77.8216 51.1634C77.5288 50.7644 77.0948 50.4914 76.5873 50.3759L78.559 53.0639Z" fill="#E28FAA"/>
<mask id="mask3_2338_95539" style="mask-type:luminance" maskUnits="userSpaceOnUse" x="75" y="49" width="6" height="6">
<path d="M80.4338 54.5421C80.3533 54.5421 80.2728 54.5047 80.2215 54.4347C79.826 53.8946 79.1703 53.5854 78.4236 53.5854C78.3396 53.5854 78.2615 53.5457 78.2125 53.4781L75.8126 50.2067C75.7543 50.1274 75.745 50.0212 75.7905 49.9326C75.8348 49.8439 75.9258 49.7891 76.025 49.7891C76.9408 49.7891 77.7505 50.1764 78.2463 50.8531L80.6461 54.1244C80.7313 54.2411 80.7068 54.4056 80.5901 54.4919C80.5411 54.5257 80.4875 54.5421 80.4338 54.5421ZM78.559 53.0639C78.8203 53.0744 79.0711 53.1176 79.308 53.1899L77.8216 51.1634C77.5288 50.7644 77.0948 50.4914 76.5873 50.3759L78.559 53.0639Z" fill="white"/>
</mask>
<g mask="url(#mask3_2338_95539)">
<path d="M78.0324 51.0074L80.4323 54.2788C80.0029 53.6931 79.2878 53.3221 78.4233 53.3221L76.0234 50.0508C76.8879 50.0508 77.6031 50.4218 78.0324 51.0074Z" fill="#E6EEFF"/>
<path d="M80.4338 54.5421C80.3533 54.5421 80.2728 54.5047 80.2215 54.4347C79.826 53.8946 79.1703 53.5854 78.4236 53.5854C78.3396 53.5854 78.2615 53.5457 78.2125 53.4781L75.8126 50.2067C75.7543 50.1274 75.745 50.0212 75.7905 49.9326C75.8348 49.8439 75.9258 49.7891 76.025 49.7891C76.9408 49.7891 77.7505 50.1764 78.2463 50.8531L80.6461 54.1244C80.7313 54.2411 80.7068 54.4056 80.5901 54.4919C80.5411 54.5257 80.4875 54.5421 80.4338 54.5421ZM78.559 53.0639C78.8203 53.0744 79.0711 53.1176 79.308 53.1899L77.8216 51.1634C77.5288 50.7644 77.0948 50.4914 76.5873 50.3759L78.559 53.0639Z" fill="#E28FAA"/>
</g>
<path d="M65.6836 66.0508L64.4072 74.0576H40.6504L41.9279 66.0508H65.6836Z" fill="#E28FAA"/>
<path d="M80.8664 55.7511C80.8687 55.6986 80.8699 55.6449 80.8687 55.5924C80.8675 55.5609 80.8652 55.5318 80.8629 55.5003C80.8605 55.4536 80.857 55.4069 80.8512 55.3614C80.8477 55.3299 80.8419 55.2984 80.8372 55.2669C80.8325 55.2378 80.8302 55.2086 80.8244 55.1806C80.8209 55.1643 80.8162 55.1479 80.8127 55.1316C80.808 55.1094 80.8022 55.0873 80.7975 55.0663C80.7847 55.0161 80.7707 54.9659 80.7555 54.9181C80.7497 54.8994 80.7439 54.8819 80.738 54.8633C80.7357 54.8563 80.7334 54.8481 80.731 54.8411C80.7252 54.8236 80.7159 54.8084 80.7089 54.7909C80.6855 54.7314 80.661 54.6731 80.633 54.6171C80.6272 54.6054 80.6237 54.5926 80.6167 54.5809C80.6085 54.5646 80.598 54.5494 80.5887 54.5331C80.5654 54.4911 80.5409 54.4491 80.5152 54.4083C80.5059 54.3931 80.4977 54.3768 80.4872 54.3616C80.4697 54.3348 80.451 54.3079 80.4312 54.2811L78.0314 51.0098C78.0617 51.0506 78.0885 51.0938 78.1154 51.1369C78.141 51.1778 78.1655 51.2186 78.1889 51.2618C78.204 51.2898 78.2192 51.3178 78.2332 51.3458C78.2612 51.4018 78.2857 51.4601 78.309 51.5196C78.3184 51.5441 78.3289 51.5674 78.3382 51.5919C78.344 51.6094 78.3499 51.6281 78.3557 51.6468C78.3709 51.6958 78.386 51.7448 78.3977 51.7949C78.4035 51.8171 78.4082 51.8381 78.4129 51.8603C78.4222 51.9046 78.4304 51.9501 78.4374 51.9956C78.442 52.0271 78.4479 52.0586 78.4514 52.0901C78.4572 52.1356 78.4595 52.1823 78.463 52.2289C78.4654 52.2593 78.4677 52.2896 78.4689 52.3211C78.47 52.3736 78.4677 52.4261 78.4665 52.4798C78.4654 52.5066 78.4665 52.5323 78.4642 52.5591C78.4584 52.6396 78.4502 52.7201 78.4374 52.8029L73.6797 82.6346L76.0795 85.9059L80.8372 56.0743C80.85 55.9926 80.8594 55.9109 80.864 55.8304C80.8664 55.8036 80.8652 55.7779 80.8664 55.7511Z" fill="#E28FAA"/>
<path d="M76.0779 86.1701C75.9951 86.1701 75.9169 86.1316 75.8668 86.0628L73.4669 82.7914C73.4249 82.7354 73.4086 82.6643 73.4191 82.5943L78.1768 52.7626C78.1884 52.6914 78.1966 52.6191 78.2013 52.5421C78.2024 52.5304 78.2024 52.5188 78.2024 52.5071L78.2036 52.4709C78.2059 52.4231 78.2071 52.3753 78.2059 52.3286C78.2059 52.3111 78.2048 52.2948 78.2036 52.2773L78.2013 52.2469C78.1989 52.2049 78.1966 52.1629 78.1919 52.1221C78.1896 52.1011 78.1861 52.0801 78.1826 52.0591L78.1791 52.0369C78.1733 51.9973 78.1663 51.9564 78.1569 51.9168C78.1523 51.8981 78.1476 51.8783 78.1429 51.8596C78.1313 51.8141 78.1196 51.7709 78.1056 51.7278L78.0904 51.6788C78.0869 51.6694 78.0823 51.6589 78.0788 51.6484L78.0648 51.6146C78.0426 51.5563 78.0204 51.5061 77.9983 51.4606C77.9854 51.4349 77.9726 51.4104 77.9598 51.3859C77.9399 51.3486 77.9178 51.3124 77.8956 51.2763L77.8828 51.2564C77.8629 51.2249 77.8431 51.1934 77.8221 51.1643C77.7369 51.0476 77.7614 50.8831 77.8781 50.7968C77.9948 50.7116 78.1593 50.7361 78.2456 50.8528L80.6454 54.1241C80.6676 54.1533 80.6874 54.1836 80.7084 54.2139C80.7178 54.2279 80.7259 54.2431 80.7341 54.2571C80.7679 54.3108 80.7948 54.3574 80.8204 54.4053C80.8356 54.4298 80.8438 54.4438 80.8519 54.4601C80.8578 54.4718 80.8636 54.4858 80.8694 54.4998C80.8974 54.5581 80.9254 54.6223 80.9534 54.6934C80.9639 54.7168 80.9721 54.7331 80.9779 54.7494C80.9814 54.7588 80.9838 54.7669 80.9861 54.7751C80.9908 54.7903 80.9954 54.8043 81.0001 54.8194L81.0048 54.8358C81.0223 54.8894 81.0386 54.9454 81.0526 55.0014C81.0584 55.0259 81.0643 55.0493 81.0701 55.0749L81.0736 55.0889C81.0771 55.1018 81.0806 55.1158 81.0829 55.1286C81.0876 55.1519 81.0911 55.1753 81.0934 55.1974L81.1004 55.2441C81.1051 55.2721 81.1098 55.3001 81.1133 55.3293C81.1191 55.3806 81.1226 55.4319 81.1261 55.4844L81.1284 55.5124C81.1308 55.5369 81.1319 55.5614 81.1319 55.5859C81.1331 55.6443 81.1319 55.7026 81.1296 55.7598V55.7843C81.1296 55.8053 81.1284 55.8263 81.1273 55.8484C81.1214 55.9394 81.1109 56.0293 81.0969 56.1144L76.3393 85.9461C76.3229 86.0511 76.2448 86.1351 76.1421 86.1596C76.1199 86.1666 76.0989 86.1701 76.0779 86.1701ZM73.9546 82.5686L75.9181 85.2449L80.5766 56.0339C80.5883 55.9639 80.5964 55.8893 80.6011 55.8134C80.6023 55.8006 80.6023 55.7901 80.6023 55.7784L80.6034 55.7423C80.6034 55.7423 80.6034 55.7423 80.6034 55.7411C80.6058 55.6933 80.6069 55.6454 80.6058 55.5988C80.6058 55.5824 80.6046 55.5661 80.6034 55.5498L80.6011 55.5159C80.5988 55.4739 80.5964 55.4319 80.5918 55.3911C80.5894 55.3701 80.5859 55.3491 80.5824 55.3281L80.5731 55.2686C80.5719 55.2558 80.5696 55.2429 80.5673 55.2301L80.5568 55.1869C80.5521 55.1683 80.5474 55.1484 80.5428 55.1298C80.5311 55.0843 80.5194 55.0411 80.5054 54.9979L80.4903 54.9501C80.4891 54.9466 80.4844 54.9326 80.4833 54.9291C80.4751 54.9128 80.4693 54.8999 80.4646 54.8859C80.4424 54.8276 80.4203 54.7774 80.3981 54.7319C80.3923 54.7203 80.3876 54.7086 80.3829 54.6981C80.3724 54.6806 80.3654 54.6701 80.3596 54.6584C80.3398 54.6211 80.3176 54.5849 80.2954 54.5488C80.2884 54.5371 80.2814 54.5266 80.2756 54.5149C80.2558 54.4834 80.2394 54.4601 80.2219 54.4368L78.7321 52.4056C78.7309 52.4336 78.7309 52.4616 78.7298 52.4896V52.5153C78.7298 52.5363 78.7286 52.5573 78.7274 52.5783C78.7216 52.6716 78.7111 52.7591 78.6971 52.8454L73.9546 82.5686Z" fill="#E28FAA"/>
<path d="M94.1603 70.0527L90.9706 90.0541H72.4941L73.6783 82.6341L75.6838 70.0527H86.0776H88.4296H90.7793H94.1603Z" fill="#CC3C6C"/>
<path d="M90.9711 90.3174H72.4946C72.4176 90.3174 72.3452 90.2835 72.2951 90.2252C72.2449 90.1668 72.2239 90.0898 72.2356 90.014L75.4252 70.0127C75.4451 69.8855 75.5559 69.791 75.6842 69.791H94.1607C94.2377 69.791 94.3101 69.8248 94.3602 69.8832C94.4104 69.9415 94.4314 70.0185 94.4197 70.0943L91.2301 90.0957C91.2102 90.224 91.1006 90.3174 90.9711 90.3174ZM72.8026 89.7924H90.7471L93.8527 70.316H75.9082L72.8026 89.7924Z" fill="#E28FAA"/>
<path d="M76.0224 50.052C77.5974 50.052 78.6777 51.2828 78.4362 52.803L73.6786 82.6347L72.4956 90.0547H30.31C28.735 90.0547 27.6536 88.8238 27.8951 87.3037L33.8357 50.052L34.2744 47.2998C34.5171 45.7808 35.9906 44.5488 37.5667 44.5488H48.5229C49.3162 44.5488 49.9847 44.8603 50.4211 45.3643C50.8516 45.8613 51.0581 46.545 50.9379 47.2987C50.6952 48.8188 51.7756 50.0508 53.3505 50.0508H76.0224V50.052ZM64.4059 74.0573L65.6822 66.0505H41.9266L40.6491 74.0573H64.4059Z" fill="#CC3C6C"/>
<path d="M72.4952 90.3168H30.3109C29.458 90.3168 28.709 89.9889 28.2015 89.3951C27.7104 88.8188 27.5097 88.0616 27.6369 87.2624L34.0174 47.2586C34.2787 45.6194 35.8724 44.2871 37.5687 44.2871H48.5249C49.3707 44.2871 50.1151 44.6091 50.6214 45.1936C51.1219 45.7711 51.3272 46.5341 51.1989 47.3414C51.0962 47.9878 51.2537 48.5956 51.6446 49.0529C52.0494 49.5278 52.6561 49.7891 53.3526 49.7891H76.0232C76.8761 49.7891 77.6251 50.1158 78.1314 50.7096C78.6226 51.2859 78.8232 52.0431 78.696 52.8434L72.7554 90.0951C72.7344 90.2234 72.6247 90.3168 72.4952 90.3168ZM37.5687 44.8121C36.1185 44.8121 34.7582 45.9473 34.5354 47.3414L28.1549 87.3453C28.0522 87.9904 28.2097 88.5971 28.6005 89.0545C29.0065 89.5304 29.6132 89.7918 30.3109 89.7918H72.2712L78.1769 52.7618C78.2796 52.1166 78.1221 51.5088 77.7312 51.0514C77.3264 50.5766 76.7186 50.3153 76.022 50.3153H53.3526C52.4997 50.3153 51.7519 49.9886 51.2444 49.3948C50.7532 48.8184 50.5526 48.0601 50.6797 47.2598C50.7836 46.6076 50.6214 45.9963 50.2247 45.5378C49.8187 45.0699 49.2155 44.8121 48.5249 44.8121H37.5687ZM64.4067 74.3195H40.6499C40.5729 74.3195 40.5006 74.2856 40.4504 74.2273C40.4002 74.1689 40.3792 74.0919 40.3909 74.0161L41.6684 66.0093C41.6882 65.8821 41.7991 65.7876 41.9274 65.7876H65.6831C65.7601 65.7876 65.8324 65.8214 65.8826 65.8798C65.9327 65.9381 65.9537 66.0151 65.942 66.0909L64.6646 74.0978C64.6447 74.2249 64.535 74.3195 64.4067 74.3195ZM40.9579 73.7945H64.1827L65.3762 66.3126H42.1514L40.9579 73.7945Z" fill="#E28FAA"/>
<path d="M94.1604 70.0547L96.5602 73.326L93.3705 93.3273L90.9707 90.056L94.1604 70.0547Z" fill="#E28FAA"/>
<path d="M93.3709 93.5889C93.2881 93.5889 93.2099 93.5504 93.1597 93.4816L90.7599 90.2103C90.7179 90.1543 90.7016 90.0831 90.7121 90.0131L93.9017 70.0118C93.9181 69.9068 93.9962 69.8228 94.0989 69.7983C94.2016 69.7738 94.3101 69.8123 94.3719 69.8986L96.7717 73.1699C96.8137 73.2259 96.8301 73.2971 96.8196 73.3671L93.6299 93.3684C93.6136 93.4734 93.5354 93.5574 93.4327 93.5819C93.4117 93.5866 93.3919 93.5889 93.3709 93.5889ZM91.2476 89.9886L93.2111 92.6649L96.2852 73.3928L94.3217 70.7164L91.2476 89.9886Z" fill="#E28FAA"/>
<path d="M93.3716 93.3257L90.9718 90.0543H72.4953H30.3109C29.4464 90.0543 28.7301 89.6833 28.3008 89.0977L30.7006 92.369C31.1311 92.9547 31.8463 93.3257 32.7119 93.3257H74.8963H93.3716Z" fill="#CC3C6C"/>
<path d="M93.371 93.5875H32.7101C31.7943 93.5875 30.9835 93.199 30.4876 92.5235L28.0878 89.2522C28.0026 89.1355 28.0271 88.971 28.1438 88.8847C28.2605 88.7995 28.425 88.824 28.5113 88.9407C28.908 89.4808 29.5636 89.7912 30.3103 89.7912H90.9711C91.0551 89.7912 91.1333 89.8308 91.1823 89.8985L93.5821 93.1698C93.6405 93.2492 93.6498 93.3553 93.6043 93.444C93.5611 93.5327 93.4701 93.5875 93.371 93.5875ZM29.4248 90.1867L30.9111 92.2132C31.3078 92.7533 31.9635 93.0637 32.7101 93.0637H92.853L90.8381 90.3173H30.3103C30 90.3162 29.7025 90.2718 29.4248 90.1867Z" fill="#E28FAA"/>
<path d="M99.8727 56.015C100.831 56.015 101.609 55.2377 101.609 54.279C101.609 53.3202 100.831 52.543 99.8727 52.543C98.914 52.543 98.1367 53.3202 98.1367 54.279C98.1367 55.2377 98.914 56.015 99.8727 56.015Z" fill="#E28FAA"/>
<path d="M28.945 62.1556C29.9038 62.1556 30.681 61.3784 30.681 60.4196C30.681 59.4608 29.9038 58.6836 28.945 58.6836C27.9862 58.6836 27.209 59.4608 27.209 60.4196C27.209 61.3784 27.9862 62.1556 28.945 62.1556Z" fill="#E28FAA"/>
<path d="M29.8145 63.5586C30.1521 63.5586 30.4258 63.2849 30.4258 62.9473C30.4258 62.6096 30.1521 62.3359 29.8145 62.3359C29.4768 62.3359 29.2031 62.6096 29.2031 62.9473C29.2031 63.2849 29.4768 63.5586 29.8145 63.5586Z" fill="#E28FAA"/>
<path d="M43.8617 41.4518C45.5112 41.4518 46.8483 40.1147 46.8483 38.4652C46.8483 36.8157 45.5112 35.4785 43.8617 35.4785C42.2122 35.4785 40.875 36.8157 40.875 38.4652C40.875 40.1147 42.2122 41.4518 43.8617 41.4518Z" fill="#EBB3C6"/>
<path d="M40.8772 36.9928C41.6627 36.9928 42.2994 36.356 42.2994 35.5706C42.2994 34.7852 41.6627 34.1484 40.8772 34.1484C40.0918 34.1484 39.4551 34.7852 39.4551 35.5706C39.4551 36.356 40.0918 36.9928 40.8772 36.9928Z" fill="#E28FAA"/>
<path d="M89.0488 26.8066C93.1998 26.8066 96.0453 30.05 95.4071 34.054C94.769 38.0556 90.8886 41.3001 86.7376 41.3001C82.5878 41.3001 79.7423 38.0568 80.3804 34.054C81.0186 30.05 84.899 26.8066 89.0488 26.8066ZM89.4513 29.7093C89.5656 29.2286 89.2261 28.8145 88.7338 28.8145C88.7116 28.8145 88.6895 28.8156 88.6673 28.8168C88.1855 28.8483 87.7608 29.2485 87.7188 29.7093L87.0818 36.9636C87.0678 37.1281 87.1809 37.2623 87.3536 37.274C87.3618 37.2751 87.3711 37.2751 87.3793 37.2751C87.5601 37.2751 87.7328 37.1398 87.7736 36.9636L89.4513 29.7093ZM87.0573 39.2911C87.5006 39.2911 87.9136 38.9458 87.9825 38.5176C88.0501 38.0918 87.7468 37.7441 87.3046 37.7441C86.8625 37.7441 86.4471 38.0906 86.3795 38.5176C86.3106 38.9458 86.6151 39.2911 87.0573 39.2911Z" fill="#CC3C6C"/>
<path d="M86.7368 41.5623C84.6181 41.5623 82.762 40.7538 81.5101 39.2873C80.298 37.8663 79.8045 35.9938 80.1206 34.0128C80.7775 29.8944 84.7826 26.5449 89.048 26.5449C91.1666 26.5449 93.024 27.3534 94.2758 28.8211C95.488 30.2421 95.9815 32.1158 95.6653 34.0968C95.0085 38.2128 91.0033 41.5623 86.7368 41.5623ZM89.048 27.0699C85.0288 27.0699 81.257 30.2223 80.6386 34.0956C80.347 35.9214 80.7985 37.6446 81.9091 38.9466C83.0595 40.2953 84.7745 41.0373 86.7368 41.0373C90.756 41.0373 94.529 37.8861 95.1473 34.0128C95.439 32.1858 94.9875 30.4626 93.8768 29.1606C92.7253 27.8119 91.0103 27.0699 89.048 27.0699ZM87.0565 39.5544C86.7648 39.5544 86.4965 39.4354 86.3203 39.2289C86.1453 39.0248 86.0741 38.7576 86.1185 38.4776C86.199 37.9701 86.6376 37.5629 87.1486 37.4941C87.0716 37.4614 87.0028 37.4124 86.948 37.3483C86.8523 37.2374 86.808 37.0928 86.8208 36.9434L87.4578 29.6891C87.5103 29.0941 88.0341 28.5971 88.6501 28.5574C88.677 28.5551 88.705 28.5539 88.733 28.5539C89.0515 28.5539 89.342 28.6893 89.5286 28.9261C89.713 29.1594 89.7771 29.4674 89.7048 29.7708L88.0295 37.0251C87.9758 37.2608 87.7845 37.4498 87.5558 37.5151C87.746 37.5629 87.9151 37.6644 88.0388 37.8091C88.2138 38.0144 88.285 38.2804 88.2406 38.5604C88.152 39.1181 87.6316 39.5544 87.0565 39.5544ZM87.3026 38.0074C86.99 38.0074 86.6843 38.2606 86.6365 38.5593C86.6166 38.6853 86.6458 38.8019 86.7193 38.8871C86.7975 38.9781 86.9165 39.0283 87.0565 39.0283C87.3691 39.0283 87.6748 38.7751 87.7226 38.4764C87.7425 38.3504 87.7133 38.2338 87.6398 38.1474C87.5616 38.0576 87.4426 38.0074 87.3026 38.0074ZM88.733 29.0778C88.7178 29.0778 88.7015 29.0789 88.6863 29.0801C88.3316 29.1034 88.0096 29.4033 87.9805 29.7346L87.3435 36.9889C87.3423 36.9971 87.3435 37.0041 87.3458 37.0064C87.3481 37.0099 87.3575 37.0134 87.3715 37.0146C87.3715 37.0146 87.3715 37.0146 87.3726 37.0146C87.4403 37.0146 87.5056 36.9633 87.5185 36.9073L89.1938 29.6529V29.6518C89.2288 29.5024 89.202 29.3613 89.1168 29.2528C89.0293 29.1384 88.8928 29.0778 88.733 29.0778Z" fill="#E28FAA"/>
<path d="M88.733 28.8145C89.2254 28.8145 89.5637 29.2286 89.4505 29.7093L87.7752 36.9636C87.7344 37.1398 87.5617 37.2751 87.3809 37.2751C87.3727 37.2751 87.3634 37.2751 87.3552 37.274C87.1825 37.2623 87.0682 37.1281 87.0834 36.9636L87.7204 29.7093C87.7612 29.2473 88.1859 28.8483 88.6689 28.8168C88.6899 28.8145 88.712 28.8145 88.733 28.8145Z" fill="#E28FAA"/>
<path d="M87.3805 37.5384C87.3654 37.5384 87.3502 37.5384 87.335 37.5372C87.1822 37.5267 87.0434 37.4602 86.9477 37.3471C86.852 37.2362 86.8077 37.0916 86.8205 36.9422L87.4575 29.6879C87.51 29.0929 88.0339 28.5959 88.6499 28.5562C88.6767 28.5539 88.7047 28.5527 88.7327 28.5527C89.0512 28.5527 89.3417 28.6881 89.5284 28.9249C89.7127 29.1582 89.7769 29.4662 89.7045 29.7707L88.0292 37.0239C87.9627 37.3167 87.6827 37.5384 87.3805 37.5384ZM88.7327 29.0777C88.7175 29.0777 88.7012 29.0789 88.686 29.0801C88.3314 29.1034 88.0094 29.4032 87.9802 29.7346L87.3432 36.9889C87.342 36.9971 87.3432 37.0041 87.3455 37.0064C87.3479 37.0099 87.3572 37.0134 87.3712 37.0146C87.3712 37.0146 87.3712 37.0146 87.3724 37.0146C87.44 37.0146 87.5054 36.9632 87.5182 36.9072L89.1935 29.6529C89.2297 29.5024 89.2017 29.3601 89.1165 29.2527C89.029 29.1384 88.8925 29.0777 88.7327 29.0777Z" fill="#E28FAA"/>
<path d="M87.3021 37.7461C87.7454 37.7461 88.0487 38.0926 87.9799 38.5196C87.9122 38.9466 87.4981 39.2931 87.0547 39.2931C86.6126 39.2931 86.3081 38.9478 86.3769 38.5196C86.4457 38.0938 86.8611 37.7461 87.3021 37.7461Z" fill="#E28FAA"/>
<path d="M87.0563 39.5552C86.7647 39.5552 86.4963 39.4362 86.3202 39.2297C86.1452 39.0255 86.074 38.7584 86.1183 38.4784C86.207 37.9207 86.7273 37.4844 87.3025 37.4844C87.5941 37.4844 87.8625 37.6034 88.0386 37.8099C88.2136 38.0152 88.2848 38.2812 88.2405 38.5624C88.1518 39.1189 87.6315 39.5552 87.0563 39.5552ZM87.3025 38.0082C86.9898 38.0082 86.6841 38.2614 86.6363 38.56C86.6165 38.686 86.6457 38.8027 86.7192 38.8879C86.7973 38.9789 86.9163 39.029 87.0563 39.029C87.369 39.029 87.6746 38.7759 87.7225 38.4772C87.7423 38.3512 87.7132 38.2345 87.6397 38.1482C87.5615 38.0584 87.4425 38.0082 87.3025 38.0082Z" fill="#E28FAA"/>
</g>
</svg>
