<svg width="1440" height="112" viewBox="0 0 1440 112" fill="none" xmlns="http://www.w3.org/2000/svg">
<g opacity="0.1">
<path opacity="0.966" fill-rule="evenodd" clip-rule="evenodd" d="M239.898 65.809C228.442 66.7243 216.987 66.7243 205.531 65.809C211.156 43.8219 224.903 29.5166 246.771 22.8923C273.33 14.3447 299.907 14.23 326.502 22.549C326.502 32.6203 326.502 42.691 326.502 52.7623C306.436 43.1785 285.587 41.2332 263.954 46.9257C252.749 49.3022 244.73 55.5962 239.898 65.809Z" fill="#0055FF" fill-opacity="0.34"/>
<path opacity="0.952" fill-rule="evenodd" clip-rule="evenodd" d="M962.285 16.3699C975.021 15.8686 987.393 17.6993 999.401 21.8632C1000.21 28.0308 1000.32 34.2108 999.745 40.4032C983.709 31.8034 966.869 29.8581 949.226 34.5665C927.856 43.2261 916.062 59.1341 913.828 82.2899C911.841 98.4794 915.278 113.357 924.138 126.923C936.84 141.763 952.992 147.829 972.595 145.12C982.176 144.256 991.112 141.395 999.401 136.537C1000.3 142.184 1000.3 147.792 999.401 153.36C981.193 160.801 962.409 162.632 943.04 158.853C919.21 151.982 904.198 136.532 898.019 112.503C893.675 92.9875 895.277 73.9894 902.831 55.5099C915.443 31.5823 935.266 18.5356 962.285 16.3699Z" fill="#0055FF" fill-opacity="0.34"/>
<path opacity="0.954" fill-rule="evenodd" clip-rule="evenodd" d="M-41.9089 19.1172C-36.1814 19.1172 -30.4532 19.1172 -24.7256 19.1172C-24.7256 39.4885 -24.7256 59.8592 -24.7256 80.2305C-0.897816 80.2305 22.9293 80.2305 46.7571 80.2305C46.7571 59.8592 46.7571 39.4885 46.7571 19.1172C52.4846 19.1172 58.2129 19.1172 63.9404 19.1172C63.9404 65.8105 63.9404 112.504 63.9404 159.197C58.2129 159.197 52.4846 159.197 46.7571 159.197C46.7571 137.911 46.7571 116.624 46.7571 95.3372C22.9293 95.3372 -0.897816 95.3372 -24.7256 95.3372C-24.7256 116.624 -24.7256 137.911 -24.7256 159.197C-30.4532 159.197 -36.1814 159.197 -41.9089 159.197C-41.9089 112.504 -41.9089 65.8105 -41.9089 19.1172Z" fill="#0055FF" fill-opacity="0.34"/>
<path opacity="0.972" fill-rule="evenodd" clip-rule="evenodd" d="M72.1885 19.1172C96.9325 19.1172 121.676 19.1172 146.42 19.1172C146.42 24.1525 146.42 29.1885 146.42 34.2239C127.175 34.2239 107.93 34.2239 88.6845 34.2239C88.6845 49.5592 88.6845 64.8952 88.6845 80.2305C107.93 80.2305 127.175 80.2305 146.42 80.2305C146.42 85.2658 146.42 90.3019 146.42 95.3372C127.175 95.3372 107.93 95.3372 88.6845 95.3372C88.6845 111.359 88.6845 127.382 88.6845 143.404C107.93 143.404 127.175 143.404 146.42 143.404C146.42 148.669 146.42 153.933 146.42 159.197C121.676 159.197 96.9325 159.197 72.1885 159.197C72.1885 112.504 72.1885 65.8105 72.1885 19.1172Z" fill="#0055FF" fill-opacity="0.34"/>
<path opacity="0.978" fill-rule="evenodd" clip-rule="evenodd" d="M334.062 19.1172C354.455 19.0026 374.845 19.1172 395.235 19.4606C428.474 23.1411 440.73 41.1091 432.007 73.3639C426.186 84.8038 417.133 92.4718 404.858 96.3672C410.831 99.3577 415.759 103.592 419.635 109.071C430.461 125.434 441.114 141.914 451.596 158.511C439.224 159.426 426.852 159.426 414.48 158.511C405.373 143.289 396.094 128.183 386.643 113.191C381.261 106.4 374.275 103.882 365.68 105.637C365.68 123.491 365.68 141.344 365.68 159.197C355.141 159.197 344.601 159.197 334.062 159.197C334.062 112.504 334.062 65.8106 334.062 19.1172ZM365.68 43.1506C372.099 43.0366 378.512 43.1506 384.925 43.4939C395.503 44.5658 401.002 50.4025 401.421 61.0039C400.603 71.0938 395.331 77.6171 385.612 80.5739C378.993 81.3965 372.349 81.7399 365.68 81.6039C365.68 68.7859 365.68 55.9686 365.68 43.1506Z" fill="#0055FF" fill-opacity="0.34"/>
<path opacity="0.967" fill-rule="evenodd" clip-rule="evenodd" d="M459.157 19.1172C469.927 19.1172 480.691 19.1172 491.462 19.1172C491.462 65.8105 491.462 112.504 491.462 159.197C480.691 159.197 469.927 159.197 459.157 159.197C459.157 112.504 459.157 65.8105 459.157 19.1172Z" fill="#0055FF" fill-opacity="0.34"/>
<path opacity="0.969" fill-rule="evenodd" clip-rule="evenodd" d="M498.335 19.1169C510.027 18.8882 521.711 19.1176 533.389 19.8036C553.803 50.8395 574.079 81.9689 594.218 113.19C593.964 81.8377 593.854 50.4804 593.874 19.1169C604.184 19.1169 614.494 19.1169 624.804 19.1169C624.804 65.8102 624.804 112.504 624.804 159.197C613.8 159.426 602.803 159.196 591.812 158.51C570.45 126.125 549.253 93.623 528.234 61.0036C528.571 93.6964 528.681 126.428 528.578 159.197C518.494 159.197 508.418 159.197 498.335 159.197C498.335 112.504 498.335 65.8102 498.335 19.1169Z" fill="#0055FF" fill-opacity="0.34"/>
<path opacity="0.973" fill-rule="evenodd" clip-rule="evenodd" d="M631.678 19.1172C652.298 19.0026 672.918 19.1172 693.538 19.4606C735.087 22.7428 755.934 45.1735 756.085 86.7539C756.408 120.93 740.599 143.819 708.659 155.421C704.15 156.688 699.566 157.604 694.912 158.167C673.853 159.129 652.772 159.472 631.678 159.197C631.678 112.504 631.678 65.8106 631.678 19.1172ZM663.982 45.2106C672.945 44.9682 681.881 45.3115 690.788 46.2406C712.185 51.7765 722.722 65.6245 722.406 87.7839C723.114 106.868 715.099 120.716 698.349 129.327C695.222 130.523 692.012 131.438 688.726 132.074C680.506 132.95 672.258 133.293 663.982 133.104C663.982 103.806 663.982 74.5086 663.982 45.2106Z" fill="#0055FF" fill-opacity="0.34"/>
<path opacity="0.955" fill-rule="evenodd" clip-rule="evenodd" d="M833.754 19.1148C839.885 18.8971 845.954 19.1258 851.968 19.8014C869.935 65.9811 887.689 112.216 905.236 158.508C898.879 158.726 892.576 158.498 886.335 157.821C881.434 145.056 876.733 132.239 872.244 119.368C852.539 119.368 832.84 119.368 813.134 119.368C808.879 132.239 804.412 145.057 799.731 157.821C793.49 158.498 787.187 158.726 780.829 158.508C798.335 111.998 815.972 65.5341 833.754 19.1148ZM842.002 39.0281C849.975 60.3924 857.996 81.9084 866.058 103.575C850.477 104.49 834.902 104.49 819.32 103.575C827.437 82.2229 834.998 60.7068 842.002 39.0281Z" fill="#0055FF" fill-opacity="0.34"/>
<path opacity="0.955" fill-rule="evenodd" clip-rule="evenodd" d="M1060.57 19.1172C1066.76 19.1172 1072.95 19.1172 1079.13 19.1172C1096.64 65.6354 1114.28 112.099 1132.06 158.511C1125.7 158.729 1119.4 158.5 1113.15 157.824C1108.25 145.059 1103.55 132.241 1099.06 119.371C1079.36 119.371 1059.66 119.371 1039.95 119.371C1035.7 132.241 1031.23 145.059 1026.55 157.824C1020.31 158.5 1014.01 158.729 1007.65 158.511C1025.42 112.099 1043.07 65.6354 1060.57 19.1172ZM1068.82 39.0305C1076.8 60.403 1084.82 81.9184 1092.88 103.577C1077.3 104.493 1061.72 104.493 1046.14 103.577C1052.96 85.2926 1059.73 66.9813 1066.42 48.6439C1067.71 45.549 1068.52 42.3451 1068.82 39.0305Z" fill="#0055FF" fill-opacity="0.34"/>
<path opacity="0.955" fill-rule="evenodd" clip-rule="evenodd" d="M1139.62 19.1183C1158.88 18.8299 1178.13 19.1732 1197.35 20.1483C1213.35 21.9535 1226.98 28.4769 1238.25 39.7183C1245.25 48.3346 1249.6 58.1772 1251.31 69.2449C1254.54 87.5068 1252.48 105.132 1245.12 122.118C1233.69 142.321 1216.39 154.109 1193.23 157.482C1175.38 158.452 1157.51 158.795 1139.62 158.512C1139.62 112.047 1139.62 65.583 1139.62 19.1183ZM1156.8 34.2249C1169.21 33.8988 1181.58 34.3568 1193.92 35.5983C1217.02 39.1133 1230.43 52.3893 1234.13 75.4249C1236.02 88.6035 1234.64 101.421 1230 113.878C1219.95 132.93 1204.03 142.658 1182.23 143.062C1173.76 143.405 1165.28 143.52 1156.8 143.405C1156.8 107.012 1156.8 70.6183 1156.8 34.2249Z" fill="#0055FF" fill-opacity="0.34"/>
<path opacity="0.961" fill-rule="evenodd" clip-rule="evenodd" d="M1259.9 19.1172C1285.1 19.1172 1310.3 19.1172 1335.51 19.1172C1335.51 24.1525 1335.51 29.1885 1335.51 34.2239C1316.03 34.2239 1296.56 34.2239 1277.08 34.2239C1277.08 49.5592 1277.08 64.8952 1277.08 80.2305C1296.56 80.2305 1316.03 80.2305 1335.51 80.2305C1335.51 85.2658 1335.51 90.3019 1335.51 95.3372C1316.03 95.3372 1296.56 95.3372 1277.08 95.3372C1277.08 111.359 1277.08 127.382 1277.08 143.404C1296.56 143.404 1316.03 143.404 1335.51 143.404C1335.51 148.439 1335.51 153.475 1335.51 158.511C1310.3 158.511 1285.1 158.511 1259.9 158.511C1259.9 112.046 1259.9 65.5819 1259.9 19.1172Z" fill="#0055FF" fill-opacity="0.34"/>
<path opacity="0.959" fill-rule="evenodd" clip-rule="evenodd" d="M1343.07 19.1166C1350.34 18.8969 1357.56 19.1255 1364.72 19.8033C1376.46 41.6578 1388.37 63.4025 1400.46 85.0366C1402.79 89.7307 1404.85 94.5373 1406.65 99.4566C1409.02 93.3411 1411.77 87.3898 1414.89 81.6033C1426.41 61.1138 1437.75 40.5138 1448.92 19.8033C1456 19.1173 1463.11 18.8886 1470.22 19.1166C1470.22 65.5813 1470.22 112.045 1470.22 158.51C1464.73 158.51 1459.23 158.51 1453.73 158.51C1453.64 119.355 1453.75 80.2148 1454.07 41.0899C1440.37 68.3437 1426.06 95.2384 1411.11 121.773C1407.96 122.322 1404.87 122.207 1401.83 121.43C1390.84 101.288 1379.84 81.1453 1368.84 61.0033C1365.26 54.3021 1362.05 47.4354 1359.22 40.4033C1359.54 79.7603 1359.65 119.129 1359.56 158.51C1354.06 158.51 1348.57 158.51 1343.07 158.51C1343.07 112.045 1343.07 65.5813 1343.07 19.1166Z" fill="#0055FF" fill-opacity="0.34"/>
<path opacity="0.979" fill-rule="evenodd" clip-rule="evenodd" d="M205.531 65.8086C216.987 66.7239 228.442 66.7239 239.898 65.8086C246.771 65.8086 253.644 65.8086 260.518 65.8086C260.518 72.2173 260.518 78.6266 260.518 85.0353C236.232 85.0353 211.946 85.0353 187.66 85.0353C187.66 78.6266 187.66 72.2173 187.66 65.8086C193.618 65.8086 199.574 65.8086 205.531 65.8086Z" fill="#0054FF"/>
<path opacity="0.961" fill-rule="evenodd" clip-rule="evenodd" d="M240.585 112.504C228.672 112.504 216.757 112.504 204.844 112.504C199.116 112.504 193.388 112.504 187.66 112.504C187.66 106.095 187.66 99.686 187.66 93.2773C211.946 93.2773 236.232 93.2773 260.518 93.2773C260.518 99.686 260.518 106.095 260.518 112.504C253.873 112.504 247.23 112.504 240.585 112.504Z" fill="#0054FF"/>
<path opacity="0.971" fill-rule="evenodd" clip-rule="evenodd" d="M204.844 112.503C216.757 112.503 228.672 112.503 240.585 112.503C248.069 127.351 260.212 134.675 277.014 134.477C282.878 134.326 288.606 133.411 294.197 131.73C294.197 119.828 294.197 107.925 294.197 96.0234C304.966 96.0234 315.733 96.0234 326.502 96.0234C326.617 113.878 326.502 131.731 326.158 149.583C310.551 158.001 293.825 161.892 275.983 161.257C255.922 162.13 238.166 156.293 222.714 143.747C213.831 135.041 207.874 124.627 204.844 112.503Z" fill="#0055FF" fill-opacity="0.34"/>
</g>
</svg>
