<svg width="2062" height="224" viewBox="0 0 2062 224" fill="none" xmlns="http://www.w3.org/2000/svg">
<g opacity="0.1">
<path opacity="0.966" fill-rule="evenodd" clip-rule="evenodd" d="M550.898 65.809C539.442 66.7243 527.987 66.7243 516.531 65.809C522.156 43.8219 535.903 29.5166 557.771 22.8923C584.33 14.3447 610.907 14.23 637.502 22.549C637.502 32.6203 637.502 42.691 637.502 52.7623C617.436 43.1785 596.587 41.2332 574.955 46.9257C563.749 49.3022 555.73 55.5962 550.898 65.809Z" fill="#0055FF" fill-opacity="0.34"/>
<path opacity="0.952" fill-rule="evenodd" clip-rule="evenodd" d="M1273.29 16.3699C1286.02 15.8686 1298.39 17.6993 1310.4 21.8632C1311.21 28.0308 1311.32 34.2108 1310.75 40.4032C1294.71 31.8034 1277.87 29.8581 1260.23 34.5665C1238.86 43.2261 1227.06 59.1341 1224.83 82.2899C1222.84 98.4794 1226.28 113.357 1235.14 126.923C1247.84 141.763 1263.99 147.829 1283.6 145.12C1293.18 144.256 1302.11 141.395 1310.4 136.537C1311.3 142.184 1311.3 147.792 1310.4 153.36C1292.19 160.801 1273.41 162.632 1254.04 158.853C1230.21 151.982 1215.2 136.532 1209.02 112.503C1204.68 92.9875 1206.28 73.9894 1213.83 55.5099C1226.44 31.5823 1246.27 18.5356 1273.29 16.3699Z" fill="#0055FF" fill-opacity="0.34"/>
<path opacity="0.958" fill-rule="evenodd" clip-rule="evenodd" d="M163.929 19.1172C196.462 19.1172 228.996 19.1172 261.53 19.1172C261.53 24.1525 261.53 29.1885 261.53 34.2239C248.012 34.2239 234.495 34.2239 220.977 34.2239C220.977 75.8819 220.977 117.539 220.977 159.197C215.25 159.197 209.522 159.197 203.794 159.197C203.794 117.539 203.794 75.8819 203.794 34.2239C190.506 34.2239 177.217 34.2239 163.929 34.2239C163.929 29.1885 163.929 24.1525 163.929 19.1172Z" fill="#0055FF" fill-opacity="0.34"/>
<path opacity="0.954" fill-rule="evenodd" clip-rule="evenodd" d="M269.091 19.1172C274.818 19.1172 280.547 19.1172 286.274 19.1172C286.274 39.4885 286.274 59.8592 286.274 80.2305C310.102 80.2305 333.929 80.2305 357.757 80.2305C357.757 59.8592 357.757 39.4885 357.757 19.1172C363.484 19.1172 369.213 19.1172 374.94 19.1172C374.94 65.8105 374.94 112.504 374.94 159.197C369.213 159.197 363.484 159.197 357.757 159.197C357.757 137.911 357.757 116.624 357.757 95.3372C333.929 95.3372 310.102 95.3372 286.274 95.3372C286.274 116.624 286.274 137.911 286.274 159.197C280.547 159.197 274.818 159.197 269.091 159.197C269.091 112.504 269.091 65.8105 269.091 19.1172Z" fill="#0055FF" fill-opacity="0.34"/>
<path opacity="0.972" fill-rule="evenodd" clip-rule="evenodd" d="M383.188 19.1172C407.932 19.1172 432.676 19.1172 457.42 19.1172C457.42 24.1525 457.42 29.1885 457.42 34.2239C438.175 34.2239 418.93 34.2239 399.684 34.2239C399.684 49.5592 399.684 64.8952 399.684 80.2305C418.93 80.2305 438.175 80.2305 457.42 80.2305C457.42 85.2658 457.42 90.3019 457.42 95.3372C438.175 95.3372 418.93 95.3372 399.684 95.3372C399.684 111.359 399.684 127.382 399.684 143.404C418.93 143.404 438.175 143.404 457.42 143.404C457.42 148.669 457.42 153.933 457.42 159.197C432.676 159.197 407.932 159.197 383.188 159.197C383.188 112.504 383.188 65.8105 383.188 19.1172Z" fill="#0055FF" fill-opacity="0.34"/>
<path opacity="0.978" fill-rule="evenodd" clip-rule="evenodd" d="M645.062 19.1172C665.455 19.0026 685.845 19.1172 706.235 19.4606C739.475 23.1411 751.73 41.1091 743.007 73.3639C737.186 84.8038 728.134 92.4718 715.858 96.3672C721.831 99.3577 726.759 103.592 730.635 109.071C741.461 125.434 752.115 141.914 762.596 158.511C750.224 159.426 737.852 159.426 725.48 158.511C716.373 143.289 707.094 128.183 697.643 113.191C692.262 106.4 685.275 103.882 676.68 105.637C676.68 123.491 676.68 141.344 676.68 159.197C666.141 159.197 655.601 159.197 645.062 159.197C645.062 112.504 645.062 65.8106 645.062 19.1172ZM676.68 43.1506C683.099 43.0366 689.512 43.1506 695.925 43.4939C706.503 44.5658 712.002 50.4025 712.421 61.0039C711.603 71.0938 706.331 77.6171 696.612 80.5739C689.993 81.3965 683.35 81.7399 676.68 81.6039C676.68 68.7859 676.68 55.9686 676.68 43.1506Z" fill="#0055FF" fill-opacity="0.34"/>
<path opacity="0.967" fill-rule="evenodd" clip-rule="evenodd" d="M770.157 19.1172C780.928 19.1172 791.691 19.1172 802.462 19.1172C802.462 65.8105 802.462 112.504 802.462 159.197C791.691 159.197 780.928 159.197 770.157 159.197C770.157 112.504 770.157 65.8105 770.157 19.1172Z" fill="#0055FF" fill-opacity="0.34"/>
<path opacity="0.969" fill-rule="evenodd" clip-rule="evenodd" d="M809.335 19.1169C821.027 18.8882 832.711 19.1176 844.389 19.8036C864.803 50.8395 885.079 81.9689 905.218 113.19C904.964 81.8377 904.854 50.4804 904.874 19.1169C915.184 19.1169 925.494 19.1169 935.804 19.1169C935.804 65.8102 935.804 112.504 935.804 159.197C924.8 159.426 913.803 159.196 902.812 158.51C881.45 126.125 860.253 93.623 839.234 61.0036C839.571 93.6964 839.681 126.428 839.578 159.197C829.494 159.197 819.418 159.197 809.335 159.197C809.335 112.504 809.335 65.8102 809.335 19.1169Z" fill="#0055FF" fill-opacity="0.34"/>
<path opacity="0.973" fill-rule="evenodd" clip-rule="evenodd" d="M942.678 19.1172C963.298 19.0026 983.918 19.1172 1004.54 19.4606C1046.09 22.7428 1066.93 45.1735 1067.09 86.7539C1067.41 120.93 1051.6 143.819 1019.66 155.421C1015.15 156.688 1010.57 157.604 1005.91 158.167C984.853 159.129 963.772 159.472 942.678 159.197C942.678 112.504 942.678 65.8106 942.678 19.1172ZM974.982 45.2106C983.945 44.9682 992.881 45.3115 1001.79 46.2406C1023.19 51.7765 1033.72 65.6245 1033.41 87.7839C1034.11 106.868 1026.1 120.716 1009.35 129.327C1006.22 130.523 1003.01 131.438 999.726 132.074C991.506 132.95 983.258 133.293 974.982 133.104C974.982 103.806 974.982 74.5086 974.982 45.2106Z" fill="#0055FF" fill-opacity="0.34"/>
<path opacity="0.955" fill-rule="evenodd" clip-rule="evenodd" d="M1144.75 19.1148C1150.88 18.8971 1156.95 19.1258 1162.97 19.8014C1180.93 65.9811 1198.69 112.216 1216.24 158.508C1209.88 158.726 1203.58 158.498 1197.33 157.821C1192.43 145.056 1187.73 132.239 1183.24 119.368C1163.54 119.368 1143.84 119.368 1124.13 119.368C1119.88 132.239 1115.41 145.057 1110.73 157.821C1104.49 158.498 1098.19 158.726 1091.83 158.508C1109.34 111.998 1126.97 65.5341 1144.75 19.1148ZM1153 39.0281C1160.97 60.3924 1169 81.9084 1177.06 103.575C1161.48 104.49 1145.9 104.49 1130.32 103.575C1138.44 82.2229 1146 60.7068 1153 39.0281Z" fill="#0055FF" fill-opacity="0.34"/>
<path opacity="0.955" fill-rule="evenodd" clip-rule="evenodd" d="M1371.57 19.1172C1377.76 19.1172 1383.95 19.1172 1390.13 19.1172C1407.64 65.6354 1425.28 112.099 1443.06 158.511C1436.7 158.729 1430.4 158.5 1424.15 157.824C1419.25 145.059 1414.55 132.241 1410.06 119.371C1390.36 119.371 1370.66 119.371 1350.95 119.371C1346.7 132.241 1342.23 145.059 1337.55 157.824C1331.31 158.5 1325.01 158.729 1318.65 158.511C1336.42 112.099 1354.07 65.6354 1371.57 19.1172ZM1379.82 39.0305C1387.8 60.403 1395.82 81.9184 1403.88 103.577C1388.3 104.493 1372.72 104.493 1357.14 103.577C1363.96 85.2926 1370.73 66.9813 1377.42 48.6439C1378.71 45.549 1379.52 42.3451 1379.82 39.0305Z" fill="#0055FF" fill-opacity="0.34"/>
<path opacity="0.955" fill-rule="evenodd" clip-rule="evenodd" d="M1450.62 19.1183C1469.88 18.8299 1489.13 19.1732 1508.35 20.1483C1524.35 21.9535 1537.98 28.4769 1549.25 39.7183C1556.25 48.3346 1560.6 58.1772 1562.31 69.2449C1565.54 87.5068 1563.48 105.132 1556.12 122.118C1544.69 142.321 1527.39 154.109 1504.23 157.482C1486.38 158.452 1468.51 158.795 1450.62 158.512C1450.62 112.047 1450.62 65.583 1450.62 19.1183ZM1467.8 34.2249C1480.21 33.8988 1492.58 34.3568 1504.92 35.5983C1528.02 39.1133 1541.43 52.3893 1545.13 75.4249C1547.02 88.6035 1545.64 101.421 1541 113.878C1530.95 132.93 1515.03 142.658 1493.23 143.062C1484.76 143.405 1476.28 143.52 1467.8 143.405C1467.8 107.012 1467.8 70.6183 1467.8 34.2249Z" fill="#0055FF" fill-opacity="0.34"/>
<path opacity="0.961" fill-rule="evenodd" clip-rule="evenodd" d="M1570.9 19.1172C1596.1 19.1172 1621.3 19.1172 1646.51 19.1172C1646.51 24.1525 1646.51 29.1885 1646.51 34.2239C1627.03 34.2239 1607.56 34.2239 1588.08 34.2239C1588.08 49.5592 1588.08 64.8952 1588.08 80.2305C1607.56 80.2305 1627.03 80.2305 1646.51 80.2305C1646.51 85.2658 1646.51 90.3019 1646.51 95.3372C1627.03 95.3372 1607.56 95.3372 1588.08 95.3372C1588.08 111.359 1588.08 127.382 1588.08 143.404C1607.56 143.404 1627.03 143.404 1646.51 143.404C1646.51 148.439 1646.51 153.475 1646.51 158.511C1621.3 158.511 1596.1 158.511 1570.9 158.511C1570.9 112.046 1570.9 65.5819 1570.9 19.1172Z" fill="#0055FF" fill-opacity="0.34"/>
<path opacity="0.959" fill-rule="evenodd" clip-rule="evenodd" d="M1654.07 19.1166C1661.34 18.8969 1668.56 19.1255 1675.72 19.8033C1687.46 41.6578 1699.37 63.4025 1711.46 85.0366C1713.79 89.7307 1715.85 94.5373 1717.65 99.4566C1720.02 93.3411 1722.77 87.3898 1725.89 81.6033C1737.41 61.1138 1748.75 40.5138 1759.92 19.8033C1767 19.1173 1774.11 18.8886 1781.22 19.1166C1781.22 65.5813 1781.22 112.045 1781.22 158.51C1775.73 158.51 1770.23 158.51 1764.73 158.51C1764.64 119.355 1764.75 80.2148 1765.07 41.0899C1751.37 68.3437 1737.06 95.2384 1722.11 121.773C1718.96 122.322 1715.87 122.207 1712.83 121.43C1701.84 101.288 1690.84 81.1453 1679.84 61.0033C1676.26 54.3021 1673.05 47.4354 1670.22 40.4033C1670.54 79.7603 1670.65 119.129 1670.56 158.51C1665.06 158.51 1659.57 158.51 1654.07 158.51C1654.07 112.045 1654.07 65.5813 1654.07 19.1166Z" fill="#0055FF" fill-opacity="0.34"/>
<path opacity="0.949" fill-rule="evenodd" clip-rule="evenodd" d="M1789.47 19.1165C1795.91 18.8885 1802.32 19.1179 1808.72 19.8032C1820.62 42.8978 1831.96 66.2445 1842.74 89.8432C1854.3 66.3036 1866.21 42.9569 1878.48 19.8032C1884.51 18.8995 1890.59 18.8995 1896.7 19.8032C1881.69 48.4145 1866.68 77.0252 1851.68 105.637C1851.33 123.26 1851.22 140.884 1851.33 158.51C1845.61 158.51 1839.87 158.51 1834.15 158.51C1834.27 141.342 1834.15 124.175 1833.81 107.01C1818.84 77.7826 1804.06 48.4846 1789.47 19.1165Z" fill="#0055FF" fill-opacity="0.34"/>
<path opacity="0.979" fill-rule="evenodd" clip-rule="evenodd" d="M516.531 65.8086C527.987 66.7239 539.442 66.7239 550.897 65.8086C557.771 65.8086 564.644 65.8086 571.517 65.8086C571.517 72.2173 571.517 78.6266 571.517 85.0353C547.232 85.0353 522.946 85.0353 498.66 85.0353C498.66 78.6266 498.66 72.2173 498.66 65.8086C504.617 65.8086 510.574 65.8086 516.531 65.8086Z" fill="#0054FF"/>
<path opacity="0.961" fill-rule="evenodd" clip-rule="evenodd" d="M551.585 112.504C539.671 112.504 527.757 112.504 515.843 112.504C510.116 112.504 504.388 112.504 498.66 112.504C498.66 106.095 498.66 99.686 498.66 93.2773C522.946 93.2773 547.232 93.2773 571.517 93.2773C571.517 99.686 571.517 106.095 571.517 112.504C564.873 112.504 558.229 112.504 551.585 112.504Z" fill="#0054FF"/>
<path opacity="0.971" fill-rule="evenodd" clip-rule="evenodd" d="M515.844 112.503C527.757 112.503 539.672 112.503 551.585 112.503C559.069 127.351 571.212 134.675 588.014 134.477C593.878 134.326 599.606 133.411 605.197 131.73C605.197 119.828 605.197 107.925 605.197 96.0234C615.966 96.0234 626.733 96.0234 637.502 96.0234C637.617 113.878 637.502 131.731 637.158 149.583C621.551 158.001 604.825 161.892 586.983 161.257C566.922 162.13 549.166 156.293 533.714 143.747C524.831 135.041 518.874 124.627 515.844 112.503Z" fill="#0055FF" fill-opacity="0.34"/>
</g>
</svg>
