<svg width="44" height="44" viewBox="0 0 44 44" fill="none" xmlns="http://www.w3.org/2000/svg">
<path opacity="0.991" fill-rule="evenodd" clip-rule="evenodd" d="M19.2573 18.4366C17.4973 18.4366 15.7373 18.4366 13.9773 18.4366C14.69 15.5381 16.4011 13.4701 19.1106 12.2326C21.5239 11.218 24.0417 10.7145 26.664 10.7219C28.7382 10.6983 30.7574 11.0161 32.7213 11.6753C32.7506 13.2131 32.7603 14.7531 32.7506 16.2953C30.8536 15.2977 28.8296 14.8186 26.6786 14.8579C25.0235 14.8516 23.4297 15.1596 21.8973 15.7819C20.6385 16.2927 19.7585 17.1776 19.2573 18.4366Z" fill="#E6EEFF"/>
<path opacity="0.99" fill-rule="evenodd" clip-rule="evenodd" d="M13.9773 18.4355C15.7373 18.4355 17.4973 18.4355 19.2573 18.4355C20.3524 18.4355 21.4476 18.4355 22.5427 18.4355C22.5427 19.4133 22.5427 20.3911 22.5427 21.3689C18.7587 21.3689 14.9747 21.3689 11.1907 21.3689C11.1907 20.3911 11.1907 19.4133 11.1907 18.4355C12.1196 18.4355 13.0484 18.4355 13.9773 18.4355Z" fill="#0054FE"/>
<path opacity="0.99" fill-rule="evenodd" clip-rule="evenodd" d="M19.3747 25.6227C17.556 25.6227 15.7373 25.6227 13.9187 25.6227C13.0093 25.6227 12.1 25.6227 11.1907 25.6227C11.1907 24.6547 11.1907 23.6867 11.1907 22.7188C14.9747 22.7188 18.7587 22.7188 22.5427 22.7188C22.5427 23.6867 22.5427 24.6547 22.5427 25.6227C21.4867 25.6227 20.4307 25.6227 19.3747 25.6227Z" fill="#0054FE"/>
<path opacity="0.992" fill-rule="evenodd" clip-rule="evenodd" d="M13.9187 25.6223C15.7374 25.6223 17.556 25.6223 19.3747 25.6223C20.1675 27.3681 21.4972 28.4681 23.364 28.9223C24.6396 29.1879 25.9107 29.1684 27.1774 28.8636C27.4047 28.7976 27.6247 28.7145 27.8374 28.6143C27.852 26.7859 27.8569 24.9574 27.852 23.1289C29.4947 23.1136 31.1374 23.1038 32.78 23.0996C32.7897 25.8766 32.78 28.6535 32.7507 31.4303C31.1828 32.2868 29.5108 32.8295 27.7347 33.0583C25.6627 33.3531 23.5996 33.3041 21.5454 32.9116C18.7425 32.3255 16.5767 30.8345 15.048 28.4383C14.5336 27.5558 14.1571 26.6172 13.9187 25.6223Z" fill="#E6EEFF"/>
</svg>
