<svg width="188" height="44" viewBox="0 0 188 44" fill="none" xmlns="http://www.w3.org/2000/svg">
<g clip-path="url(#clip0_681_1659)">
<path opacity="0.966" fill-rule="evenodd" clip-rule="evenodd" d="M41.9477 18.0114C40.7048 18.1102 39.4619 18.1102 38.219 18.0114C38.8293 15.6373 40.3208 14.0927 42.6934 13.3774C45.5749 12.4544 48.4585 12.4421 51.3439 13.3403C51.3439 14.4278 51.3439 15.5152 51.3439 16.6027C49.1668 15.5678 46.9048 15.3578 44.5577 15.9724C43.342 16.2291 42.4719 16.9087 41.9477 18.0114Z" fill="#E6EEFF"/>
<path opacity="0.952" fill-rule="evenodd" clip-rule="evenodd" d="M120.324 12.6747C121.706 12.6206 123.049 12.8183 124.351 13.2679C124.439 13.9339 124.451 14.6012 124.389 15.2698C122.649 14.3412 120.822 14.1312 118.908 14.6396C116.589 15.5746 115.309 17.2923 115.067 19.7926C114.852 21.5407 115.224 23.1472 116.186 24.612C117.564 26.2144 119.316 26.8694 121.443 26.5768C122.483 26.4835 123.452 26.1746 124.351 25.65C124.449 26.2598 124.449 26.8654 124.351 27.4665C122.376 28.27 120.338 28.4677 118.236 28.0597C115.651 27.3178 114.022 25.6495 113.352 23.0549C112.881 20.9477 113.054 18.8963 113.874 16.901C115.242 14.3173 117.393 12.9086 120.324 12.6747Z" fill="#E6EEFF"/>
<path opacity="0.958" fill-rule="evenodd" clip-rule="evenodd" d="M-0.0372314 12.9707C3.49256 12.9707 7.02243 12.9707 10.5522 12.9707C10.5522 13.5144 10.5522 14.0582 10.5522 14.6019C9.08558 14.6019 7.61901 14.6019 6.15238 14.6019C6.15238 19.1 6.15238 23.598 6.15238 28.0961C5.53095 28.0961 4.90946 28.0961 4.28804 28.0961C4.28804 23.598 4.28804 19.1 4.28804 14.6019C2.84631 14.6019 1.4045 14.6019 -0.0372314 14.6019C-0.0372314 14.0582 -0.0372314 13.5144 -0.0372314 12.9707Z" fill="#E6EEFF"/>
<path opacity="0.954" fill-rule="evenodd" clip-rule="evenodd" d="M11.3724 12.9707C11.9939 12.9707 12.6154 12.9707 13.2368 12.9707C13.2368 15.1703 13.2368 17.3699 13.2368 19.5695C15.822 19.5695 18.4072 19.5695 20.9924 19.5695C20.9924 17.3699 20.9924 15.1703 20.9924 12.9707C21.6139 12.9707 22.2353 12.9707 22.8568 12.9707C22.8568 18.0125 22.8568 23.0543 22.8568 28.0961C22.2353 28.0961 21.6139 28.0961 20.9924 28.0961C20.9924 25.7977 20.9924 23.4992 20.9924 21.2007C18.4072 21.2007 15.822 21.2007 13.2368 21.2007C13.2368 23.4992 13.2368 25.7977 13.2368 28.0961C12.6154 28.0961 11.9939 28.0961 11.3724 28.0961C11.3724 23.0543 11.3724 18.0125 11.3724 12.9707Z" fill="#E6EEFF"/>
<path opacity="0.972" fill-rule="evenodd" clip-rule="evenodd" d="M23.7517 12.9707C26.4364 12.9707 29.121 12.9707 31.8057 12.9707C31.8057 13.5144 31.8057 14.0582 31.8057 14.6019C29.7176 14.6019 27.6295 14.6019 25.5415 14.6019C25.5415 16.2577 25.5415 17.9137 25.5415 19.5695C27.6295 19.5695 29.7176 19.5695 31.8057 19.5695C31.8057 20.1132 31.8057 20.657 31.8057 21.2007C29.7176 21.2007 27.6295 21.2007 25.5415 21.2007C25.5415 22.9307 25.5415 24.6608 25.5415 26.3908C27.6295 26.3908 29.7176 26.3908 31.8057 26.3908C31.8057 26.9593 31.8057 27.5277 31.8057 28.0961C29.121 28.0961 26.4364 28.0961 23.7517 28.0961C23.7517 23.0543 23.7517 18.0125 23.7517 12.9707Z" fill="#E6EEFF"/>
<path opacity="0.978" fill-rule="evenodd" clip-rule="evenodd" d="M52.1642 12.9695C54.3767 12.9571 56.589 12.9695 58.8012 13.0066C62.4076 13.404 63.7373 15.3441 62.7909 18.8269C62.1593 20.0621 61.1771 20.8901 59.8453 21.3107C60.4933 21.6336 61.028 22.0908 61.4486 22.6824C62.6231 24.4492 63.779 26.2287 64.9163 28.0208C63.5739 28.1196 62.2316 28.1196 60.8893 28.0208C59.9012 26.3772 58.8945 24.746 57.8691 23.1273C57.2852 22.394 56.5271 22.1222 55.5946 22.3117C55.5946 24.2394 55.5946 26.1672 55.5946 28.0949C54.4511 28.0949 53.3076 28.0949 52.1642 28.0949C52.1642 23.0531 52.1642 18.0113 52.1642 12.9695ZM55.5946 15.5645C56.291 15.5522 56.9869 15.5645 57.6826 15.6016C58.8303 15.7173 59.4269 16.3476 59.4724 17.4923C59.3837 18.5818 58.8117 19.2861 57.7572 19.6054C57.0391 19.6942 56.3182 19.7313 55.5946 19.7166C55.5946 18.3326 55.5946 16.9486 55.5946 15.5645Z" fill="#E6EEFF"/>
<path opacity="0.967" fill-rule="evenodd" clip-rule="evenodd" d="M65.7366 12.9707C66.9051 12.9707 68.073 12.9707 69.2415 12.9707C69.2415 18.0125 69.2415 23.0543 69.2415 28.0961C68.073 28.0961 66.9051 28.0961 65.7366 28.0961C65.7366 23.0543 65.7366 18.0125 65.7366 12.9707Z" fill="#E6EEFF"/>
<path opacity="0.969" fill-rule="evenodd" clip-rule="evenodd" d="M69.9873 12.9702C71.2558 12.9455 72.5236 12.9703 73.7906 13.0443C76.0054 16.3955 78.2053 19.7568 80.3903 23.128C80.3627 19.7426 80.3508 16.3567 80.353 12.9702C81.4716 12.9702 82.5902 12.9702 83.7088 12.9702C83.7088 18.012 83.7088 23.0538 83.7088 28.0956C82.5149 28.1203 81.3217 28.0955 80.1293 28.0215C77.8116 24.5246 75.5117 21.0151 73.2313 17.493C73.2678 21.0231 73.2797 24.5573 73.2685 28.0956C72.1745 28.0956 71.0813 28.0956 69.9873 28.0956C69.9873 23.0538 69.9873 18.012 69.9873 12.9702Z" fill="#E6EEFF"/>
<path opacity="0.973" fill-rule="evenodd" clip-rule="evenodd" d="M84.4546 12.9695C86.6918 12.9571 88.929 12.9695 91.1662 13.0066C95.6742 13.361 97.936 15.783 97.9524 20.2727C97.9875 23.9629 96.2723 26.4344 92.8068 27.6871C92.3176 27.824 91.8202 27.9229 91.3154 27.9837C89.0304 28.0875 86.7433 28.1246 84.4546 28.0949C84.4546 23.0531 84.4546 18.0113 84.4546 12.9695ZM87.9595 15.787C88.932 15.7608 89.9014 15.7979 90.8679 15.8982C93.1894 16.4959 94.3326 17.9912 94.2983 20.3839C94.3751 22.4446 93.5056 23.9399 91.6882 24.8696C91.3489 24.9987 91.0007 25.0976 90.6442 25.1662C89.7523 25.2608 88.8574 25.2979 87.9595 25.2774C87.9595 22.1139 87.9595 18.9505 87.9595 15.787Z" fill="#E6EEFF"/>
<path opacity="0.955" fill-rule="evenodd" clip-rule="evenodd" d="M106.379 12.9695C107.044 12.946 107.703 12.9707 108.355 13.0437C110.305 18.03 112.231 23.0224 114.135 28.0208C113.445 28.0444 112.761 28.0197 112.084 27.9467C111.552 26.5683 111.042 25.1844 110.555 23.7946C108.417 23.7946 106.28 23.7946 104.142 23.7946C103.68 25.1844 103.196 26.5684 102.688 27.9467C102.011 28.0197 101.327 28.0444 100.637 28.0208C102.536 22.9988 104.45 17.9818 106.379 12.9695ZM107.274 15.1197C108.139 17.4266 109.009 19.7498 109.884 22.0893C108.194 22.1881 106.504 22.1881 104.813 22.0893C105.694 19.7838 106.514 17.4605 107.274 15.1197Z" fill="#E6EEFF"/>
<path opacity="0.955" fill-rule="evenodd" clip-rule="evenodd" d="M130.989 12.9707C131.66 12.9707 132.331 12.9707 133.002 12.9707C134.901 17.9936 136.816 23.0107 138.744 28.022C138.054 28.0456 137.371 28.0209 136.693 27.9478C136.162 26.5695 135.652 25.1855 135.165 23.7958C133.027 23.7958 130.889 23.7958 128.751 23.7958C128.29 25.1855 127.805 26.5696 127.297 27.9478C126.62 28.0209 125.936 28.0456 125.246 28.022C127.175 23.0107 129.089 17.9936 130.989 12.9707ZM131.883 15.1209C132.749 17.4286 133.619 19.7518 134.493 22.0905C132.803 22.1893 131.113 22.1893 129.422 22.0905C130.163 20.1161 130.897 18.1389 131.622 16.1589C131.763 15.8247 131.851 15.4788 131.883 15.1209Z" fill="#E6EEFF"/>
<path opacity="0.955" fill-rule="evenodd" clip-rule="evenodd" d="M139.564 12.9696C141.655 12.9385 143.743 12.9756 145.829 13.0809C147.564 13.2758 149.043 13.9802 150.266 15.194C151.026 16.1243 151.498 17.1871 151.683 18.3822C152.033 20.354 151.809 22.2571 151.011 24.0913C149.771 26.2727 147.894 27.5455 145.381 27.9097C143.445 28.0145 141.506 28.0516 139.564 28.0209C139.564 23.0038 139.564 17.9868 139.564 12.9696ZM141.429 14.6008C142.775 14.5656 144.117 14.6151 145.456 14.7491C147.963 15.1287 149.417 16.5622 149.818 19.0495C150.023 20.4725 149.874 21.8565 149.371 23.2016C148.281 25.2587 146.553 26.3091 144.188 26.3527C143.269 26.3898 142.349 26.4021 141.429 26.3898C141.429 22.4601 141.429 18.5305 141.429 14.6008Z" fill="#E6EEFF"/>
<path opacity="0.961" fill-rule="evenodd" clip-rule="evenodd" d="M152.615 12.9707C155.349 12.9707 158.083 12.9707 160.818 12.9707C160.818 13.5144 160.818 14.0582 160.818 14.6019C158.705 14.6019 156.592 14.6019 154.479 14.6019C154.479 16.2577 154.479 17.9137 154.479 19.5695C156.592 19.5695 158.705 19.5695 160.818 19.5695C160.818 20.1132 160.818 20.657 160.818 21.2007C158.705 21.2007 156.592 21.2007 154.479 21.2007C154.479 22.9307 154.479 24.6608 154.479 26.3908C156.592 26.3908 158.705 26.3908 160.818 26.3908C160.818 26.9345 160.818 27.4783 160.818 28.022C158.083 28.022 155.349 28.022 152.615 28.022C152.615 23.0049 152.615 17.9878 152.615 12.9707Z" fill="#E6EEFF"/>
<path opacity="0.959" fill-rule="evenodd" clip-rule="evenodd" d="M161.638 12.9702C162.427 12.9464 163.21 12.9711 163.987 13.0443C165.261 15.4041 166.553 17.752 167.865 20.088C168.118 20.5949 168.342 21.1139 168.536 21.645C168.794 20.9847 169.092 20.3421 169.431 19.7173C170.68 17.5049 171.911 15.2806 173.123 13.0443C173.891 12.9702 174.662 12.9455 175.434 12.9702C175.434 17.9873 175.434 23.0043 175.434 28.0214C174.838 28.0214 174.241 28.0214 173.645 28.0214C173.635 23.7936 173.647 19.5674 173.682 15.3428C172.196 18.2856 170.642 21.1896 169.021 24.0547C168.679 24.114 168.343 24.1016 168.014 24.0177C166.821 21.8428 165.628 19.6678 164.435 17.493C164.046 16.7694 163.698 16.0279 163.391 15.2686C163.425 19.5183 163.438 23.7692 163.428 28.0214C162.831 28.0214 162.235 28.0214 161.638 28.0214C161.638 23.0043 161.638 17.9873 161.638 12.9702Z" fill="#E6EEFF"/>
<path opacity="0.949" fill-rule="evenodd" clip-rule="evenodd" d="M176.329 12.9701C177.027 12.9455 177.723 12.9703 178.417 13.0443C179.709 15.538 180.939 18.0589 182.109 20.607C183.362 18.0653 184.655 15.5444 185.987 13.0443C186.641 12.9467 187.3 12.9467 187.963 13.0443C186.335 16.1337 184.706 19.223 183.078 22.3123C183.041 24.2152 183.028 26.1182 183.041 28.0214C182.42 28.0214 181.798 28.0214 181.177 28.0214C181.189 26.1677 181.177 24.3141 181.139 22.4606C179.515 19.3047 177.912 16.1412 176.329 12.9701Z" fill="#E6EEFF"/>
<path opacity="0.979" fill-rule="evenodd" clip-rule="evenodd" d="M38.2189 18.0117C39.4619 18.1106 40.7047 18.1106 41.9476 18.0117C42.6934 18.0117 43.4391 18.0117 44.1848 18.0117C44.1848 18.7037 44.1848 19.3958 44.1848 20.0878C41.5499 20.0878 38.9149 20.0878 36.28 20.0878C36.28 19.3958 36.28 18.7037 36.28 18.0117C36.9264 18.0117 37.5726 18.0117 38.2189 18.0117Z" fill="#0054FF"/>
<path opacity="0.961" fill-rule="evenodd" clip-rule="evenodd" d="M42.0222 23.0546C40.7296 23.0546 39.437 23.0546 38.1444 23.0546C37.5229 23.0546 36.9015 23.0546 36.28 23.0546C36.28 22.3626 36.28 21.6705 36.28 20.9785C38.9149 20.9785 41.5499 20.9785 44.1848 20.9785C44.1848 21.6705 44.1848 22.3626 44.1848 23.0546C43.4639 23.0546 42.7431 23.0546 42.0222 23.0546Z" fill="#0054FD"/>
<path opacity="0.971" fill-rule="evenodd" clip-rule="evenodd" d="M38.1444 23.0529C39.437 23.0529 40.7297 23.0529 42.0222 23.0529C42.8343 24.656 44.1517 25.4469 45.9746 25.4255C46.6109 25.4093 47.2323 25.3104 47.839 25.1289C47.839 23.8438 47.839 22.5586 47.839 21.2734C49.0073 21.2734 50.1756 21.2734 51.3439 21.2734C51.3564 23.2013 51.3439 25.1291 51.3066 27.0567C49.6133 27.9656 47.7986 28.3857 45.8628 28.3171C43.6863 28.4114 41.7598 27.7812 40.0833 26.4265C39.1195 25.4865 38.4731 24.362 38.1444 23.0529Z" fill="#E6EEFF"/>
</g>
<defs>
<clipPath id="clip0_681_1659">
<rect width="188" height="44" fill="white"/>
</clipPath>
</defs>
</svg>
