<svg width="190" height="68" viewBox="0 0 190 68" fill="none" xmlns="http://www.w3.org/2000/svg">
<g clip-path="url(#clip0_732_2132)">
<path opacity="0.974" fill-rule="evenodd" clip-rule="evenodd" d="M81.784 10.1746C79.3395 10.3306 76.9064 10.3306 74.4849 10.1746C75.6783 5.589 78.5429 2.5886 83.079 1.17335C88.6417 -0.580184 94.2137 -0.619366 99.7964 1.05568C99.9129 3.14502 99.953 5.24331 99.9141 7.35065C95.3286 5.18565 90.6195 4.89149 85.7868 6.46818C83.8617 7.07873 82.5275 8.31419 81.784 10.1746Z" fill="#E6EEFF"/>
<path opacity="0.974" fill-rule="evenodd" clip-rule="evenodd" d="M0.315918 0.289062C7.14415 0.289062 13.9724 0.289062 20.8006 0.289062C20.8006 1.34803 20.8006 2.407 20.8006 3.46596C17.9751 3.46596 15.1497 3.46596 12.3242 3.46596C12.3242 12.2122 12.3242 20.9586 12.3242 29.7048C11.1469 29.7048 9.96962 29.7048 8.79234 29.7048C8.79234 20.9586 8.79234 12.2122 8.79234 3.46596C5.96686 3.46596 3.14139 3.46596 0.315918 3.46596C0.315918 2.407 0.315918 1.34803 0.315918 0.289062Z" fill="#E6EEFF"/>
<path opacity="0.973" fill-rule="evenodd" clip-rule="evenodd" d="M22.5669 0.289062C23.7442 0.289062 24.9215 0.289062 26.0987 0.289062C26.0987 4.56411 26.0987 8.83927 26.0987 13.1143C31.1218 13.1143 36.1448 13.1143 41.1679 13.1143C41.1679 8.83927 41.1679 4.56411 41.1679 0.289062C42.3452 0.289062 43.5225 0.289062 44.6998 0.289062C44.6998 10.0943 44.6998 19.8996 44.6998 29.7048C43.5225 29.7048 42.3452 29.7048 41.1679 29.7048C41.1679 25.2336 41.1679 20.7624 41.1679 16.2912C36.1448 16.2912 31.1218 16.2912 26.0987 16.2912C26.0987 20.7624 26.0987 25.2336 26.0987 29.7048C24.9215 29.7048 23.7442 29.7048 22.5669 29.7048C22.5669 19.8996 22.5669 10.0943 22.5669 0.289062Z" fill="#E6EEFF"/>
<path opacity="0.974" fill-rule="evenodd" clip-rule="evenodd" d="M46.4653 0.289062C51.6846 0.289062 56.9039 0.289062 62.1232 0.289062C62.1232 1.34803 62.1232 2.407 62.1232 3.46596C58.0812 3.46596 54.0391 3.46596 49.9972 3.46596C49.9972 6.68204 49.9972 9.89824 49.9972 13.1143C54.0391 13.1143 58.0812 13.1143 62.1232 13.1143C62.1232 14.1733 62.1232 15.2323 62.1232 16.2912C58.0812 16.2912 54.0391 16.2912 49.9972 16.2912C49.9972 19.7034 49.9972 23.1157 49.9972 26.5279C54.0391 26.5279 58.0812 26.5279 62.1232 26.5279C62.1232 27.5869 62.1232 28.6458 62.1232 29.7048C56.9039 29.7048 51.6846 29.7048 46.4653 29.7048C46.4653 19.8996 46.4653 10.0943 46.4653 0.289062Z" fill="#E6EEFF"/>
<path opacity="0.98" fill-rule="evenodd" clip-rule="evenodd" d="M101.562 0.292527C105.644 0.272877 109.725 0.292527 113.806 0.351358C116.001 0.42878 118.041 1.01709 119.928 2.1163C121.496 3.26987 122.419 4.81914 122.695 6.76399C123.189 11.6997 121.09 14.9551 116.396 16.53C117.672 17.2359 118.751 18.1772 119.634 19.3539C121.866 22.7758 124.083 26.2076 126.285 29.6494C123.695 29.7279 121.105 29.7279 118.515 29.6494C116.618 26.4626 114.675 23.3054 112.688 20.1776C112.189 19.5992 111.619 19.1091 110.981 18.7068C110.088 18.5425 109.185 18.4837 108.273 18.5303C108.273 22.2563 108.273 25.9822 108.273 29.7083C106.036 29.7083 103.799 29.7083 101.562 29.7083C101.562 19.9031 101.562 10.0977 101.562 0.292527ZM108.273 5.35203C109.569 5.33238 110.864 5.35203 112.158 5.41086C115.106 5.89058 116.224 7.59669 115.513 10.5292C114.911 12.0755 113.792 12.9973 112.158 13.2943C110.864 13.3531 109.569 13.3728 108.273 13.3531C108.273 10.686 108.273 8.0191 108.273 5.35203Z" fill="#E6EEFF"/>
<path opacity="0.981" fill-rule="evenodd" clip-rule="evenodd" d="M127.934 0.289062C130.17 0.289062 132.407 0.289062 134.644 0.289062C134.644 10.0943 134.644 19.8996 134.644 29.7048C132.407 29.7048 130.17 29.7048 127.934 29.7048C127.934 19.8996 127.934 10.0943 127.934 0.289062Z" fill="#E6EEFF"/>
<path opacity="0.979" fill-rule="evenodd" clip-rule="evenodd" d="M136.174 0.292527C138.569 0.272877 140.962 0.292527 143.356 0.351358C147.736 6.96919 152.072 13.6171 156.365 20.2952C156.308 13.6316 156.288 6.96413 156.306 0.292527C158.425 0.292527 160.544 0.292527 162.663 0.292527C162.663 10.0977 162.663 19.903 162.663 29.7083C160.386 29.7279 158.111 29.7083 155.835 29.6494C151.337 22.8747 146.883 16.0699 142.473 9.23491C142.521 16.0583 142.541 22.8827 142.532 29.7083C140.413 29.7083 138.293 29.7083 136.174 29.7083C136.174 19.903 136.174 10.0977 136.174 0.292527Z" fill="#E6EEFF"/>
<path opacity="0.98" fill-rule="evenodd" clip-rule="evenodd" d="M164.194 0.290607C168.788 0.240718 173.379 0.299549 177.968 0.467101C186.311 1.47206 190.432 6.17858 190.329 14.5867C190.425 21.3855 187.364 26.092 181.147 28.7062C179.995 29.0919 178.818 29.3665 177.615 29.5298C173.145 29.6996 168.671 29.7585 164.194 29.7063C164.194 19.9011 164.194 10.0958 164.194 0.290607ZM170.904 5.82076C172.754 5.77358 174.599 5.83241 176.438 5.99726C180.095 6.71206 182.313 8.88882 183.089 12.5275C183.652 15.5793 183.102 18.4032 181.441 20.9993C179.768 23.0609 177.59 24.1395 174.907 24.235C173.573 24.2938 172.239 24.3135 170.904 24.2938C170.904 18.1362 170.904 11.9784 170.904 5.82076Z" fill="#E6EEFF"/>
<path opacity="0.978" fill-rule="evenodd" clip-rule="evenodd" d="M74.4851 10.1758C76.9066 10.3318 79.3397 10.3318 81.7842 10.1758C83.2362 10.1758 84.6882 10.1758 86.1401 10.1758C86.1401 11.5093 86.1401 12.8428 86.1401 14.1763C80.9993 14.1763 75.8586 14.1763 70.7178 14.1763C70.7178 12.8428 70.7178 11.5093 70.7178 10.1758C71.9736 10.1758 73.2293 10.1758 74.4851 10.1758Z" fill="#0054FF"/>
<path opacity="0.962" fill-rule="evenodd" clip-rule="evenodd" d="M81.9017 19.938C79.4294 19.938 76.9571 19.938 74.4848 19.938C73.229 19.938 71.9733 19.938 70.7175 19.938C70.7175 18.6046 70.7175 17.271 70.7175 15.9375C75.8584 15.9375 80.9991 15.9375 86.1399 15.9375C86.1399 17.271 86.1399 18.6046 86.1399 19.938C84.7272 19.938 83.3144 19.938 81.9017 19.938Z" fill="#0054FE"/>
<path opacity="0.98" fill-rule="evenodd" clip-rule="evenodd" d="M74.4849 19.9396C76.9572 19.9396 79.4294 19.9396 81.9017 19.9396C83.103 22.4916 85.1044 24.0015 87.9059 24.4696C89.4111 24.6017 90.902 24.5232 92.3795 24.2343C92.6456 24.1587 92.9011 24.0607 93.1448 23.9401C93.2036 21.4695 93.2236 18.9986 93.2036 16.5273C95.4405 16.5273 97.6773 16.5273 99.9141 16.5273C99.9341 20.2928 99.9141 24.058 99.8553 27.823C96.5141 29.5253 92.9635 30.349 89.2009 30.2939C85.431 30.3627 82.0169 29.3234 78.9585 27.1758C76.6146 25.2958 75.1234 22.8837 74.4849 19.9396Z" fill="#E6EEFF"/>
<path opacity="0.961" fill-rule="evenodd" clip-rule="evenodd" d="M37.6359 37.8234C40.0151 37.6997 42.3697 37.8762 44.6996 38.3529C45.258 38.5258 45.8073 38.7218 46.3478 38.9412C46.4836 40.2069 46.5032 41.4815 46.4067 42.7652C43.3502 41.1096 40.1127 40.6193 36.6941 41.2944C31.8748 42.6999 29.1082 45.8965 28.3943 50.884C27.8771 54.1573 28.3872 57.2559 29.9248 60.1793C32.526 63.9375 36.1167 65.4871 40.6969 64.827C42.7259 64.654 44.6096 64.0457 46.3478 63.0032C46.503 64.1669 46.503 65.3247 46.3478 66.4743C43.8105 67.6356 41.142 68.2039 38.3423 68.1804C31.7819 68.0521 27.4063 64.9141 25.2156 58.7674C24.2504 55.2495 24.2504 51.7196 25.2156 48.1777C27.235 42.178 31.3752 38.7265 37.6359 37.8234Z" fill="#E6EEFF"/>
<path opacity="0.962" fill-rule="evenodd" clip-rule="evenodd" d="M11.5001 38.2959C12.7582 38.2568 14.014 38.296 15.2674 38.4135C19.0195 48.1291 22.7868 57.8363 26.5693 67.5351C25.2333 67.6328 23.8991 67.6139 22.5665 67.4763C21.5615 64.8206 20.5411 62.1732 19.5056 59.534C15.3845 59.436 11.264 59.4555 7.14414 59.5929C6.17783 62.2551 5.23601 64.9218 4.31867 67.5939C2.98211 67.6328 1.64789 67.5939 0.315918 67.4763C4.09134 57.7637 7.81943 48.037 11.5001 38.2959ZM13.266 42.0611C14.8553 46.7861 16.5427 51.4926 18.3283 56.1806C14.9934 56.318 11.6577 56.3375 8.32143 56.2395C9.77631 52.3872 11.2087 48.524 12.6185 44.6497C12.9683 43.8174 13.1841 42.9546 13.266 42.0611Z" fill="#E6EEFF"/>
<path opacity="0.962" fill-rule="evenodd" clip-rule="evenodd" d="M59.298 38.2951C60.5438 38.2574 61.7799 38.2966 63.0064 38.4127C66.7541 48.1003 70.5018 57.788 74.2494 67.4755C72.9175 67.5932 71.5833 67.632 70.2467 67.5932C69.2425 64.8963 68.2613 62.1896 67.3035 59.4744C63.1438 59.4744 58.984 59.4744 54.8243 59.4744C53.9505 62.1629 53.0087 64.8304 51.9988 67.4755C50.6663 67.6132 49.3321 67.632 47.9961 67.5343C51.7753 57.7911 55.5426 48.0448 59.298 38.2951ZM60.9462 42.2956C62.6519 46.9381 64.3395 51.6055 66.0085 56.2975C62.7121 56.2975 59.4157 56.2975 56.1193 56.2975C57.4764 52.4445 58.8696 48.6008 60.2987 44.7665C60.6238 43.9688 60.8396 43.1452 60.9462 42.2956Z" fill="#E6EEFF"/>
<path opacity="0.969" fill-rule="evenodd" clip-rule="evenodd" d="M75.8975 38.2945C79.7461 38.2446 83.5919 38.3035 87.4348 38.471C95.5828 39.556 99.6244 44.2232 99.5608 52.4729C99.662 59.1381 96.68 63.805 90.6135 66.4748C89.4302 66.9172 88.2137 67.2314 86.9639 67.4161C83.2782 67.5843 79.5894 67.6432 75.8975 67.5926C75.8975 57.8266 75.8975 48.0605 75.8975 38.2945ZM79.4293 41.4714C81.8262 41.4299 84.22 41.4887 86.6107 41.6479C89.2525 41.8801 91.5094 42.9195 93.3801 44.766C95.1283 47.0873 95.9724 49.7152 95.9112 52.6494C95.7911 59.6627 92.2593 63.565 85.3157 64.3568C83.354 64.4157 81.3918 64.4357 79.4293 64.4157C79.4293 56.7676 79.4293 49.1195 79.4293 41.4714Z" fill="#E6EEFF"/>
<path opacity="0.974" fill-rule="evenodd" clip-rule="evenodd" d="M101.209 38.293C106.468 38.293 111.726 38.293 116.985 38.293C116.985 39.3519 116.985 40.4109 116.985 41.4699C112.903 41.4699 108.822 41.4699 104.741 41.4699C104.741 44.6859 104.741 47.9021 104.741 51.1182C108.822 51.1182 112.903 51.1182 116.985 51.1182C116.985 52.1772 116.985 53.2362 116.985 54.2951C112.903 54.2951 108.822 54.2951 104.741 54.2951C104.741 57.6682 104.741 61.0411 104.741 64.4141C108.822 64.4141 112.903 64.4141 116.985 64.4141C116.985 65.4731 116.985 66.5321 116.985 67.591C111.726 67.591 106.468 67.591 101.209 67.591C101.209 57.825 101.209 48.059 101.209 38.293Z" fill="#E6EEFF"/>
<path opacity="0.964" fill-rule="evenodd" clip-rule="evenodd" d="M118.633 38.2959C120.086 38.2762 121.537 38.2959 122.989 38.3547C125.653 43.1498 128.302 47.9544 130.935 52.7684C131.322 53.5784 131.675 54.402 131.995 55.2393C132.263 54.4362 132.577 53.6517 132.937 52.8861C135.586 48.0619 138.235 43.2377 140.883 38.4135C142.373 38.296 143.864 38.2568 145.357 38.2959C145.357 48.0619 145.357 57.8279 145.357 67.5939C144.18 67.5939 143.003 67.5939 141.825 67.5939C141.776 59.2742 141.835 50.9593 142.002 42.6494C141.36 44.1683 140.654 45.6588 139.883 47.1206C137.548 51.3956 135.212 55.6708 132.878 59.9459C132.293 60.0826 131.704 60.1022 131.112 60.0047C128.596 55.3868 126.065 50.7783 123.519 46.1793C122.918 45.0853 122.408 43.9479 121.988 42.7671C122.039 51.0416 122.059 59.3172 122.047 67.5939C120.908 67.5939 119.771 67.5939 118.633 67.5939C118.633 57.8279 118.633 48.0619 118.633 38.2959Z" fill="#E6EEFF"/>
<path opacity="0.961" fill-rule="evenodd" clip-rule="evenodd" d="M147.005 38.2959C148.382 38.2568 149.754 38.296 151.126 38.4135C153.272 42.8208 155.45 47.2135 157.66 51.5918C157.856 52.1016 158.052 52.6116 158.248 53.1214C160.777 48.2225 163.308 43.3198 165.842 38.4135C167.096 38.296 168.351 38.2568 169.609 38.2959C166.476 44.4793 163.278 50.637 160.014 56.769C159.955 60.3771 159.935 63.9852 159.955 67.5939C158.778 67.5939 157.601 67.5939 156.424 67.5939C156.444 63.9852 156.424 60.3771 156.365 56.769C153.241 50.6049 150.122 44.4473 147.005 38.2959Z" fill="#E6EEFF"/>
</g>
<defs>
<clipPath id="clip0_732_2132">
<rect width="190" height="68" fill="white"/>
</clipPath>
</defs>
</svg>
